<?xml version="1.0" encoding="UTF-8" standalone="no"?>
<svg
   xmlns:dc="http://purl.org/dc/elements/1.1/"
   xmlns:cc="http://creativecommons.org/ns#"
   xmlns:rdf="http://www.w3.org/1999/02/22-rdf-syntax-ns#"
   xmlns:svg="http://www.w3.org/2000/svg"
   xmlns="http://www.w3.org/2000/svg"
   xmlns:xlink="http://www.w3.org/1999/xlink"
   xmlns:sodipodi="http://sodipodi.sourceforge.net/DTD/sodipodi-0.dtd"
   xmlns:inkscape="http://www.inkscape.org/namespaces/inkscape"
   sodipodi:docname="arm-heavy.svg"
   inkscape:version="0.92.4 (5da689c313, 2019-01-14)"
   id="svg4689"
   version="1.1"
   viewBox="0 0 128 128"
   height="128"
   width="128"
   inkscape:export-filename="arm-heavy.png"
   inkscape:export-xdpi="96"
   inkscape:export-ydpi="96">
  <defs
     id="defs4683">
    <inkscape:path-effect
       oposite_fuse="false"
       fuse_paths="false"
       discard_orig_path="false"
       mode="free"
       is_visible="true"
       id="path-effect5086"
       center_point="64,436"
       end_point="64,483.28776"
       start_point="64,388.71224"
       effect="mirror_symmetry" />
    <inkscape:path-effect
       effect="powerstroke"
       id="path-effect5082"
       is_visible="true"
       offset_points="0.89621985,-0.3869645 | 2.534558,-0.43242227 | 4.1503899,-0.31064538"
       sort_points="true"
       interpolator_type="CubicBezierSmooth"
       interpolator_beta="0.2"
       start_linecap_type="zerowidth"
       linejoin_type="spiro"
       miter_limit="4"
       end_linecap_type="zerowidth" />
    <inkscape:path-effect
       effect="mirror_symmetry"
       start_point="63.558058,388.83724"
       end_point="63.558058,483.41276"
       center_point="63.558058,436.125"
       id="path-effect5080"
       is_visible="true"
       mode="free"
       discard_orig_path="false"
       fuse_paths="false"
       oposite_fuse="false" />
    <inkscape:path-effect
       end_linecap_type="butt"
       miter_limit="4"
       linejoin_type="extrp_arc"
       start_linecap_type="butt"
       interpolator_beta="0.2"
       interpolator_type="CubicBezierFit"
       sort_points="true"
       offset_points="0.2,1 | 0.5,1 | 0.8,1"
       is_visible="true"
       id="path-effect5078"
       effect="powerstroke" />
    <inkscape:path-effect
       effect="mirror_symmetry"
       start_point="64,388.71224"
       end_point="64,483.28776"
       center_point="64,436"
       id="path-effect5074"
       is_visible="true"
       mode="free"
       discard_orig_path="false"
       fuse_paths="false"
       oposite_fuse="false" />
    <inkscape:path-effect
       end_linecap_type="butt"
       miter_limit="4"
       linejoin_type="extrp_arc"
       start_linecap_type="butt"
       interpolator_beta="0.2"
       interpolator_type="CubicBezierFit"
       sort_points="true"
       offset_points="0.2,1 | 0.5,1 | 0.8,1"
       is_visible="true"
       id="path-effect5072"
       effect="powerstroke" />
    <inkscape:path-effect
       effect="powerstroke"
       id="path-effect5068"
       is_visible="true"
       offset_points="0.2,1 | 0.5,1 | 0.8,1"
       sort_points="true"
       interpolator_type="CubicBezierFit"
       interpolator_beta="0.2"
       start_linecap_type="zerowidth"
       linejoin_type="extrp_arc"
       miter_limit="4"
       end_linecap_type="zerowidth" />
    <inkscape:path-effect
       oposite_fuse="false"
       fuse_paths="false"
       discard_orig_path="false"
       mode="free"
       is_visible="true"
       id="path-effect5066"
       center_point="64,436"
       end_point="64,483.28776"
       start_point="64,388.71224"
       effect="mirror_symmetry" />
    <inkscape:path-effect
       effect="mirror_symmetry"
       start_point="64,388.71224"
       end_point="64,483.28776"
       center_point="64,436"
       id="path-effect5062"
       is_visible="true"
       mode="free"
       discard_orig_path="false"
       fuse_paths="false"
       oposite_fuse="false" />
    <inkscape:path-effect
       effect="powerstroke"
       id="path-effect5037"
       is_visible="true"
       offset_points="0.080420707,0.48158501 | 0.66666667,1 | 0.95555557,1"
       sort_points="true"
       interpolator_type="CubicBezierFit"
       interpolator_beta="0.2"
       start_linecap_type="butt"
       linejoin_type="extrp_arc"
       miter_limit="4"
       end_linecap_type="round" />
    <inkscape:path-effect
       end_linecap_type="zerowidth"
       miter_limit="4"
       linejoin_type="extrp_arc"
       start_linecap_type="zerowidth"
       interpolator_beta="0.2"
       interpolator_type="CubicBezierJohan"
       sort_points="true"
       offset_points="0.99261183,2.7593583 | 0.051032298,0.47353289 | 1.9914175,5.0391593 | 3.8648694,2.7207095"
       is_visible="true"
       id="path-effect5017"
       effect="powerstroke" />
    <inkscape:path-effect
       effect="powerstroke"
       id="path-effect5003"
       is_visible="true"
       offset_points="0.99261183,2.7593583 | 0.051032298,0.47353289 | 1.9914175,5.0391593 | 3.8648694,2.7207095"
       sort_points="true"
       interpolator_type="CubicBezierJohan"
       interpolator_beta="0.2"
       start_linecap_type="zerowidth"
       linejoin_type="extrp_arc"
       miter_limit="4"
       end_linecap_type="zerowidth" />
    <inkscape:path-effect
       effect="mirror_symmetry"
       start_point="64,389.50773"
       end_point="64,493.98276"
       center_point="64,441.74524"
       id="path-effect5001"
       is_visible="true"
       mode="free"
       discard_orig_path="false"
       fuse_paths="false"
       oposite_fuse="false" />
    <inkscape:path-effect
       effect="powerstroke"
       id="path-effect4977"
       is_visible="true"
       offset_points="0.25338419,0.6649407 | 0.59995005,1.5212785 | 0.40799299,1.4168479 | 0.74569148,0.86265771"
       sort_points="true"
       interpolator_type="CubicBezierJohan"
       interpolator_beta="0.2"
       start_linecap_type="butt"
       linejoin_type="extrp_arc"
       miter_limit="4"
       end_linecap_type="butt" />
    <inkscape:path-effect
       effect="skeletal"
       id="path-effect4955"
       is_visible="true"
       pattern="m 110.44124,436 v 3 l -2.07712,-3 -1.94455,3 -2.16551,-3 -1.98874,3 -2.430677,-3 -1.944544,3 -2.519068,-3 -2.253903,3 -2.828427,-3 -2.12132,3 -2.563262,-3 0.04419,3 m 24.837121,0 v -3 l -2.07712,3 -1.94455,-3 -2.16551,3 -1.98874,-3 -2.430677,3 -1.944544,-3 -2.519068,3 -2.253903,-3 -2.828427,3 -2.12132,-3 -2.563262,3 0.04419,-3"
       copytype="single_stretched"
       prop_scale="1"
       scale_y_rel="false"
       spacing="0"
       normal_offset="0"
       tang_offset="0"
       prop_units="false"
       vertical_pattern="false"
       fuse_tolerance="0" />
    <inkscape:path-effect
       effect="powerstroke"
       id="path-effect1236"
       is_visible="true"
       offset_points="0.84394892,0.48334961 | 1,0.5 | 1.9128749,0.23109271"
       sort_points="true"
       interpolator_type="CubicBezierFit"
       interpolator_beta="0.2"
       start_linecap_type="zerowidth"
       linejoin_type="extrp_arc"
       miter_limit="4"
       end_linecap_type="zerowidth" />
    <inkscape:path-effect
       end_linecap_type="zerowidth"
       miter_limit="4"
       linejoin_type="extrp_arc"
       start_linecap_type="butt"
       interpolator_beta="0.2"
       interpolator_type="CubicBezierFit"
       sort_points="true"
       offset_points="0.22414736,3.5539908 | 0.026512463,1.4534061 | 0.18667062,2.2647886 | 0.97323256,1.4047213 | 0.91892798,2.2602741"
       is_visible="true"
       id="path-effect1231"
       effect="powerstroke" />
    <inkscape:path-effect
       end_linecap_type="zerowidth"
       miter_limit="4"
       linejoin_type="extrp_arc"
       start_linecap_type="butt"
       interpolator_beta="0.2"
       interpolator_type="CubicBezierFit"
       sort_points="true"
       offset_points="0.22414736,3.5539908 | 0.026512463,1.4534061 | 0.18667062,2.2647886 | 0.97323256,1.4047213 | 0.91892798,2.2602741"
       is_visible="true"
       id="path-effect1225"
       effect="powerstroke" />
    <inkscape:path-effect
       effect="powerstroke"
       id="path-effect1221"
       is_visible="true"
       offset_points="0.22414736,3.5539908 | 0.026512463,1.4534061 | 0.18667062,2.2647886 | 0.97323256,1.4047213 | 0.91892798,2.2602741"
       sort_points="true"
       interpolator_type="CubicBezierFit"
       interpolator_beta="0.2"
       start_linecap_type="butt"
       linejoin_type="extrp_arc"
       miter_limit="4"
       end_linecap_type="zerowidth" />
    <inkscape:path-effect
       effect="mirror_symmetry"
       start_point="126.10697,436"
       end_point="129.41947,436"
       center_point="127.76322,436"
       id="path-effect1179"
       is_visible="true"
       mode="free"
       discard_orig_path="false"
       fuse_paths="false"
       oposite_fuse="false" />
    <inkscape:path-effect
       effect="powerstroke"
       id="path-effect1164"
       is_visible="true"
       offset_points="1.1405498,0.36011439 | 1.737027,0.094365827"
       sort_points="true"
       interpolator_type="CubicBezierSmooth"
       interpolator_beta="0.2"
       start_linecap_type="butt"
       linejoin_type="miter"
       miter_limit="4"
       end_linecap_type="zerowidth" />
    <inkscape:path-effect
       oposite_fuse="false"
       fuse_paths="false"
       discard_orig_path="false"
       mode="free"
       is_visible="true"
       id="path-effect1162"
       center_point="109.62539,436"
       end_point="81.232531,436"
       start_point="138.01825,436"
       effect="mirror_symmetry" />
    <inkscape:path-effect
       effect="mirror_symmetry"
       start_point="138.01825,436"
       end_point="81.232532,436"
       center_point="109.62539,436"
       id="path-effect1158"
       is_visible="true"
       mode="free"
       discard_orig_path="false"
       fuse_paths="false"
       oposite_fuse="false" />
    <inkscape:path-effect
       effect="powerstroke"
       id="path-effect1156"
       is_visible="true"
       offset_points="0.069913683,1.5101525 | 0.060049316,4.9825518 | 0.5,0.5 | 0.8,0.5"
       sort_points="true"
       interpolator_type="CubicBezierFit"
       interpolator_beta="0.2"
       start_linecap_type="zerowidth"
       linejoin_type="extrp_arc"
       miter_limit="4"
       end_linecap_type="butt" />
    <inkscape:path-effect
       oposite_fuse="false"
       fuse_paths="false"
       discard_orig_path="false"
       mode="free"
       is_visible="true"
       id="path-effect1148"
       center_point="64,436"
       end_point="128,500"
       start_point="0,372"
       effect="mirror_symmetry" />
    <inkscape:path-effect
       end_linecap_type="round"
       miter_limit="4"
       linejoin_type="extrp_arc"
       start_linecap_type="round"
       interpolator_beta="0.2"
       interpolator_type="CubicBezierFit"
       sort_points="true"
       offset_points="0.031669347,3.954067 | 0.48761167,1.3081932 | 0.97797827,0.91716602 | 0.99270683,1.4890744"
       is_visible="true"
       id="path-effect1146"
       effect="powerstroke" />
    <inkscape:path-effect
       effect="powerstroke"
       id="path-effect1121"
       is_visible="true"
       offset_points="0.0018695645,2.6244024 | 0.22719079,1.0810743 | 1.6516272,1.4375867 | 2.1818199,1.9094186 | 2.9421071,1.7410847"
       sort_points="true"
       interpolator_type="CubicBezierFit"
       interpolator_beta="0.2"
       start_linecap_type="round"
       linejoin_type="extrp_arc"
       miter_limit="4"
       end_linecap_type="butt" />
    <inkscape:path-effect
       effect="mirror_symmetry"
       start_point="0,372"
       end_point="128,500"
       center_point="64,436"
       id="path-effect907"
       is_visible="true"
       mode="free"
       discard_orig_path="false"
       fuse_paths="false"
       oposite_fuse="false" />
    <inkscape:path-effect
       effect="powerstroke"
       id="path-effect905"
       is_visible="true"
       offset_points="0.32598227,0.26386547"
       sort_points="true"
       interpolator_type="CubicBezierJohan"
       interpolator_beta="0.2"
       start_linecap_type="butt"
       linejoin_type="extrp_arc"
       miter_limit="4"
       end_linecap_type="zerowidth" />
    <inkscape:path-effect
       oposite_fuse="false"
       fuse_paths="false"
       discard_orig_path="false"
       mode="free"
       is_visible="true"
       id="path-effect899"
       center_point="64,436"
       end_point="128,500"
       start_point="0,372"
       effect="mirror_symmetry" />
    <inkscape:path-effect
       end_linecap_type="zerowidth"
       miter_limit="4"
       linejoin_type="extrp_arc"
       start_linecap_type="round"
       interpolator_beta="0.2"
       interpolator_type="CubicBezierFit"
       sort_points="true"
       offset_points="0.098393317,4.3718065 | 0.97522333,1.3081932 | 1.1929603,0.81512777"
       is_visible="true"
       id="path-effect897"
       effect="powerstroke" />
    <inkscape:path-effect
       oposite_fuse="false"
       fuse_paths="false"
       discard_orig_path="false"
       mode="free"
       is_visible="true"
       id="path-effect893"
       center_point="64,436"
       end_point="128,500"
       start_point="0,372"
       effect="mirror_symmetry" />
    <inkscape:path-effect
       end_linecap_type="zerowidth"
       miter_limit="4"
       linejoin_type="extrp_arc"
       start_linecap_type="butt"
       interpolator_beta="0.2"
       interpolator_type="CubicBezierFit"
       sort_points="true"
       offset_points="0.11369258,2.4862991 | 0.95365104,2.4312212 | 1.481078,1.9564539"
       is_visible="true"
       id="path-effect891"
       effect="powerstroke" />
    <inkscape:path-effect
       effect="powerstroke"
       id="path-effect887"
       is_visible="true"
       offset_points="0.031669347,3.954067 | 0.48761167,1.3081932 | 0.97797827,0.91716602 | 0.99270683,1.4890744"
       sort_points="true"
       interpolator_type="CubicBezierFit"
       interpolator_beta="0.2"
       start_linecap_type="round"
       linejoin_type="extrp_arc"
       miter_limit="4"
       end_linecap_type="round" />
    <inkscape:path-effect
       effect="mirror_symmetry"
       start_point="1.2937158,373.92057"
       end_point="127.59729,500.22414"
       center_point="64.445503,437.07236"
       id="path-effect871"
       is_visible="true"
       mode="free"
       discard_orig_path="false"
       fuse_paths="false"
       oposite_fuse="false" />
    <inkscape:path-effect
       oposite_fuse="false"
       fuse_paths="false"
       discard_orig_path="false"
       mode="free"
       is_visible="true"
       id="path-effect5128"
       center_point="64,436"
       end_point="64,484"
       start_point="64,388"
       effect="mirror_symmetry" />
    <inkscape:path-effect
       oposite_fuse="false"
       fuse_paths="false"
       discard_orig_path="false"
       mode="free"
       is_visible="true"
       id="path-effect5128-1"
       center_point="64,436"
       end_point="64,484"
       start_point="64,388"
       effect="mirror_symmetry" />
    <linearGradient
       inkscape:collect="always"
       id="linearGradient887">
      <stop
         style="stop-color:#76d5a3;stop-opacity:1"
         offset="0"
         id="stop883" />
      <stop
         style="stop-color:#3cb215;stop-opacity:1"
         offset="1"
         id="stop885" />
    </linearGradient>
    <linearGradient
       inkscape:collect="always"
       xlink:href="#linearGradient887"
       id="linearGradient1023"
       gradientUnits="userSpaceOnUse"
       x1="25.958368"
       y1="389.59012"
       x2="25.958368"
       y2="422.26566"
       gradientTransform="translate(24.041631,0.35355339)" />
    <linearGradient
       inkscape:collect="always"
       id="linearGradient903-1">
      <stop
         style="stop-color:#6f6f6f;stop-opacity:1"
         offset="0"
         id="stop899-1" />
      <stop
         style="stop-color:#494949;stop-opacity:1"
         offset="1"
         id="stop901-30" />
    </linearGradient>
    <linearGradient
       inkscape:collect="always"
       xlink:href="#linearGradient903-1"
       id="linearGradient905-0"
       x1="70"
       y1="360.35718"
       x2="79.121239"
       y2="355.00003"
       gradientUnits="userSpaceOnUse" />
    <linearGradient
       inkscape:collect="always"
       id="linearGradient903-4">
      <stop
         style="stop-color:#0958b8;stop-opacity:1"
         offset="0"
         id="stop899-14" />
      <stop
         style="stop-color:#0a2b8c;stop-opacity:1"
         offset="1"
         id="stop901-32" />
    </linearGradient>
    <linearGradient
       inkscape:collect="always"
       id="linearGradient887-4">
      <stop
         style="stop-color:#fff1b9;stop-opacity:1"
         offset="0"
         id="stop883-0" />
      <stop
         style="stop-color:#e8d376;stop-opacity:1"
         offset="1"
         id="stop885-4" />
    </linearGradient>
    <linearGradient
       inkscape:collect="always"
       xlink:href="#linearGradient887-4"
       id="linearGradient1028-4"
       gradientUnits="userSpaceOnUse"
       gradientTransform="translate(-89.895187,-137.92335)"
       x1="-8.8858929"
       y1="361.19156"
       x2="-8.8858929"
       y2="383.01328" />
    <linearGradient
       gradientTransform="translate(-50,-320.00003)"
       gradientUnits="userSpaceOnUse"
       y2="355.00003"
       x2="79.121239"
       y1="360.35718"
       x1="70"
       id="linearGradient905-2-8"
       xlink:href="#linearGradient903-4"
       inkscape:collect="always" />
  </defs>
  <sodipodi:namedview
     inkscape:document-rotation="0"
     inkscape:snap-grids="false"
     inkscape:lockguides="false"
     inkscape:showpageshadow="false"
     inkscape:window-maximized="0"
     inkscape:window-y="-1"
     inkscape:window-x="411"
     inkscape:window-height="1195"
     inkscape:window-width="1493"
     inkscape:guide-bbox="true"
     showguides="false"
     inkscape:snap-path-mask="false"
     inkscape:snap-path-clip="false"
     inkscape:pagecheckerboard="false"
     showborder="true"
     units="px"
     showgrid="false"
     inkscape:current-layer="layer4"
     inkscape:document-units="px"
     inkscape:cy="64.801563"
     inkscape:cx="59.287014"
     inkscape:zoom="5.6568542"
     inkscape:pageshadow="2"
     inkscape:pageopacity="0"
     borderopacity="1.0"
     bordercolor="#666666"
     pagecolor="#d2d2d2"
     id="base"
     objecttolerance="9"
     guidetolerance="9"
     inkscape:snap-to-guides="true"
     inkscape:snap-smooth-nodes="true"
     inkscape:snap-global="true"
     inkscape:object-paths="true">
    <inkscape:grid
       empspacing="32"
       spacingx="2"
       spacingy="2"
       id="grid5234"
       type="xygrid" />
    <sodipodi:guide
       inkscape:color="rgb(0,0,0)"
       inkscape:locked="false"
       inkscape:label=""
       id="guide859"
       orientation="0,1"
       position="0,128" />
    <sodipodi:guide
       inkscape:color="rgb(0,0,0)"
       inkscape:locked="false"
       inkscape:label=""
       id="guide861"
       orientation="-1,0"
       position="128,128" />
    <sodipodi:guide
       inkscape:color="rgb(0,0,0)"
       inkscape:locked="false"
       inkscape:label=""
       id="guide863"
       orientation="0,1"
       position="128,0" />
    <sodipodi:guide
       inkscape:color="rgb(0,0,0)"
       inkscape:locked="false"
       inkscape:label=""
       id="guide865"
       orientation="-1,0"
       position="0,0" />
    <sodipodi:guide
       inkscape:color="rgb(0,0,0)"
       inkscape:locked="false"
       inkscape:label=""
       id="guide867"
       orientation="0,1"
       position="108.99032,64" />
    <sodipodi:guide
       inkscape:color="rgb(0,0,0)"
       inkscape:locked="false"
       inkscape:label=""
       id="guide869"
       orientation="-1,0"
       position="64,303" />
  </sodipodi:namedview>
  <metadata
     id="metadata4686">
    <rdf:RDF>
      <cc:Work
         rdf:about="">
        <dc:format>image/svg+xml</dc:format>
        <dc:type
           rdf:resource="http://purl.org/dc/dcmitype/StillImage" />
        <dc:title />
        <dc:creator>
          <cc:Agent>
            <dc:title>Weaver</dc:title>
          </cc:Agent>
        </dc:creator>
      </cc:Work>
    </rdf:RDF>
  </metadata>
  <g
     style="opacity:1"
     transform="translate(0,-536.70831)"
     id="layer1"
     inkscape:groupmode="layer"
     inkscape:label="Background" />
  <g
     transform="translate(0,-372)"
     inkscape:label="Base"
     id="layer4"
     inkscape:groupmode="layer"
     style="display:inline">
    <g
       style="opacity:1"
       transform="translate(-148.78108,-274.61841)"
       id="layer1-7"
       inkscape:label="Background" />
    <g
       transform="translate(-148.78108,-109.9101)"
       inkscape:label="Extra"
       id="layer3-0"
       style="opacity:1" />
    <g
       transform="translate(-148.78108,-109.9101)"
       inkscape:label="Text"
       id="layer2-9"
       style="opacity:1" />
    <circle
       style="opacity:1;fill:#c18e1c;fill-opacity:1;stroke:#000000;stroke-width:0.25;stroke-linecap:round;stroke-linejoin:round"
       id="circle2495"
       cx="-22.036755"
       cy="389.54895"
       r="9.0913725" />
    <circle
       r="9.0913725"
       cy="413.01968"
       cx="-22.036755"
       id="circle2544"
       style="opacity:1;fill:#3db217;fill-opacity:1;stroke:#000000;stroke-width:0.25;stroke-linecap:round;stroke-linejoin:round" />
    <circle
       style="opacity:1;fill:#6f6f6f;fill-opacity:1;stroke:#000000;stroke-width:0.25;stroke-linecap:round;stroke-linejoin:round"
       id="circle2546"
       cx="-22.036755"
       cy="436.49042"
       r="9.0913725" />
    <circle
       r="9.0913725"
       cy="459.96112"
       cx="-22.036755"
       id="circle2548"
       style="opacity:1;fill:#ba3420;fill-opacity:1;stroke:#000000;stroke-width:0.25;stroke-linecap:round;stroke-linejoin:round" />
    <circle
       style="opacity:1;vector-effect:none;fill:#0958b8;fill-opacity:1;stroke:#000000;stroke-width:0.025;stroke-linecap:round;stroke-linejoin:round;stroke-miterlimit:4;stroke-dasharray:none;stroke-dashoffset:0;stroke-opacity:1"
       id="circle2550"
       cx="-22.036755"
       cy="483.43185"
       r="9.0913725" />
    <path
       inkscape:connector-curvature="0"
       d="m -38.63846,389.3883 a 9.0913725,9.0913725 0 0 1 -9.091372,9.09138 9.0913725,9.0913725 0 0 1 -9.091373,-9.09138 9.0913725,9.0913725 0 0 1 9.091373,-9.09137 9.0913725,9.0913725 0 0 1 9.091372,9.09137"
       style="opacity:1;fill:none;fill-opacity:1;stroke:#000000;stroke-width:5;stroke-linecap:round;stroke-linejoin:round;stroke-miterlimit:4;stroke-dasharray:none"
       id="circle2495-7" />
    <path
       inkscape:connector-curvature="0"
       d="m -38.63846,389.3883 a 9.0913725,9.0913725 0 0 1 -9.091372,9.09138 9.0913725,9.0913725 0 0 1 -9.091373,-9.09138 9.0913725,9.0913725 0 0 1 9.091373,-9.09137 9.0913725,9.0913725 0 0 1 9.091372,9.09137"
       style="opacity:1;fill:none;fill-opacity:1;stroke:#000000;stroke-width:5;stroke-linecap:round;stroke-linejoin:round;stroke-miterlimit:4;stroke-dasharray:none"
       id="circle2495-7-0" />
    <path
       transform="translate(3.75,213.7141)"
       sodipodi:nodetypes="csc"
       inkscape:original-d="m 64,453.15418 c 38.30299,-2.21808 45.4945,-32.57559 41.18213,-59.71836 C 102.54265,376.82242 87.044928,364.67283 64,364.26767"
       inkscape:path-effect="#path-effect5086"
       inkscape:connector-curvature="0"
       id="path5084"
       d="m 64,453.15418 c 38.30299,-2.21808 45.4945,-32.57559 41.18213,-59.71836 C 102.54265,376.82242 87.044928,364.67283 64,364.26767 m 0,88.88651 C 25.69701,450.9361 18.5055,420.57859 22.81787,393.43582 25.45735,376.82242 40.955072,364.67283 64,364.26767"
       style="opacity:1;vector-effect:none;fill:#333333;fill-opacity:1;fill-rule:nonzero;stroke:#333333;stroke-width:1;stroke-linecap:round;stroke-linejoin:round;stroke-miterlimit:4;stroke-dasharray:none;stroke-dashoffset:0;stroke-opacity:1;paint-order:normal" />
    <path
       style="opacity:1;vector-effect:none;fill:#000000;fill-opacity:1;fill-rule:nonzero;stroke:#000000;stroke-width:2;stroke-linecap:round;stroke-linejoin:round;stroke-miterlimit:4;stroke-dasharray:none;stroke-dashoffset:0;stroke-opacity:1;paint-order:normal"
       d="m 64,403.33503 c 12.316812,-14.41567 29.327745,-11.70114 35.348503,4.59648 l -4.399682,22.44167 -14.141831,9.32817 1.038105,23.50397 16.655933,-8.65221 11.490482,-12.55115 C 118.05643,383.91674 97.611011,356.12557 64,353.26006 m 0,50.07497 C 51.683188,388.91936 34.672255,391.63389 28.651497,407.93151 l 4.399682,22.44167 14.141831,9.32817 -1.038105,23.50397 L 29.498972,454.55311 18.00849,442.00196 C 9.94357,383.91674 30.388989,356.12557 64,353.26006"
       id="path5060"
       inkscape:connector-curvature="0"
       inkscape:path-effect="#path-effect5062"
       inkscape:original-d="m 64,403.33503 c 12.316812,-14.41567 29.327745,-11.70114 35.348503,4.59648 l -4.399682,22.44167 -14.141831,9.32817 1.038105,23.50397 16.655933,-8.65221 11.490482,-12.55115 C 118.05643,383.91674 97.611011,356.12557 64,353.26006"
       sodipodi:nodetypes="cccccccc"
       transform="translate(0,28.814602)" />
    <path
       transform="translate(0,23.864855)"
       sodipodi:nodetypes="cc"
       inkscape:original-d="m 64,403.33503 c 12.069765,-17.00177 35.500201,-11.52701 39.32598,9.723"
       inkscape:path-effect="#path-effect5068;#path-effect5066"
       inkscape:connector-curvature="0"
       id="path5064"
       d="m 64,403.33503 c 3.206967,-3.82984 6.411327,-5.483 7.44643,-6.01313 1.119737,-0.57347 2.725361,-1.26525 3.645149,-1.62333 0.800666,-0.31171 2.140869,-0.79796 3.830835,-1.10186 1.660108,-0.29853 4.369195,-0.5543 7.596704,0.22731 3.230895,0.78243 5.563588,2.26097 6.941311,3.3029 1.400133,1.05888 2.408138,2.12266 3.00328,2.77967 0.681259,0.75209 1.850737,2.13482 2.625801,3.17941 0.718603,0.9685 2.93122,3.96824 4.23647,8.97203 -0.52799,-5.20515 -2.12617,-8.63958 -2.74836,-9.88101 -0.769338,-1.53504 -1.54604,-2.64537 -2.512117,-3.71743 -0.663104,-0.73585 -1.787649,-1.86189 -3.367721,-3.00625 -1.538723,-1.11442 -4.147468,-2.71089 -7.70793,-3.57313 -3.558738,-0.86183 -6.570229,-0.62734 -8.413067,-0.33593 -1.894009,0.29951 -3.371198,0.79073 -4.271132,1.14384 -1.311018,0.51441 -2.470277,1.14959 -3.795073,2.16242 -1.075432,0.82218 -3.920203,3.1393 -6.51058,7.48449 z m 0,0 c -3.206967,-3.82984 -6.411327,-5.483 -7.44643,-6.01313 -1.119737,-0.57347 -2.725361,-1.26525 -3.645149,-1.62333 -0.800666,-0.31171 -2.140869,-0.79796 -3.830835,-1.10186 -1.660108,-0.29853 -4.369195,-0.5543 -7.596704,0.22731 -3.230895,0.78243 -5.563588,2.26097 -6.941311,3.3029 -1.400133,1.05888 -2.408138,2.12266 -3.00328,2.77967 -0.681259,0.75209 -1.850737,2.13482 -2.625801,3.17941 -0.718603,0.9685 -2.931221,3.96824 -4.23647,8.97203 0.527992,-5.20515 2.126168,-8.63958 2.748358,-9.88101 0.76934,-1.53504 1.546042,-2.64537 2.512119,-3.71743 0.663104,-0.73585 1.787649,-1.86189 3.367721,-3.00625 1.538723,-1.11442 4.147468,-2.71089 7.70793,-3.57313 3.558738,-0.86183 6.570229,-0.62734 8.413067,-0.33593 1.894009,0.29951 3.371198,0.79073 4.271132,1.14384 1.311018,0.51441 2.470277,1.14959 3.795073,2.16242 1.075432,0.82218 3.920203,3.1393 6.51058,7.48449 z"
       style="opacity:1;vector-effect:none;fill:#333333;fill-opacity:1;fill-rule:nonzero;stroke:none;stroke-width:2;stroke-linecap:round;stroke-linejoin:round;stroke-miterlimit:4;stroke-dasharray:none;stroke-dashoffset:0;stroke-opacity:1;paint-order:normal" />
    <path
       style="opacity:1;vector-effect:none;fill:#333333;fill-opacity:1;fill-rule:nonzero;stroke:none;stroke-width:2;stroke-linecap:round;stroke-linejoin:round;stroke-miterlimit:4;stroke-dasharray:none;stroke-dashoffset:0;stroke-opacity:1;paint-order:normal"
       d="m 95.643029,441.07686 c 0,0 -2.098407,1.53894 -8.93333,5.12793 -0.30074,0.15792 -0.655598,0.34467 -1.054805,0.55506 -0.02182,0.0115 -0.04407,0.0225 -0.0677,0.0295 -0.02363,0.007 -0.04822,0.0102 -0.07274,0.0129 -0.246444,0.0267 -0.529512,0.021 -0.803641,-0.0781 -0.234381,-0.0848 -0.440047,-0.23004 -0.604689,-0.43968 -0.151722,-0.1932 -0.255609,-0.42428 -0.324919,-0.67576 -0.06977,-0.25314 -0.105186,-0.52943 -0.118605,-0.81193 -0.141311,-2.68582 -0.266627,-5.08495 -0.336755,-6.4912 -0.06257,-1.25469 -0.152704,-3.31163 -0.252792,-5.65825 -0.03773,-0.73287 0.15188,-1.53539 0.509906,-2.24971 0.405717,-0.80948 0.950461,-1.36366 1.467881,-1.67626 0.702638,-0.43351 1.421604,-0.88784 1.988624,-1.25001 1.716734,-1.09654 3.629335,-2.33988 5.078633,-3.28441 2.615736,-1.70472 4.058752,-2.65295 4.069046,-2.63681 0.005,0.008 0.0099,0.0159 0.01233,0.0249 0.0024,0.009 0.0022,0.0187 -0.001,0.0275 -0.0032,0.009 -0.0094,0.0162 -0.01688,0.0218 -0.0075,0.006 -0.01622,0.009 -0.02508,0.012 -0.0089,0.003 -0.01794,0.005 -0.02674,0.008 -0.0088,0.003 -0.01738,0.007 -0.02483,0.0126 -0.0074,0.006 -0.01364,0.0128 -0.01808,0.021 -0.0044,0.008 -0.0071,0.0172 -0.0095,0.0262 2.685335,-9.97335 3.801492,-13.55164 3.801492,-13.55164 0,0 -0.770203,3.66835 -3.288472,13.68518 -0.0023,0.009 -0.0048,0.0181 -0.0091,0.0264 -0.0043,0.008 -0.01048,0.0156 -0.01791,0.0212 -0.0074,0.006 -0.01602,0.01 -0.02484,0.0126 -0.0088,0.003 -0.01793,0.005 -0.02682,0.008 -0.0089,0.003 -0.01767,0.006 -0.02522,0.0118 -0.0076,0.005 -0.01377,0.0129 -0.01708,0.0217 -0.0033,0.009 -0.0035,0.0185 -0.0011,0.0275 0.0024,0.009 0.0073,0.0171 0.01232,0.025 0.0085,0.0134 -1.420655,0.98418 -4.029585,2.70328 -1.461748,0.96319 -3.340651,2.19092 -5.07707,3.30003 -0.561664,0.35875 -1.293307,0.82576 -1.989082,1.26286 -0.395532,0.25581 -0.837431,0.73273 -1.157778,1.44683 -0.284558,0.63432 -0.404869,1.31195 -0.349342,1.8942 0.134378,2.35329 0.249336,4.40899 0.311906,5.66368 0.07013,1.40625 0.184122,3.80593 0.311002,6.49745 0.0067,0.24751 0.03115,0.46041 0.07522,0.63925 0.04361,0.17696 0.102572,0.30483 0.168636,0.39552 0.06762,0.0928 0.146824,0.15281 0.24168,0.19058 0.104079,0.0414 0.231868,0.0577 0.379237,0.0502 l 0,0 c 0.370863,-0.19406 0.701755,-0.36744 0.984505,-0.51591 6.834923,-3.589 9.293131,-4.44273 9.293131,-4.44273 z m -64.169942,0 c 0,0 2.098407,1.53894 8.93333,5.12793 0.30074,0.15792 0.655598,0.34467 1.054805,0.55506 0.02182,0.0115 0.04407,0.0225 0.0677,0.0295 0.02363,0.007 0.04822,0.0102 0.07274,0.0129 0.246444,0.0267 0.529512,0.021 0.803641,-0.0781 0.234381,-0.0848 0.440047,-0.23004 0.604689,-0.43968 0.151722,-0.1932 0.255609,-0.42428 0.324919,-0.67576 0.06977,-0.25314 0.105186,-0.52943 0.118605,-0.81193 0.141311,-2.68582 0.266627,-5.08495 0.336755,-6.4912 0.06257,-1.25469 0.152704,-3.31163 0.252792,-5.65825 0.03773,-0.73287 -0.15188,-1.53539 -0.509906,-2.24971 -0.405717,-0.80948 -0.950461,-1.36366 -1.467881,-1.67626 -0.702638,-0.43351 -1.421604,-0.88784 -1.988624,-1.25001 -1.716734,-1.09654 -3.629335,-2.33988 -5.078633,-3.28441 -2.615736,-1.70472 -4.058752,-2.65295 -4.069046,-2.63681 -0.005,0.008 -0.0099,0.0159 -0.01233,0.0249 -0.0024,0.009 -0.0022,0.0187 0.001,0.0275 0.0032,0.009 0.0094,0.0162 0.01688,0.0218 0.0075,0.006 0.01622,0.009 0.02508,0.012 0.0089,0.003 0.01794,0.005 0.02674,0.008 0.0088,0.003 0.01738,0.007 0.02483,0.0126 0.0074,0.006 0.01364,0.0128 0.01808,0.021 0.0044,0.008 0.0071,0.0172 0.0095,0.0262 -2.685335,-9.97335 -3.801492,-13.55164 -3.801492,-13.55164 0,0 0.770203,3.66835 3.288472,13.68518 0.0023,0.009 0.0048,0.0181 0.0091,0.0264 0.0043,0.008 0.01048,0.0156 0.01791,0.0212 0.0074,0.006 0.01601,0.01 0.02484,0.0126 0.0088,0.003 0.01793,0.005 0.02682,0.008 0.0089,0.003 0.01767,0.006 0.02522,0.0118 0.0076,0.005 0.01377,0.0129 0.01708,0.0217 0.0033,0.009 0.0035,0.0185 0.0011,0.0275 -0.0024,0.009 -0.0073,0.0171 -0.01232,0.025 -0.0085,0.0134 1.420655,0.98418 4.029585,2.70328 1.461748,0.96319 3.340651,2.19092 5.07707,3.30003 0.561664,0.35875 1.293307,0.82576 1.989082,1.26286 0.395532,0.25581 0.837431,0.73273 1.157778,1.44683 0.284558,0.63432 0.404869,1.31195 0.349342,1.8942 -0.134378,2.35329 -0.249336,4.40899 -0.311906,5.66368 -0.07013,1.40625 -0.184122,3.80593 -0.311002,6.49745 -0.0067,0.24751 -0.03115,0.46041 -0.07522,0.63925 -0.04361,0.17696 -0.102572,0.30483 -0.168636,0.39552 -0.06762,0.0928 -0.146824,0.15281 -0.24168,0.19058 -0.104079,0.0414 -0.231868,0.0577 -0.379237,0.0502 l 0,0 c -0.370863,-0.19406 -0.701755,-0.36744 -0.984505,-0.51591 -6.834923,-3.589 -9.293131,-4.44273 -9.293131,-4.44273 z"
       id="path5076"
       inkscape:connector-curvature="0"
       inkscape:path-effect="#path-effect5082;#path-effect5080"
       inkscape:original-d="m 95.643029,441.07686 -10.168521,5.33946 c -0.98167,0.10161 -1.351952,-0.56102 -1.392788,-1.63546 l -0.606085,-12.1536 c -0.09612,-1.35965 0.660379,-2.96413 1.742202,-3.63767 4.023186,-2.50481 11.11602,-7.2187 11.11602,-7.2187 l 3.544982,-13.61841"
       sodipodi:nodetypes="ccccscc"
       transform="translate(0.44194174,40.375292)" />
  </g>
  <g
     transform="translate(0,-372)"
     inkscape:label="Detail"
     id="layer5"
     inkscape:groupmode="layer"
     style="display:inline" />
  <g
     transform="translate(0,-372)"
     inkscape:label="Extra"
     id="layer3"
     inkscape:groupmode="layer"
     style="display:none" />
  <g
     transform="translate(0,-372)"
     inkscape:label="Text"
     id="layer2"
     inkscape:groupmode="layer" />
</svg>
