<?xml version="1.0" encoding="UTF-8" standalone="no"?>
<svg
   xmlns:osb="http://www.openswatchbook.org/uri/2009/osb"
   xmlns:dc="http://purl.org/dc/elements/1.1/"
   xmlns:cc="http://creativecommons.org/ns#"
   xmlns:rdf="http://www.w3.org/1999/02/22-rdf-syntax-ns#"
   xmlns:svg="http://www.w3.org/2000/svg"
   xmlns="http://www.w3.org/2000/svg"
   xmlns:xlink="http://www.w3.org/1999/xlink"
   xmlns:sodipodi="http://sodipodi.sourceforge.net/DTD/sodipodi-0.dtd"
   xmlns:inkscape="http://www.inkscape.org/namespaces/inkscape"
   width="128"
   height="128"
   viewBox="0 0 128 128"
   version="1.1"
   id="svg4689"
   inkscape:version="0.92.4 (5da689c313, 2019-01-14)"
   sodipodi:docname="wpn-heavy.svg"
   inkscape:export-filename="wpn-heavy.png"
   inkscape:export-xdpi="192"
   inkscape:export-ydpi="192">
  <defs
     id="defs4683">
    <inkscape:path-effect
       effect="bool_op"
       id="path-effect1940"
       hide-linked="true"
       operation="diff"
       operand-path="#circle1925" />
    <inkscape:path-effect
       effect="mirror_symmetry"
       start_point="133.86371,133.86371"
       end_point="124.17229,124.17229"
       center_point="129.018,129.018"
       id="path-effect1919"
       is_visible="true"
       mode="free"
       discard_orig_path="false"
       fuse_paths="false"
       oposite_fuse="false"
       split_items="false" />
    <marker
       inkscape:isstock="true"
       style="overflow:visible"
       id="marker1331"
       refX="0.0"
       refY="0.0"
       orient="auto"
       inkscape:stockid="Arrow1Lstart">
      <path
         transform="scale(0.8) translate(12.5,0)"
         style="fill-rule:evenodd;stroke:#030300;stroke-width:1pt;stroke-opacity:1;fill:#ffffff;fill-opacity:1"
         d="M 0.0,0.0 L 5.0,-5.0 L -12.5,0.0 L 5.0,5.0 L 0.0,0.0 z "
         id="path1329" />
    </marker>
    <marker
       inkscape:isstock="true"
       style="overflow:visible"
       id="marker1327"
       refX="0.0"
       refY="0.0"
       orient="auto"
       inkscape:stockid="Arrow1Lstart">
      <path
         transform="scale(0.8) translate(12.5,0)"
         style="fill-rule:evenodd;stroke:#000000;stroke-width:1pt;stroke-opacity:1;fill:#ffffff;fill-opacity:1"
         d="M 0.0,0.0 L 5.0,-5.0 L -12.5,0.0 L 5.0,5.0 L 0.0,0.0 z "
         id="path1325" />
    </marker>
    <marker
       inkscape:isstock="true"
       style="overflow:visible"
       id="marker1323"
       refX="0.0"
       refY="0.0"
       orient="auto"
       inkscape:stockid="Arrow1Lstart">
      <path
         transform="scale(0.8) translate(12.5,0)"
         style="fill-rule:evenodd;stroke:#000000;stroke-width:1pt;stroke-opacity:1;fill:#ffffff;fill-opacity:1"
         d="M 0.0,0.0 L 5.0,-5.0 L -12.5,0.0 L 5.0,5.0 L 0.0,0.0 z "
         id="path1321" />
    </marker>
    <marker
       inkscape:isstock="true"
       style="overflow:visible"
       id="marker1319"
       refX="0.0"
       refY="0.0"
       orient="auto"
       inkscape:stockid="Arrow1Lstart">
      <path
         transform="scale(0.8) translate(12.5,0)"
         style="fill-rule:evenodd;stroke:#000000;stroke-width:1pt;stroke-opacity:1;fill:#ffffff;fill-opacity:1"
         d="M 0.0,0.0 L 5.0,-5.0 L -12.5,0.0 L 5.0,5.0 L 0.0,0.0 z "
         id="path1317" />
    </marker>
    <marker
       inkscape:isstock="true"
       style="overflow:visible;"
       id="marker1311"
       refX="0.0"
       refY="0.0"
       orient="auto"
       inkscape:stockid="Arrow1Lend">
      <path
         transform="scale(0.8) rotate(180) translate(12.5,0)"
         style="fill-rule:evenodd;stroke:#030300;stroke-width:1pt;stroke-opacity:1;fill:#ffffff;fill-opacity:1"
         d="M 0.0,0.0 L 5.0,-5.0 L -12.5,0.0 L 5.0,5.0 L 0.0,0.0 z "
         id="path1309" />
    </marker>
    <marker
       inkscape:isstock="true"
       style="overflow:visible;"
       id="marker1307"
       refX="0.0"
       refY="0.0"
       orient="auto"
       inkscape:stockid="Arrow1Lend">
      <path
         transform="scale(0.8) rotate(180) translate(12.5,0)"
         style="fill-rule:evenodd;stroke:#000000;stroke-width:1pt;stroke-opacity:1;fill:#ffffff;fill-opacity:1"
         d="M 0.0,0.0 L 5.0,-5.0 L -12.5,0.0 L 5.0,5.0 L 0.0,0.0 z "
         id="path1305" />
    </marker>
    <marker
       inkscape:isstock="true"
       style="overflow:visible;"
       id="marker1303"
       refX="0.0"
       refY="0.0"
       orient="auto"
       inkscape:stockid="Arrow1Lend">
      <path
         transform="scale(0.8) rotate(180) translate(12.5,0)"
         style="fill-rule:evenodd;stroke:#000000;stroke-width:1pt;stroke-opacity:1;fill:#ffffff;fill-opacity:1"
         d="M 0.0,0.0 L 5.0,-5.0 L -12.5,0.0 L 5.0,5.0 L 0.0,0.0 z "
         id="path1301" />
    </marker>
    <marker
       inkscape:isstock="true"
       style="overflow:visible;"
       id="marker1299"
       refX="0.0"
       refY="0.0"
       orient="auto"
       inkscape:stockid="Arrow1Lend">
      <path
         transform="scale(0.8) rotate(180) translate(12.5,0)"
         style="fill-rule:evenodd;stroke:#000000;stroke-width:1pt;stroke-opacity:1;fill:#ffffff;fill-opacity:1"
         d="M 0.0,0.0 L 5.0,-5.0 L -12.5,0.0 L 5.0,5.0 L 0.0,0.0 z "
         id="path1297" />
    </marker>
    <marker
       inkscape:stockid="Arrow1Lstart"
       orient="auto"
       refY="0.0"
       refX="0.0"
       id="Arrow1Lstart"
       style="overflow:visible"
       inkscape:isstock="true">
      <path
         id="path983"
         d="M 0.0,0.0 L 5.0,-5.0 L -12.5,0.0 L 5.0,5.0 L 0.0,0.0 z "
         style="fill-rule:evenodd;stroke:#000000;stroke-width:1.0pt"
         transform="scale(0.8) translate(12.5,0)" />
    </marker>
    <linearGradient
       id="linearGradient979"
       osb:paint="solid">
      <stop
         style="stop-color:#030300;stop-opacity:1;"
         offset="0"
         id="stop977" />
    </linearGradient>
    <linearGradient
       id="linearGradient973"
       osb:paint="solid">
      <stop
         style="stop-color:#000000;stop-opacity:1;"
         offset="0"
         id="stop971" />
    </linearGradient>
    <linearGradient
       id="linearGradient967"
       osb:paint="solid">
      <stop
         style="stop-color:#000000;stop-opacity:1;"
         offset="0"
         id="stop965" />
    </linearGradient>
    <linearGradient
       id="linearGradient961"
       osb:paint="solid">
      <stop
         style="stop-color:#000000;stop-opacity:1;"
         offset="0"
         id="stop959" />
    </linearGradient>
    <linearGradient
       inkscape:collect="always"
       id="linearGradient7175">
      <stop
         style="stop-color:#00e00e;stop-opacity:1;"
         offset="0"
         id="stop7171" />
      <stop
         style="stop-color:#00e00e;stop-opacity:0;"
         offset="1"
         id="stop7173" />
    </linearGradient>
    <inkscape:path-effect
       oposite_fuse="false"
       fuse_paths="false"
       discard_orig_path="false"
       mode="free"
       is_visible="true"
       id="path-effect7025"
       center_point="74.364908,446.36491"
       end_point="105.57005,477.57005"
       start_point="43.159767,415.15977"
       effect="mirror_symmetry" />
    <inkscape:path-effect
       oposite_fuse="false"
       fuse_paths="false"
       discard_orig_path="false"
       mode="free"
       is_visible="true"
       id="path-effect7016"
       center_point="76.223231,448.22323"
       end_point="85.010851,457.01085"
       start_point="67.435611,439.43561"
       effect="mirror_symmetry" />
    <inkscape:path-effect
       effect="mirror_symmetry"
       start_point="67.435611,439.43561"
       end_point="85.010851,457.01085"
       center_point="76.223231,448.22323"
       id="path-effect6965"
       is_visible="true"
       mode="free"
       discard_orig_path="false"
       fuse_paths="false"
       oposite_fuse="false" />
    <inkscape:path-effect
       effect="powerstroke"
       id="path-effect6958"
       is_visible="true"
       offset_points="0.2,2 | 1,2 | 1.8,2"
       sort_points="true"
       interpolator_type="Linear"
       interpolator_beta="0.2"
       start_linecap_type="butt"
       linejoin_type="extrp_arc"
       miter_limit="4"
       end_linecap_type="butt" />
    <inkscape:path-effect
       effect="mirror_symmetry"
       start_point="50.098919,422.09892"
       end_point="67.061297,439.0613"
       center_point="58.580108,430.58011"
       id="path-effect6956"
       is_visible="true"
       mode="free"
       discard_orig_path="false"
       fuse_paths="false"
       oposite_fuse="false" />
    <inkscape:path-effect
       oposite_fuse="false"
       fuse_paths="false"
       discard_orig_path="false"
       mode="free"
       is_visible="true"
       id="path-effect6944"
       center_point="74.364908,446.36491"
       end_point="105.57005,477.57005"
       start_point="43.159767,415.15977"
       effect="mirror_symmetry" />
    <inkscape:path-effect
       effect="fill_between_strokes"
       id="path-effect6599"
       is_visible="true"
       linkedpath=""
       secondpath=""
       reversesecond="false" />
    <inkscape:path-effect
       oposite_fuse="false"
       fuse_paths="false"
       discard_orig_path="false"
       mode="free"
       is_visible="true"
       id="path-effect6594"
       center_point="74.364908,446.36491"
       end_point="105.57005,477.57005"
       start_point="43.159767,415.15977"
       effect="mirror_symmetry" />
    <inkscape:path-effect
       effect="mirror_symmetry"
       start_point="43.159767,415.15977"
       end_point="105.57005,477.57005"
       center_point="74.364908,446.36491"
       id="path-effect6014"
       is_visible="true"
       mode="free"
       discard_orig_path="false"
       fuse_paths="false"
       oposite_fuse="false" />
    <linearGradient
       inkscape:collect="always"
       id="linearGradient5404">
      <stop
         style="stop-color:#4aff58;stop-opacity:1"
         offset="0"
         id="stop5400" />
      <stop
         id="stop5432"
         offset="0.5"
         style="stop-color:#192d11;stop-opacity:1" />
      <stop
         style="stop-color:#4aff58;stop-opacity:1"
         offset="1"
         id="stop5402" />
    </linearGradient>
    <inkscape:path-effect
       effect="mirror_symmetry"
       start_point="64,16.251963"
       end_point="64,111.74804"
       center_point="64,64.000001"
       id="path-effect5398"
       is_visible="true"
       mode="free"
       discard_orig_path="false"
       fuse_paths="false"
       oposite_fuse="false" />
    <inkscape:path-effect
       effect="mirror_symmetry"
       start_point="64,388"
       end_point="64,484"
       center_point="64,436"
       id="path-effect5386"
       is_visible="true"
       mode="free"
       discard_orig_path="false"
       fuse_paths="false"
       oposite_fuse="false" />
    <inkscape:path-effect
       effect="mirror_symmetry"
       start_point="64,388"
       end_point="64,484"
       center_point="64,436"
       id="path-effect5128"
       is_visible="true"
       mode="free"
       discard_orig_path="false"
       fuse_paths="false"
       oposite_fuse="false" />
    <inkscape:path-effect
       effect="mirror_symmetry"
       start_point="64,388"
       end_point="64,484"
       center_point="64,436"
       id="path-effect5128-1"
       is_visible="true"
       mode="free"
       discard_orig_path="false"
       fuse_paths="false"
       oposite_fuse="false" />
    <linearGradient
       inkscape:collect="always"
       xlink:href="#linearGradient5404"
       id="linearGradient5406"
       x1="94.875"
       y1="74.875"
       x2="28.125"
       y2="41.25"
       gradientUnits="userSpaceOnUse"
       spreadMethod="pad"
       gradientTransform="translate(-123.78899,355.86992)" />
    <clipPath
       clipPathUnits="userSpaceOnUse"
       id="clipPath6907">
      <path
         style="opacity:1;vector-effect:none;fill:#f9f9f9;fill-opacity:1;fill-rule:nonzero;stroke:none;stroke-width:3;stroke-linecap:butt;stroke-linejoin:round;stroke-miterlimit:4;stroke-dasharray:none;stroke-dashoffset:0;stroke-opacity:1"
         d="M 133.31869,377.31869 H 5.318692 l 0,128 H 133.31869 Z m -22.91211,111.98438 c -0.0116,0.3208 -0.18857,0.59364 -0.39062,0.83593 -0.26941,0.32305 -0.65523,0.63603 -1.1836,0.95703 -3.5104,2.13273 -7.12247,3.46568 -10.867184,3.10157 -3.7447,-0.36412 -7.549369,-2.43446 -11.412109,-6.87696 -6.11603,-7.03398 -5.523619,-19.33038 2.150391,-26.46875 a 0.59711818,0.59711818 0 0 1 0.02344,-0.0195 c 5.64686,-4.72404 3.493766,-15.76013 -4.714844,-17.46094 a 0.59711818,0.59711818 0 0 1 -0.466797,-0.68945 l 0.140626,-0.78125 a 0.59711818,0.59711818 0 0 1 0.708984,-0.47851 c 5.70144,1.18133 9.486961,4.94579 10.769531,9.31054 1.281789,4.3621 0.04823,9.32635 -4.089844,12.79297 l -0.0078,0.006 c -5.450646,4.7295 -5.361903,14.04437 -0.425781,20.36133 4.15309,5.31489 11.065087,7.28937 17.294917,4.74219 0.52413,-0.21431 0.96451,-0.32427 1.36524,-0.32227 0.20037,0.001 0.39629,0.0285 0.5918,0.125 0.19551,0.0965 0.38884,0.29119 0.46484,0.52734 0.038,0.11802 0.0527,0.23096 0.0488,0.3379 z"
         id="path6909"
         inkscape:connector-curvature="0" />
    </clipPath>
    <clipPath
       clipPathUnits="userSpaceOnUse"
       id="clipPath6907-9">
      <path
         style="opacity:1;vector-effect:none;fill:#f9f9f9;fill-opacity:1;fill-rule:nonzero;stroke:none;stroke-width:3;stroke-linecap:butt;stroke-linejoin:round;stroke-miterlimit:4;stroke-dasharray:none;stroke-dashoffset:0;stroke-opacity:1"
         d="M 133.31869,377.31869 H 5.318692 v 128 H 133.31869 Z m -22.91211,111.98438 c -0.0116,0.3208 -0.18857,0.59364 -0.39062,0.83593 -0.26941,0.32305 -0.65523,0.63603 -1.1836,0.95703 -3.5104,2.13273 -7.12247,3.46568 -10.867184,3.10157 -3.7447,-0.36412 -7.549369,-2.43446 -11.412109,-6.87696 -6.11603,-7.03398 -5.523619,-19.33038 2.150391,-26.46875 a 0.59711818,0.59711818 0 0 1 0.02344,-0.0195 c 5.64686,-4.72404 3.493766,-15.76013 -4.714844,-17.46094 A 0.59711818,0.59711818 0 0 1 83.545257,442.682 l 0.140626,-0.78125 a 0.59711818,0.59711818 0 0 1 0.708984,-0.47851 c 5.70144,1.18133 9.486961,4.94579 10.769531,9.31054 1.281789,4.3621 0.04823,9.32635 -4.089844,12.79297 l -0.0078,0.006 c -5.450646,4.7295 -5.361903,14.04437 -0.425781,20.36133 4.15309,5.31489 11.065087,7.28937 17.294917,4.74219 0.52413,-0.21431 0.96451,-0.32427 1.36524,-0.32227 0.20037,0.001 0.39629,0.0285 0.5918,0.125 0.19551,0.0965 0.38884,0.29119 0.46484,0.52734 0.038,0.11802 0.0527,0.23096 0.0488,0.3379 z"
         id="path6909-4"
         inkscape:connector-curvature="0" />
    </clipPath>
    <inkscape:path-effect
       effect="mirror_symmetry"
       start_point="43.159767,415.15977"
       end_point="105.57005,477.57005"
       center_point="74.364908,446.36491"
       id="path-effect6014-9"
       is_visible="true"
       mode="free"
       discard_orig_path="false"
       fuse_paths="false"
       oposite_fuse="false" />
    <inkscape:path-effect
       oposite_fuse="false"
       fuse_paths="false"
       discard_orig_path="false"
       mode="free"
       is_visible="true"
       id="path-effect6944-4"
       center_point="74.364908,446.36491"
       end_point="105.57005,477.57005"
       start_point="43.159767,415.15977"
       effect="mirror_symmetry" />
    <clipPath
       clipPathUnits="userSpaceOnUse"
       id="clipPath7054">
      <path
         style="opacity:1;vector-effect:none;fill:#e000be;fill-opacity:0.47979802;fill-rule:nonzero;stroke:none;stroke-width:0.25;stroke-linecap:round;stroke-linejoin:round;stroke-miterlimit:4;stroke-dasharray:none;stroke-dashoffset:0;stroke-opacity:1"
         d="m 27.670023,398.75986 v 61.06836 l 49.833984,-50.3125 0.550782,-1.79492 a 0.59226486,0.59226486 0 0 1 0.158203,-0.25586 l 9.160156,-8.70508 z m 67.42188,0 -12.466802,13.11719 a 0.59226486,0.59226486 0 0 1 -0.255859,0.1582 l -1.794922,0.55079 -52.904297,52.40234 v 5.38867 h 72.01562 V 398.75986 Z M 74.375101,430.3419 a 0.77381904,0.77381904 0 0 1 0.04102,0 c 3.137155,0.0826 5.916338,1.55852 7.324218,3.89257 1.407882,2.33405 1.306533,5.51701 -1.0625,8.55469 -2.194399,2.81376 -3.261248,3.60678 -4.714843,5.14258 a 0.77381904,0.77381904 0 0 1 -0.03125,0.0312 c -1.535797,1.4536 -2.32882,2.52044 -5.142578,4.71484 -3.037677,2.36903 -6.220639,2.47038 -8.554688,1.0625 -2.334048,-1.40788 -3.809948,-4.18706 -3.892578,-7.32422 a 0.77381904,0.77381904 0 0 1 0,-0.041 c 0.01036,-0.37516 0.105751,-0.7276 0.318359,-1.01757 0.212609,-0.28997 0.564952,-0.50435 0.941407,-0.52735 0.752909,-0.046 1.31927,0.59279 1.484375,1.33008 a 0.77381904,0.77381904 0 0 1 0.01367,0.0957 c 0.15327,1.57202 1.122605,3.11773 2.4375,3.81836 1.314892,0.70062 2.967327,0.70939 4.945312,-0.98242 1.083021,-0.92634 2.763287,-2.70704 4.369141,-4.19727 1.499219,-1.62047 3.304614,-3.31823 4.240234,-4.41211 1.69181,-1.97799 1.683043,-3.63042 0.982422,-4.94531 -0.700622,-1.31489 -2.246337,-2.28423 -3.818359,-2.4375 a 0.77381904,0.77381904 0 0 1 -0.0957,-0.0137 c -0.737293,-0.16511 -1.376058,-0.73146 -1.330078,-1.48437 0.02299,-0.37645 0.237374,-0.7288 0.527344,-0.94141 0.28997,-0.21261 0.642421,-0.30796 1.017578,-0.31836 z"
         id="path7056"
         inkscape:connector-curvature="0" />
    </clipPath>
    <linearGradient
       inkscape:collect="always"
       xlink:href="#linearGradient7175"
       id="linearGradient7177"
       x1="114.13281"
       y1="385.86719"
       x2="11.228517"
       y2="488.77148"
       gradientUnits="userSpaceOnUse" />
    <inkscape:path-effect
       effect="mirror_symmetry"
       start_point="67.435611,439.43561"
       end_point="85.010851,457.01085"
       center_point="76.223231,448.22323"
       id="path-effect6965-8"
       is_visible="true"
       mode="free"
       discard_orig_path="false"
       fuse_paths="false"
       oposite_fuse="false" />
    <inkscape:path-effect
       effect="mirror_symmetry"
       start_point="67.435611,439.43561"
       end_point="85.010851,457.01085"
       center_point="76.223231,448.22323"
       id="path-effect6965-0"
       is_visible="true"
       mode="free"
       discard_orig_path="false"
       fuse_paths="false"
       oposite_fuse="false" />
    <linearGradient
       inkscape:collect="always"
       xlink:href="#linearGradient979"
       id="linearGradient981"
       x1="20"
       y1="51"
       x2="96"
       y2="51"
       gradientUnits="userSpaceOnUse"
       gradientTransform="matrix(1.0778933,0,0,1.0778702,-5.513952,-4.9672219)" />
  </defs>
  <sodipodi:namedview
     id="base"
     pagecolor="#d2d2d2"
     bordercolor="#666666"
     borderopacity="1.0"
     inkscape:pageopacity="0"
     inkscape:pageshadow="2"
     inkscape:zoom="2.8284271"
     inkscape:cx="16.829697"
     inkscape:cy="42.762144"
     inkscape:document-units="px"
     inkscape:current-layer="svg4689"
     showgrid="false"
     units="px"
     showborder="true"
     inkscape:pagecheckerboard="false"
     inkscape:snap-path-clip="false"
     inkscape:snap-path-mask="false"
     showguides="true"
     inkscape:guide-bbox="true"
     inkscape:window-width="1508"
     inkscape:window-height="1126"
     inkscape:window-x="389"
     inkscape:window-y="26"
     inkscape:window-maximized="0"
     inkscape:showpageshadow="false"
     inkscape:lockguides="false"
     inkscape:snap-grids="true"
     inkscape:snap-global="true"
     inkscape:document-rotation="0"
     inkscape:snap-bbox="true"
     inkscape:snap-to-guides="true"
     inkscape:snap-bbox-midpoints="true">
    <inkscape:grid
       type="xygrid"
       id="grid5234"
       spacingy="2"
       spacingx="2"
       empspacing="32" />
    <sodipodi:guide
       position="0,128"
       orientation="0,128"
       inkscape:locked="false"
       id="guide891" />
    <sodipodi:guide
       position="128,128"
       orientation="128,0"
       inkscape:locked="false"
       id="guide893" />
    <sodipodi:guide
       position="128,0"
       orientation="0,-128"
       inkscape:locked="false"
       id="guide895" />
    <sodipodi:guide
       position="0,0"
       orientation="-128,0"
       inkscape:locked="false"
       id="guide897" />
    <sodipodi:guide
       position="64,32"
       orientation="1,0"
       id="guide899"
       inkscape:locked="false" />
    <sodipodi:guide
       position="22,106"
       orientation="0.70710678,0.70710678"
       id="guide903"
       inkscape:label=""
       inkscape:locked="false"
       inkscape:color="rgb(0,0,255)" />
    <sodipodi:guide
       position="53.571428,60.410715"
       orientation="0.70710678,0.70710678"
       id="guide905"
       inkscape:locked="false" />
    <sodipodi:guide
       position="55.140043,62.991531"
       orientation="0.70710678,0.70710678"
       id="guide907"
       inkscape:locked="false" />
    <sodipodi:guide
       position="95.132763,42.867237"
       orientation="0.70710678,0.70710678"
       id="guide911"
       inkscape:locked="false" />
    <sodipodi:guide
       position="56,64"
       orientation="0.70710678,0.70710678"
       id="guide913"
       inkscape:locked="false" />
    <sodipodi:guide
       position="36,108"
       orientation="0.70710678,0.70710678"
       id="guide917"
       inkscape:locked="false" />
    <sodipodi:guide
       position="60.84194,50.795265"
       orientation="0.70710678,0.70710678"
       id="guide919"
       inkscape:label=""
       inkscape:locked="false"
       inkscape:color="rgb(0,0,255)" />
    <sodipodi:guide
       position="96,42"
       orientation="0.70710678,0.70710678"
       id="guide921"
       inkscape:locked="false" />
    <sodipodi:guide
       position="88,32"
       orientation="0.70710678,-0.70710678"
       id="guide949"
       inkscape:label=""
       inkscape:locked="false"
       inkscape:color="rgb(0,0,255)" />
    <sodipodi:guide
       position="84.882497,17.375532"
       orientation="0.70710678,-0.70710678"
       id="guide951"
       inkscape:locked="false" />
    <sodipodi:guide
       position="99.902744,30.874277"
       orientation="1.575201,1.575196"
       id="guide1337"
       inkscape:locked="false" />
    <sodipodi:guide
       position="99.991112,30.785906"
       orientation="-2.683676,2.683679"
       id="guide1339"
       inkscape:locked="false" />
  </sodipodi:namedview>
  <metadata
     id="metadata4686">
    <rdf:RDF>
      <cc:Work
         rdf:about="">
        <dc:format>image/svg+xml</dc:format>
        <dc:type
           rdf:resource="http://purl.org/dc/dcmitype/StillImage" />
        <dc:title />
        <dc:creator>
          <cc:Agent>
            <dc:title>Weaver</dc:title>
          </cc:Agent>
        </dc:creator>
      </cc:Work>
    </rdf:RDF>
  </metadata>
  <g
     inkscape:label="Background"
     inkscape:groupmode="layer"
     id="layer1"
     transform="translate(0,-536.70831)"
     style="opacity:1" />
  <g
     inkscape:groupmode="layer"
     id="layer4"
     inkscape:label="Base"
     transform="translate(0,-372)" />
  <g
     inkscape:groupmode="layer"
     id="layer5"
     inkscape:label="Detail"
     transform="translate(0,-372)" />
  <g
     inkscape:groupmode="layer"
     id="layer3"
     inkscape:label="Extra"
     transform="translate(0,-372)"
     style="display:none" />
  <g
     inkscape:groupmode="layer"
     id="layer2"
     inkscape:label="Text"
     transform="translate(0,-372)" />
  <g
     id="g1014">
    <path
       inkscape:original-d="M 20,6 V 34 L 49.982143,64 H 56 L 88,96 96,88 34,26 v -6 z"
       sodipodi:nodetypes="ccccccccc"
       inkscape:connector-curvature="0"
       id="path909"
       d="M 16.043914,1.4999993 V 31.680365 l 32.317852,32.336106 h 6.486307 L 89.340658,98.508317 97.963805,89.885356 31.13442,23.057403 V 16.590182 Z M 77.026991,74.902538 c 1.474092,2e-6 2.669469,1.195353 2.669469,2.669414 0,1.474061 -1.195377,2.669412 -2.669469,2.669412 -1.474093,0 -2.66947,-1.195351 -2.669471,-2.669412 1e-6,-1.474061 1.195378,-2.669412 2.669471,-2.669414 z m 5.395782,5.397773 c 1.474093,-10e-7 2.66947,1.193246 2.66947,2.667307 0,1.474062 -1.195377,2.669414 -2.66947,2.669414 -1.474093,0 -2.667366,-1.195352 -2.667365,-2.669414 0,-1.474061 1.193272,-2.667307 2.667365,-2.667307 z m 5.345256,5.343036 c 1.474093,0 2.669471,1.195351 2.66947,2.669413 0,1.474061 -1.195377,2.669413 -2.66947,2.669413 -1.474093,10e-7 -2.66947,-1.195352 -2.66947,-2.669413 0,-1.474062 1.195377,-2.669413 2.66947,-2.669413 z"
       style="opacity:1;vector-effect:none;fill:#000000;fill-opacity:1;fill-rule:nonzero;stroke:url(#linearGradient981);stroke-width:0.25;stroke-linecap:round;stroke-linejoin:round;stroke-miterlimit:4;stroke-dasharray:none;stroke-dashoffset:0;stroke-opacity:1" />
    <path
       sodipodi:nodetypes="cccccc"
       inkscape:connector-curvature="0"
       id="path915"
       d="m 32.719329,22.420669 0.02369,-2.838667 7.52946,3.990306 62.156591,62.155261 -3.387374,3.079916 z"
       style="opacity:1;vector-effect:none;fill:#333333;fill-opacity:1;fill-rule:nonzero;stroke:#333333;stroke-width:0.25;stroke-linecap:round;stroke-linejoin:round;stroke-miterlimit:4;stroke-dasharray:none;stroke-dashoffset:0;stroke-opacity:1" />
    <path
       sodipodi:nodetypes="cccccc"
       inkscape:connector-curvature="0"
       id="path947"
       d="m 51.867259,69.961904 33.003169,33.090286 3.463248,-3.536912 -33.805658,-33.804934 -2.679716,0.0549 z"
       style="opacity:1;vector-effect:none;fill:#333333;fill-opacity:1;fill-rule:nonzero;stroke:#333333;stroke-width:0.25;stroke-linecap:round;stroke-linejoin:round;stroke-miterlimit:4;stroke-dasharray:none;stroke-dashoffset:0;stroke-opacity:1" />
    <path
       id="path1013"
       d="m 98.29923,98.29923 1.388509,-1.388509 19.450781,19.450849 1.3119,-0.9848 1.1266,1.41015 -1.9625,2.8276 m -21.31529,-21.31529 -1.388509,1.388509 19.450849,19.450781 -0.9848,1.3119 1.41015,1.1266 2.8276,-1.9625"
       transform="matrix(1.0778933,0,0,1.0778702,-5.513952,-4.9672219)"
       inkscape:original-d="m 98.29923,98.29923 1.388509,-1.388509 19.450781,19.450849 1.3119,-0.9848 1.1266,1.41015 -1.9625,2.8276"
       inkscape:path-effect="#path-effect1919"
       style="opacity:1;vector-effect:none;fill:#333333;fill-opacity:1;fill-rule:nonzero;stroke:#333333;stroke-width:0.2319364;stroke-linecap:round;stroke-linejoin:round;stroke-miterlimit:4;stroke-dasharray:none;stroke-dashoffset:0;stroke-opacity:1" />
    <path
       id="path1341"
       d="m 92.948523,92.948523 11.254657,-11.25465 4.50983,4.493336 -11.2629,11.262901 m -4.501587,-4.501587 -11.25465,11.254657 4.493336,4.50983 11.262901,-11.2629"
       transform="matrix(1.0778933,0,0,1.0778702,-5.513952,-4.9672219)"
       inkscape:original-d="m 92.948523,92.948523 11.254657,-11.25465 4.50983,4.493336 -11.2629,11.262901"
       inkscape:path-effect="#path-effect1919"
       style="opacity:1;vector-effect:none;fill:#000000;fill-opacity:1;fill-rule:nonzero;stroke:#000000;stroke-width:0.2319364;stroke-linecap:round;stroke-linejoin:round;stroke-miterlimit:4;stroke-dasharray:none;stroke-dashoffset:0;stroke-opacity:1" />
  </g>
  <path
     id="circle1925"
     style="display:none;opacity:1;vector-effect:none;fill:#ffe642;fill-opacity:1;fill-rule:nonzero;stroke:#000000;stroke-width:0.25;stroke-linecap:round;stroke-linejoin:round;stroke-miterlimit:4;stroke-dasharray:none;stroke-dashoffset:0;stroke-opacity:1"
     d="m 79.052182,76.575981 a 2.4762013,2.4762013 0 0 1 -2.476201,2.476201 2.4762013,2.4762013 0 0 1 -2.476201,-2.476201 2.4762013,2.4762013 0 0 1 2.476201,-2.476201 2.4762013,2.4762013 0 0 1 2.476201,2.476201 m 5.006768,5.006767 a 2.4762013,2.4762013 0 0 1 -2.476202,2.476202 2.4762013,2.4762013 0 0 1 -2.476201,-2.476202 2.4762013,2.4762013 0 0 1 2.476201,-2.476201 2.4762013,2.4762013 0 0 1 2.476202,2.476201 m 4.958389,4.95839 a 2.4762013,2.4762013 0 0 1 -2.476201,2.476201 2.4762013,2.4762013 0 0 1 -2.476202,-2.476201 2.4762013,2.4762013 0 0 1 2.476202,-2.476202 2.4762013,2.4762013 0 0 1 2.476201,2.476202 z"
     inkscape:connector-curvature="0" />
</svg>
