<?xml version="1.0" encoding="UTF-8" standalone="no"?>
<svg
   xmlns:dc="http://purl.org/dc/elements/1.1/"
   xmlns:cc="http://creativecommons.org/ns#"
   xmlns:rdf="http://www.w3.org/1999/02/22-rdf-syntax-ns#"
   xmlns:svg="http://www.w3.org/2000/svg"
   xmlns="http://www.w3.org/2000/svg"
   xmlns:xlink="http://www.w3.org/1999/xlink"
   xmlns:sodipodi="http://sodipodi.sourceforge.net/DTD/sodipodi-0.dtd"
   xmlns:inkscape="http://www.inkscape.org/namespaces/inkscape"
   sodipodi:docname="icon-polearm-b.svg"
   inkscape:version="0.92.4 (5da689c313, 2019-01-14)"
   id="svg4689"
   version="1.1"
   viewBox="0 0 128 128"
   height="128"
   width="128"
   inkscape:export-filename="wpn-polearm-b.png"
   inkscape:export-xdpi="96"
   inkscape:export-ydpi="96">
  <defs
     id="defs4683">
    <inkscape:path-effect
       end_linecap_type="zerowidth"
       miter_limit="4"
       linejoin_type="extrp_arc"
       start_linecap_type="zerowidth"
       interpolator_beta="0.2"
       interpolator_type="CubicBezierSmooth"
       sort_points="true"
       offset_points="3.764314,0.087262726 | 1.1206873,0.36647737"
       is_visible="true"
       id="path-effect2168"
       effect="powerstroke" />
    <inkscape:path-effect
       end_linecap_type="zerowidth"
       miter_limit="4"
       linejoin_type="extrp_arc"
       start_linecap_type="zerowidth"
       interpolator_beta="0.2"
       interpolator_type="CubicBezierSmooth"
       sort_points="true"
       offset_points="1.9490142,0.08725303 | 1.3189349,0.37335783"
       is_visible="true"
       id="path-effect2164"
       effect="powerstroke" />
    <inkscape:path-effect
       effect="powerstroke"
       id="path-effect2160"
       is_visible="true"
       offset_points="0.16289214,0.40574891 | 0.98586435,0.43856705 | 1.2442598,0.74788034 | 1.875,0.22686414 | 3.6,0.22686414"
       sort_points="true"
       interpolator_type="CubicBezierSmooth"
       interpolator_beta="0.2"
       start_linecap_type="zerowidth"
       linejoin_type="extrp_arc"
       miter_limit="4"
       end_linecap_type="zerowidth" />
    <inkscape:path-effect
       effect="powerstroke"
       id="path-effect2154"
       is_visible="true"
       offset_points="1.9490142,0.08725303 | 1.0549368,0.36647527"
       sort_points="true"
       interpolator_type="CubicBezierSmooth"
       interpolator_beta="0.2"
       start_linecap_type="zerowidth"
       linejoin_type="extrp_arc"
       miter_limit="4"
       end_linecap_type="zerowidth" />
    <inkscape:path-effect
       effect="mirror_symmetry"
       start_point="0,372"
       end_point="140.25892,512.25892"
       center_point="70.12946,442.12946"
       id="path-effect2104"
       is_visible="true"
       mode="free"
       discard_orig_path="false"
       fuse_paths="false"
       oposite_fuse="false" />
    <inkscape:path-effect
       oposite_fuse="false"
       fuse_paths="false"
       discard_orig_path="false"
       mode="free"
       is_visible="true"
       id="path-effect5128"
       center_point="64,436"
       end_point="64,484"
       start_point="64,388"
       effect="mirror_symmetry" />
    <inkscape:path-effect
       oposite_fuse="false"
       fuse_paths="false"
       discard_orig_path="false"
       mode="free"
       is_visible="true"
       id="path-effect5128-1"
       center_point="64,436"
       end_point="64,484"
       start_point="64,388"
       effect="mirror_symmetry" />
    <linearGradient
       inkscape:collect="always"
       id="linearGradient887">
      <stop
         style="stop-color:#76d5a3;stop-opacity:1"
         offset="0"
         id="stop883" />
      <stop
         style="stop-color:#3cb215;stop-opacity:1"
         offset="1"
         id="stop885" />
    </linearGradient>
    <linearGradient
       inkscape:collect="always"
       xlink:href="#linearGradient887"
       id="linearGradient1023"
       gradientUnits="userSpaceOnUse"
       x1="25.958368"
       y1="389.59012"
       x2="25.958368"
       y2="422.26566"
       gradientTransform="translate(24.041631,0.35355339)" />
    <linearGradient
       inkscape:collect="always"
       id="linearGradient903-1">
      <stop
         style="stop-color:#6f6f6f;stop-opacity:1"
         offset="0"
         id="stop899-1" />
      <stop
         style="stop-color:#494949;stop-opacity:1"
         offset="1"
         id="stop901-30" />
    </linearGradient>
    <linearGradient
       inkscape:collect="always"
       xlink:href="#linearGradient903-1"
       id="linearGradient905-0"
       x1="70"
       y1="360.35718"
       x2="79.121239"
       y2="355.00003"
       gradientUnits="userSpaceOnUse" />
    <linearGradient
       inkscape:collect="always"
       id="linearGradient903-4">
      <stop
         style="stop-color:#0958b8;stop-opacity:1"
         offset="0"
         id="stop899-14" />
      <stop
         style="stop-color:#0a2b8c;stop-opacity:1"
         offset="1"
         id="stop901-32" />
    </linearGradient>
    <linearGradient
       inkscape:collect="always"
       id="linearGradient887-4">
      <stop
         style="stop-color:#fff1b9;stop-opacity:1"
         offset="0"
         id="stop883-0" />
      <stop
         style="stop-color:#e8d376;stop-opacity:1"
         offset="1"
         id="stop885-4" />
    </linearGradient>
    <linearGradient
       inkscape:collect="always"
       xlink:href="#linearGradient887-4"
       id="linearGradient1028-4"
       gradientUnits="userSpaceOnUse"
       gradientTransform="translate(-89.895187,-137.92335)"
       x1="-8.8858929"
       y1="361.19156"
       x2="-8.8858929"
       y2="383.01328" />
    <linearGradient
       gradientTransform="translate(-50,-320.00003)"
       gradientUnits="userSpaceOnUse"
       y2="355.00003"
       x2="79.121239"
       y1="360.35718"
       x1="70"
       id="linearGradient905-2-8"
       xlink:href="#linearGradient903-4"
       inkscape:collect="always" />
    <clipPath
       clipPathUnits="userSpaceOnUse"
       id="clipPath2207">
      <path
         style="opacity:1;vector-effect:none;fill:#a920ba;fill-opacity:0.57661288;fill-rule:nonzero;stroke:none;stroke-width:0.24999999;stroke-linecap:round;stroke-linejoin:round;stroke-miterlimit:4;stroke-dasharray:none;stroke-dashoffset:0;stroke-opacity:1;paint-order:normal"
         d="M 6.7919267,378.79198 H 122.2972 V 494.29725 H 6.7919267 Z M 101.44013,481.58455 a 1.3537128,1.3537128 0 0 0 0,0.13571 1.3537128,1.3537128 0 0 0 1.44346,1.29894 c 3.46199,-0.18445 7.8864,-2.47005 10.21175,-4.31805 a 1.3537128,1.3537128 0 1 0 -1.68316,-2.12025 c -1.73295,1.37721 -6.49813,3.61879 -8.67312,3.73467 a 1.3537128,1.3537128 0 0 0 -1.29893,1.26898 z m 3.64478,3.68885 a 1.3537128,1.3537128 0 0 0 0,0.0934 1.3537128,1.3537128 0 0 0 1.44347,1.29894 c 3.46199,-0.18445 7.88641,-2.47007 10.21175,-4.31806 a 1.3537128,1.3537128 0 1 0 -1.68316,-2.12025 c -1.73295,1.37721 -6.49813,3.61879 -8.67312,3.73468 a 1.3537128,1.3537128 0 0 0 -1.29894,1.31127 z m 3.64656,3.64479 a 1.3537128,1.3537128 0 0 0 0,0.0934 1.3537128,1.3537128 0 0 0 1.44346,1.29894 c 3.46199,-0.18445 7.8864,-2.47007 10.21175,-4.31805 a 1.3537128,1.3537128 0 1 0 -1.68315,-2.12025 c -1.73295,1.37721 -6.49813,3.61879 -8.67312,3.73468 a 1.3537128,1.3537128 0 0 0 -1.29894,1.31127 z"
         id="path2209"
         inkscape:connector-curvature="0" />
    </clipPath>
  </defs>
  <sodipodi:namedview
     inkscape:document-rotation="0"
     inkscape:snap-grids="false"
     inkscape:lockguides="false"
     inkscape:showpageshadow="false"
     inkscape:window-maximized="0"
     inkscape:window-y="-5"
     inkscape:window-x="411"
     inkscape:window-height="1166"
     inkscape:window-width="1493"
     inkscape:guide-bbox="true"
     showguides="false"
     inkscape:snap-path-mask="false"
     inkscape:snap-path-clip="false"
     inkscape:pagecheckerboard="false"
     showborder="true"
     units="px"
     showgrid="false"
     inkscape:current-layer="layer4"
     inkscape:document-units="px"
     inkscape:cy="73.996698"
     inkscape:cx="62.871864"
     inkscape:zoom="5.6568542"
     inkscape:pageshadow="2"
     inkscape:pageopacity="0"
     borderopacity="1.0"
     bordercolor="#666666"
     pagecolor="#d2d2d2"
     id="base"
     guidetolerance="7"
     objecttolerance="10"
     inkscape:snap-smooth-nodes="true"
     inkscape:object-paths="false"
     inkscape:object-nodes="true">
    <inkscape:grid
       empspacing="32"
       spacingx="2"
       spacingy="2"
       id="grid5234"
       type="xygrid" />
    <sodipodi:guide
       inkscape:color="rgb(0,0,0)"
       inkscape:locked="true"
       inkscape:label=""
       id="guide859"
       orientation="0,1"
       position="0,128" />
    <sodipodi:guide
       inkscape:color="rgb(0,0,0)"
       inkscape:locked="true"
       inkscape:label=""
       id="guide861"
       orientation="1,0"
       position="128,128" />
    <sodipodi:guide
       inkscape:color="rgb(0,0,0)"
       inkscape:locked="true"
       inkscape:label=""
       id="guide863"
       orientation="0,1"
       position="128,0" />
    <sodipodi:guide
       inkscape:color="rgb(0,0,0)"
       inkscape:locked="true"
       inkscape:label=""
       id="guide865"
       orientation="1,0"
       position="0,0" />
    <sodipodi:guide
       inkscape:color="rgb(0,0,0)"
       inkscape:locked="true"
       inkscape:label=""
       id="guide867"
       orientation="0,1"
       position="290.71428,64" />
    <sodipodi:guide
       inkscape:color="rgb(0,0,0)"
       inkscape:locked="true"
       inkscape:label=""
       id="guide869"
       orientation="1,0"
       position="64,303" />
    <sodipodi:guide
       position="64,64"
       orientation="-0.70710678,-0.70710678"
       id="guide2063"
       inkscape:locked="false" />
    <sodipodi:guide
       position="61.453305,72.29956"
       orientation="-0.70710678,0.70710678"
       id="guide2106"
       inkscape:locked="false" />
  </sodipodi:namedview>
  <metadata
     id="metadata4686">
    <rdf:RDF>
      <cc:Work
         rdf:about="">
        <dc:format>image/svg+xml</dc:format>
        <dc:type
           rdf:resource="http://purl.org/dc/dcmitype/StillImage" />
        <dc:title></dc:title>
        <dc:creator>
          <cc:Agent>
            <dc:title>Weaver</dc:title>
          </cc:Agent>
        </dc:creator>
      </cc:Work>
    </rdf:RDF>
  </metadata>
  <g
     style="opacity:1"
     transform="translate(0,-536.70831)"
     id="layer1"
     inkscape:groupmode="layer"
     inkscape:label="Background" />
  <g
     transform="translate(0,-372)"
     inkscape:label="Base"
     id="layer4"
     inkscape:groupmode="layer">
    <g
       style="opacity:1"
       transform="translate(-148.24393,-275.16337)"
       id="layer1-7"
       inkscape:label="Background" />
    <g
       transform="translate(-148.24393,-110.45506)"
       inkscape:label="Extra"
       id="layer3-0"
       style="opacity:1" />
    <g
       transform="translate(-148.24393,-110.45506)"
       inkscape:label="Text"
       id="layer2-9"
       style="opacity:1" />
    <circle
       style="opacity:1;fill:#c18e1c;fill-opacity:1;stroke:#000000;stroke-width:0.25;stroke-linecap:round;stroke-linejoin:round"
       id="circle2495"
       cx="-21.499611"
       cy="389.004"
       r="9.0913725" />
    <circle
       r="9.0913725"
       cy="412.47473"
       cx="-21.499611"
       id="circle2544"
       style="opacity:1;fill:#3db217;fill-opacity:1;stroke:#000000;stroke-width:0.25;stroke-linecap:round;stroke-linejoin:round" />
    <circle
       style="opacity:1;fill:#6f6f6f;fill-opacity:1;stroke:#000000;stroke-width:0.25;stroke-linecap:round;stroke-linejoin:round"
       id="circle2546"
       cx="-21.499611"
       cy="435.94547"
       r="9.0913725" />
    <circle
       r="9.0913725"
       cy="459.41617"
       cx="-21.499611"
       id="circle2548"
       style="opacity:1;fill:#ba3420;fill-opacity:1;stroke:#000000;stroke-width:0.25;stroke-linecap:round;stroke-linejoin:round" />
    <circle
       style="opacity:1;vector-effect:none;fill:#0958b8;fill-opacity:1;stroke:#000000;stroke-width:0.025;stroke-linecap:round;stroke-linejoin:round;stroke-miterlimit:4;stroke-dasharray:none;stroke-dashoffset:0;stroke-opacity:1"
       id="circle2550"
       cx="-21.499611"
       cy="482.8869"
       r="9.0913725" />
    <path
       inkscape:connector-curvature="0"
       d="m -38.101316,388.84334 a 9.0913725,9.0913725 0 0 1 -9.091372,9.09138 9.0913725,9.0913725 0 0 1 -9.091373,-9.09138 9.0913725,9.0913725 0 0 1 9.091373,-9.09137 9.0913725,9.0913725 0 0 1 9.091372,9.09137"
       style="opacity:1;fill:none;fill-opacity:1;stroke:#000000;stroke-width:5;stroke-linecap:round;stroke-linejoin:round;stroke-miterlimit:4;stroke-dasharray:none"
       id="circle2495-7" />
    <circle
       r="9.0913725"
       cy="448.69489"
       cx="-47.697639"
       id="circle4766"
       style="opacity:1;fill:#a920ba;fill-opacity:0.57661288;stroke:none;stroke-width:0.25;stroke-linecap:round;stroke-linejoin:round" />
    <path
       style="opacity:1;vector-effect:none;fill:#000000;fill-opacity:1;fill-rule:nonzero;stroke:none;stroke-width:0.22559625;stroke-linecap:round;stroke-linejoin:round;stroke-miterlimit:4;stroke-dasharray:none;stroke-dashoffset:0;stroke-opacity:1;paint-order:normal"
       d="m 121.01529,493.01528 0.0502,-4.7093 -23.866006,-23.86985 c 0.418098,-5.28636 -1.841059,-9.06676 -5.217329,-12.21878 l 1.410742,-71.86021 -11.647788,50.4878 c 3.095867,6.68451 0.426437,18.96651 -5.459175,12.08988 0,0 -1.270236,0.0677 -1.667529,-0.33693 -0.402256,-0.40969 0.0921,-1.28463 -0.310151,-1.69432 -0.397293,-0.40464 -1.270236,0.0677 -1.667529,-0.33693 -0.402256,-0.40969 0.0921,-1.28463 -0.310151,-1.69432 -0.397293,-0.40464 -1.270236,0.0677 -1.667529,-0.33693 -0.402256,-0.40969 0.0921,-1.28463 -0.310151,-1.69432 -0.397293,-0.40464 -1.270236,0.0677 -1.667529,-0.33693 -0.402256,-0.40969 0.0921,-1.28463 -0.310151,-1.69432 -0.397293,-0.40464 -1.270236,0.0677 -1.667529,-0.33693 -0.402256,-0.40969 0.0921,-1.28463 -0.310151,-1.69432 -0.397294,-0.40464 -1.270236,0.0677 -1.66753,-0.33693 -0.402256,-0.40969 0.0921,-1.28463 -0.310151,-1.69432 -0.397293,-0.40464 -1.270236,0.0677 -1.667529,-0.33693 -0.402256,-0.40969 0.0921,-1.28463 -0.310151,-1.69432 -0.397294,-0.40464 -1.270238,0.0677 -1.66753,-0.33693 -0.402258,-0.40969 -0.148813,-1.1433 -0.310151,-1.69432 -1.576042,-5.3827 -2.053957,-11.56455 -1.860208,-15.82197 -8.948005,-2.3888 -16.731329,-5.32913 -22.715417,-9.84588 -6.012474,-4.53818 -10.049063,-11.3992 -16.45444,-16.99077 -2.844219,-2.48287 -7.05339,-2.62864 -11.6392247,-4.23105 m 113.2200777,113.22014 -4.7093,0.0502 -23.86985,-23.86601 c -5.28636,0.4181 -9.06676,-1.84106 -12.21878,-5.21732 l -71.86021,1.41074 50.4878,-11.64779 c 6.68451,3.09587 18.96651,0.42644 12.08988,-5.45918 0,0 0.0677,-1.27023 -0.33693,-1.66753 -0.40969,-0.40225 -1.28463,0.0921 -1.69432,-0.31015 -0.40464,-0.39729 0.0677,-1.27023 -0.33693,-1.66753 -0.40969,-0.40225 -1.28463,0.0921 -1.69432,-0.31015 -0.40464,-0.39729 0.0677,-1.27023 -0.33693,-1.66753 -0.40969,-0.40225 -1.28463,0.0921 -1.69432,-0.31015 -0.40464,-0.39729 0.0677,-1.27023 -0.33693,-1.66753 -0.40969,-0.40225 -1.28463,0.0921 -1.69432,-0.31015 -0.40464,-0.39729 0.0677,-1.27023 -0.33693,-1.66753 -0.40969,-0.40225 -1.28463,0.0921 -1.69432,-0.31015 -0.40464,-0.39729 0.0677,-1.27023 -0.33693,-1.66753 -0.40969,-0.40225 -1.28463,0.0921 -1.69432,-0.31015 -0.40464,-0.39729 0.0677,-1.27023 -0.33693,-1.66753 -0.40969,-0.40225 -1.28463,0.0921 -1.69432,-0.31015 -0.40464,-0.39729 0.0677,-1.27024 -0.33693,-1.66753 -0.40969,-0.40226 -1.1433,-0.14881 -1.69432,-0.31015 -5.3827,-1.57604 -11.56455,-2.05396 -15.82197,-1.86021 -2.3888,-8.948 -5.32913,-16.73133 -9.84588,-22.71541 C 24.47879,401.87639 17.61777,397.8398 12.0262,391.43443 9.54333,388.59021 9.39756,384.38104 7.79515,379.7952"
       id="path2069"
       inkscape:connector-curvature="0"
       sodipodi:nodetypes="cccccccaaaaaaaaaaaaaasscssc"
       inkscape:path-effect="#path-effect2104"
       inkscape:original-d="m 121.01529,493.01528 0.0502,-4.7093 -23.866006,-23.86985 c 0.418098,-5.28636 -1.841059,-9.06676 -5.217329,-12.21878 l 1.410742,-71.86021 -11.647788,50.4878 c 3.095867,6.68451 0.426437,18.96651 -5.459175,12.08988 0,0 -1.270236,0.0677 -1.667529,-0.33693 -0.402256,-0.40969 0.0921,-1.28463 -0.310151,-1.69432 -0.397293,-0.40464 -1.270236,0.0677 -1.667529,-0.33693 -0.402256,-0.40969 0.0921,-1.28463 -0.310151,-1.69432 -0.397293,-0.40464 -1.270236,0.0677 -1.667529,-0.33693 -0.402256,-0.40969 0.0921,-1.28463 -0.310151,-1.69432 -0.397293,-0.40464 -1.270236,0.0677 -1.667529,-0.33693 -0.402256,-0.40969 0.0921,-1.28463 -0.310151,-1.69432 -0.397293,-0.40464 -1.270236,0.0677 -1.667529,-0.33693 -0.402256,-0.40969 0.0921,-1.28463 -0.310151,-1.69432 -0.397294,-0.40464 -1.270236,0.0677 -1.66753,-0.33693 -0.402256,-0.40969 0.0921,-1.28463 -0.310151,-1.69432 -0.397293,-0.40464 -1.270236,0.0677 -1.667529,-0.33693 -0.402256,-0.40969 0.0921,-1.28463 -0.310151,-1.69432 -0.397294,-0.40464 -1.270238,0.0677 -1.66753,-0.33693 -0.402258,-0.40969 -0.148813,-1.1433 -0.310151,-1.69432 -1.576042,-5.3827 -2.053957,-11.56455 -1.860208,-15.82197 -8.948005,-2.3888 -16.731329,-5.32913 -22.715417,-9.84588 -6.012474,-4.53818 -10.049063,-11.3992 -16.45444,-16.99077 -2.844219,-2.48287 -7.05339,-2.62864 -11.6392247,-4.23105"
       transform="matrix(0,1.1081745,1.1081745,0,-419.76761,364.47336)"
       clip-path="url(#clipPath2207)" />
    <path
       style="opacity:1;vector-effect:none;fill:#cccccc;fill-opacity:1;fill-rule:nonzero;stroke:none;stroke-width:1;stroke-linecap:round;stroke-linejoin:round;stroke-miterlimit:4;stroke-dasharray:none;stroke-dashoffset:0;stroke-opacity:1;paint-order:normal"
       inkscape:path-effect="#path-effect2154"
       inkscape:original-d="m 85.858954,438.75374 c 0.275094,-2.68697 -0.210934,-5.55738 -1.11197,-8.66439 L 96.25077,376.19921"
       d="m 85.858954,438.75374 c 0,0 0.182461,-0.48876 0.251578,-1.79751 0.06862,-1.29928 -0.005,-3.43434 -0.986663,-6.87975 0.105807,-0.49518 0.615734,-2.88163 0.613497,-2.87118 2.057055,-9.63639 7.95515,-38.60385 10.012205,-48.24024 0.439897,-2.06073 0.501199,-2.76585 0.501199,-2.76585 0,0 -0.231963,0.66869 -0.67186,2.72942 -2.057055,9.63639 -8.50129,38.48727 -10.558345,48.12366 -0.0025,0.0118 -0.628881,2.94889 -0.631396,2.96068 0,0 -0.0193,0.0906 -0.0193,0.0906 0,0 0.02572,0.0877 0.02572,0.0877 0.999377,3.41697 1.253664,5.49933 1.361433,6.77035 0.108284,1.27708 0.101935,1.79213 0.101935,1.79213 z"
       id="path2158"
       inkscape:connector-curvature="0"
       sodipodi:nodetypes="ccc"
       transform="translate(-0.55123604,-0.55120681)" />
    <path
       sodipodi:nodetypes="ccc"
       inkscape:connector-curvature="0"
       id="path2162"
       d="m 88.310826,437.78145 c 0,0 0.15926,-1.5124 -0.94399,-4.08737 -0.40273,-0.93997 -1.043473,-2.04669 -2.403669,-3.49844 0.459742,-2.27104 4.898306,-24.18494 4.806293,-23.73205 1.908213,-9.45011 7.352407,-37.85706 9.260619,-47.30716 0.579045,-2.86763 0.686533,-3.84077 0.686533,-3.84077 0,0 -0.278542,0.9386 -0.857586,3.80623 -1.908213,9.4501 -7.913296,37.7438 -9.821508,47.1939 -0.101332,0.50183 -4.714482,23.41832 -4.815814,23.92015 0,0 -0.03784,0.18854 -0.03784,0.18854 0.04423,0.0441 0.08831,0.0884 0.132223,0.13289 1.422584,1.44011 2.109533,2.48643 2.570871,3.36453 0.577315,1.09884 0.939329,2.27411 1.117618,2.85201 0.207301,0.67196 0.306246,1.00754 0.306246,1.00754 z"
       inkscape:original-d="m 88.310826,437.78145 c -0.622599,-3.15214 -1.288922,-4.9523 -3.736853,-7.47438 l 15.142639,-74.99141"
       inkscape:path-effect="#path-effect2164"
       style="opacity:1;vector-effect:none;fill:#cccccc;fill-opacity:1;fill-rule:nonzero;stroke:none;stroke-width:1;stroke-linecap:round;stroke-linejoin:round;stroke-miterlimit:4;stroke-dasharray:none;stroke-dashoffset:0;stroke-opacity:1;paint-order:normal"
       transform="rotate(-9.662172,229.11196,390.18986)" />
    <path
       sodipodi:nodetypes="cccsc"
       inkscape:connector-curvature="0"
       id="path2166"
       d="m 82.217176,443.72918 c 0,0 -0.143722,-0.46628 -0.500686,-1.5051 -0.258033,-0.75093 -0.990237,-2.90031 -2.006782,-5.05705 -0.79639,-1.68965 -2.105012,-4.16866 -4.666912,-7.658 0.761193,-0.84574 1.532339,-1.72254 2.300089,-2.62397 1.878976,-2.20613 4.468738,-5.41582 6.816833,-9.12511 2.34385,-3.70258 4.552923,-8.04904 5.980529,-13.13327 1.119444,-3.95121 1.566082,-8.22869 2.007957,-12.51821 0.45002,-4.36858 0.857778,-8.20266 1.887739,-11.40394 0.838397,-2.62386 2.258534,-4.44633 3.377599,-5.78382 0.833886,-0.99665 1.575399,-1.8203 2.134202,-2.50147 1.401346,-1.70823 1.644436,-2.47596 1.644436,-2.47596 0,0 -0.39522,0.67801 -1.779366,2.36526 -0.555598,0.67727 -1.30231,1.49165 -2.153252,2.48158 -1.136335,1.32193 -2.620177,3.15431 -3.517929,5.81777 -1.081417,3.22884 -1.534237,7.09539 -2.029439,11.45335 -0.488267,4.29694 -0.974248,8.52056 -2.118849,12.4084 -1.452212,5.00431 -3.668644,9.27715 -6.010776,12.92223 -2.345901,3.65095 -4.931334,6.82664 -6.797681,9.01794 -0.829372,0.97378 -1.662493,1.92111 -2.481568,2.83253 0,0 -0.200294,0.22248 -0.200294,0.22248 0.05969,0.0793 0.119239,0.15875 0.178637,0.23829 2.64874,3.54701 4.059035,6.06843 4.917349,7.71701 0.909425,1.74676 2.152208,4.50271 2.328311,4.88032 0.464456,0.9959 0.689853,1.42874 0.689853,1.42874 z"
       inkscape:original-d="m 82.217176,443.72918 c -1.801239,-4.38883 -3.01842,-8.02503 -7.64355,-14.24324 7.06614,-7.84094 12.629556,-15.60668 15.293049,-24.93736 2.287126,-7.91922 1.8749,-17.35325 4.022113,-23.89237 1.61526,-4.91912 5.144313,-6.9787 7.303392,-10.71293"
       inkscape:path-effect="#path-effect2168"
       style="opacity:1;vector-effect:none;fill:#cccccc;fill-opacity:1;fill-rule:nonzero;stroke:none;stroke-width:1;stroke-linecap:round;stroke-linejoin:round;stroke-miterlimit:4;stroke-dasharray:none;stroke-dashoffset:0;stroke-opacity:1;paint-order:normal"
       transform="matrix(-0.83220322,0.55447074,0.55447074,0.83220322,-119.35448,9.4391101)" />
    <use
       x="0"
       y="0"
       xlink:href="#path2158"
       id="use2170"
       transform="matrix(0,1,1,0,-372.00005,372.00005)"
       width="100%"
       height="100%" />
    <use
       x="0"
       y="0"
       xlink:href="#path2162"
       id="use2172"
       transform="matrix(0,1,1,0,-372.00005,372.00005)"
       width="100%"
       height="100%" />
    <use
       x="0"
       y="0"
       xlink:href="#path2166"
       id="use2174"
       transform="matrix(0,1,1,0,-372.00005,372.00005)"
       width="100%"
       height="100%" />
  </g>
  <g
     transform="translate(0,-372)"
     inkscape:label="Detail"
     id="layer5"
     inkscape:groupmode="layer" />
  <g
     transform="translate(0,-372)"
     inkscape:label="Extra"
     id="layer3"
     inkscape:groupmode="layer" />
  <g
     transform="translate(0,-372)"
     inkscape:label="Text"
     id="layer2"
     inkscape:groupmode="layer" />
</svg>
