<?xml version="1.0" encoding="UTF-8" standalone="no"?>
<svg
   xmlns:dc="http://purl.org/dc/elements/1.1/"
   xmlns:cc="http://creativecommons.org/ns#"
   xmlns:rdf="http://www.w3.org/1999/02/22-rdf-syntax-ns#"
   xmlns:svg="http://www.w3.org/2000/svg"
   xmlns="http://www.w3.org/2000/svg"
   xmlns:xlink="http://www.w3.org/1999/xlink"
   xmlns:sodipodi="http://sodipodi.sourceforge.net/DTD/sodipodi-0.dtd"
   xmlns:inkscape="http://www.inkscape.org/namespaces/inkscape"
   sodipodi:docname="wpn-polearm.svg"
   inkscape:version="0.92.4 (5da689c313, 2019-01-14)"
   id="svg4689"
   version="1.1"
   viewBox="0 0 128 128"
   height="128"
   width="128"
   inkscape:export-filename="wpn-polearm.png"
   inkscape:export-xdpi="192"
   inkscape:export-ydpi="192">
  <defs
     id="defs4683">
    <inkscape:path-effect
       end_linecap_type="zerowidth"
       miter_limit="4"
       linejoin_type="extrp_arc"
       start_linecap_type="zerowidth"
       interpolator_beta="0.2"
       interpolator_type="CubicBezierSmooth"
       sort_points="true"
       offset_points="3.7625434,0.18008983 | 1.1239664,0.74564296"
       is_visible="true"
       id="path-effect2168"
       effect="powerstroke" />
    <inkscape:path-effect
       end_linecap_type="zerowidth"
       miter_limit="4"
       linejoin_type="extrp_arc"
       start_linecap_type="zerowidth"
       interpolator_beta="0.2"
       interpolator_type="CubicBezierSmooth"
       sort_points="true"
       offset_points="1.9474261,0.25362301 | 1.3181495,0.61096707"
       is_visible="true"
       id="path-effect2164"
       effect="powerstroke" />
    <inkscape:path-effect
       effect="powerstroke"
       id="path-effect2160"
       is_visible="true"
       offset_points="0.16289214,0.40574891 | 0.98586435,0.43856705 | 1.2442598,0.74788034 | 1.875,0.22686414 | 3.6,0.22686414"
       sort_points="true"
       interpolator_type="CubicBezierSmooth"
       interpolator_beta="0.2"
       start_linecap_type="zerowidth"
       linejoin_type="extrp_arc"
       miter_limit="4"
       end_linecap_type="zerowidth" />
    <inkscape:path-effect
       effect="powerstroke"
       id="path-effect2154"
       is_visible="true"
       offset_points="1.9487147,0.21942764 | 1.0535672,0.65797818"
       sort_points="true"
       interpolator_type="CubicBezierSmooth"
       interpolator_beta="0.2"
       start_linecap_type="zerowidth"
       linejoin_type="extrp_arc"
       miter_limit="4"
       end_linecap_type="zerowidth" />
    <inkscape:path-effect
       effect="mirror_symmetry"
       start_point="0,372"
       end_point="140.25892,512.25892"
       center_point="70.12946,442.12946"
       id="path-effect2104"
       is_visible="true"
       mode="free"
       discard_orig_path="false"
       fuse_paths="false"
       oposite_fuse="false" />
    <inkscape:path-effect
       oposite_fuse="false"
       fuse_paths="false"
       discard_orig_path="false"
       mode="free"
       is_visible="true"
       id="path-effect5128"
       center_point="64,436"
       end_point="64,484"
       start_point="64,388"
       effect="mirror_symmetry" />
    <inkscape:path-effect
       oposite_fuse="false"
       fuse_paths="false"
       discard_orig_path="false"
       mode="free"
       is_visible="true"
       id="path-effect5128-1"
       center_point="64,436"
       end_point="64,484"
       start_point="64,388"
       effect="mirror_symmetry" />
    <linearGradient
       inkscape:collect="always"
       id="linearGradient887">
      <stop
         style="stop-color:#76d5a3;stop-opacity:1"
         offset="0"
         id="stop883" />
      <stop
         style="stop-color:#3cb215;stop-opacity:1"
         offset="1"
         id="stop885" />
    </linearGradient>
    <linearGradient
       inkscape:collect="always"
       xlink:href="#linearGradient887"
       id="linearGradient1023"
       gradientUnits="userSpaceOnUse"
       x1="25.958368"
       y1="389.59012"
       x2="25.958368"
       y2="422.26566"
       gradientTransform="translate(24.041631,0.35355339)" />
    <linearGradient
       inkscape:collect="always"
       id="linearGradient903-1">
      <stop
         style="stop-color:#6f6f6f;stop-opacity:1"
         offset="0"
         id="stop899-1" />
      <stop
         style="stop-color:#494949;stop-opacity:1"
         offset="1"
         id="stop901-30" />
    </linearGradient>
    <linearGradient
       inkscape:collect="always"
       xlink:href="#linearGradient903-1"
       id="linearGradient905-0"
       x1="70"
       y1="360.35718"
       x2="79.121239"
       y2="355.00003"
       gradientUnits="userSpaceOnUse" />
    <linearGradient
       inkscape:collect="always"
       id="linearGradient903-4">
      <stop
         style="stop-color:#0958b8;stop-opacity:1"
         offset="0"
         id="stop899-14" />
      <stop
         style="stop-color:#0a2b8c;stop-opacity:1"
         offset="1"
         id="stop901-32" />
    </linearGradient>
    <linearGradient
       inkscape:collect="always"
       id="linearGradient887-4">
      <stop
         style="stop-color:#fff1b9;stop-opacity:1"
         offset="0"
         id="stop883-0" />
      <stop
         style="stop-color:#e8d376;stop-opacity:1"
         offset="1"
         id="stop885-4" />
    </linearGradient>
    <linearGradient
       inkscape:collect="always"
       xlink:href="#linearGradient887-4"
       id="linearGradient1028-4"
       gradientUnits="userSpaceOnUse"
       gradientTransform="translate(-89.895187,-137.92335)"
       x1="-8.8858929"
       y1="361.19156"
       x2="-8.8858929"
       y2="383.01328" />
    <linearGradient
       gradientTransform="translate(-50,-320.00003)"
       gradientUnits="userSpaceOnUse"
       y2="355.00003"
       x2="79.121239"
       y1="360.35718"
       x1="70"
       id="linearGradient905-2-8"
       xlink:href="#linearGradient903-4"
       inkscape:collect="always" />
    <clipPath
       clipPathUnits="userSpaceOnUse"
       id="clipPath868">
      <path
         inkscape:connector-curvature="0"
         id="path870"
         d="M 6.791921,378.79198 H 182.24246 V 554.24252 H 6.791921 Z m 94.648209,102.79257 c -0.003,0.0452 -0.003,0.0905 0,0.13571 0.0291,0.76238 0.68225,1.35008 1.44346,1.29894 3.46198,-0.18445 7.8864,-2.47005 10.21175,-4.31805 1.45193,-1.11755 -0.26539,-3.28082 -1.68316,-2.12025 -1.73295,1.37721 -6.49813,3.61879 -8.67312,3.73467 -0.69455,0.0268 -1.25594,0.57524 -1.29893,1.26898 z m 3.64478,3.68885 c -10e-4,0.0311 -10e-4,0.0623 0,0.0934 0.0292,0.76238 0.68225,1.35008 1.44347,1.29894 3.46199,-0.18445 7.88641,-2.47007 10.21175,-4.31806 1.45186,-1.11756 -0.26541,-3.28075 -1.68317,-2.12025 -1.73294,1.37721 -6.49812,3.61878 -8.67311,3.73468 -0.71002,0.0284 -1.27723,0.601 -1.29894,1.31127 z m 3.64656,3.64479 c -0.001,0.0311 -0.001,0.0623 0,0.0934 0.0292,0.76237 0.68224,1.35007 1.44346,1.29894 3.46199,-0.18445 7.88639,-2.47007 10.21175,-4.31805 1.45213,-1.11752 -0.26535,-3.28102 -1.68316,-2.12026 -1.73294,1.37721 -6.49812,3.61879 -8.67311,3.73468 -0.71002,0.0284 -1.27723,0.60101 -1.29894,1.31127 z"
         style="opacity:1;vector-effect:none;fill:#a920ba;fill-opacity:0.57661288;fill-rule:nonzero;stroke:none;stroke-width:0.24999997;stroke-linecap:round;stroke-linejoin:round;stroke-miterlimit:4;stroke-dasharray:none;stroke-dashoffset:0;stroke-opacity:1;paint-order:normal"
         sodipodi:nodetypes="ccccccccccccccccccccccccccccc" />
    </clipPath>
  </defs>
  <sodipodi:namedview
     inkscape:document-rotation="0"
     inkscape:snap-grids="false"
     inkscape:lockguides="false"
     inkscape:showpageshadow="false"
     inkscape:window-maximized="0"
     inkscape:window-y="-5"
     inkscape:window-x="411"
     inkscape:window-height="1166"
     inkscape:window-width="1493"
     inkscape:guide-bbox="true"
     showguides="false"
     inkscape:snap-path-mask="false"
     inkscape:snap-path-clip="false"
     inkscape:pagecheckerboard="false"
     showborder="true"
     units="px"
     showgrid="false"
     inkscape:current-layer="layer5"
     inkscape:document-units="px"
     inkscape:cy="51.660064"
     inkscape:cx="25.627001"
     inkscape:zoom="4"
     inkscape:pageshadow="2"
     inkscape:pageopacity="0"
     borderopacity="1.0"
     bordercolor="#666666"
     pagecolor="#d2d2d2"
     id="base"
     guidetolerance="7"
     objecttolerance="10"
     inkscape:snap-smooth-nodes="true"
     inkscape:object-paths="false"
     inkscape:object-nodes="true">
    <inkscape:grid
       empspacing="32"
       spacingx="2"
       spacingy="2"
       id="grid5234"
       type="xygrid" />
    <sodipodi:guide
       inkscape:color="rgb(0,0,0)"
       inkscape:locked="false"
       inkscape:label=""
       id="guide859"
       orientation="0,1"
       position="0,128" />
    <sodipodi:guide
       inkscape:color="rgb(0,0,0)"
       inkscape:locked="false"
       inkscape:label=""
       id="guide861"
       orientation="1,0"
       position="128,128" />
    <sodipodi:guide
       inkscape:color="rgb(0,0,0)"
       inkscape:locked="false"
       inkscape:label=""
       id="guide863"
       orientation="0,1"
       position="128,0" />
    <sodipodi:guide
       inkscape:color="rgb(0,0,0)"
       inkscape:locked="false"
       inkscape:label=""
       id="guide865"
       orientation="1,0"
       position="0,0" />
    <sodipodi:guide
       inkscape:color="rgb(0,0,0)"
       inkscape:locked="false"
       inkscape:label=""
       id="guide867"
       orientation="0,1"
       position="290.71428,64" />
    <sodipodi:guide
       inkscape:color="rgb(0,0,0)"
       inkscape:locked="false"
       inkscape:label=""
       id="guide869"
       orientation="1,0"
       position="64,303" />
    <sodipodi:guide
       position="64,64"
       orientation="-0.70710678,-0.70710678"
       id="guide2063"
       inkscape:locked="false" />
    <sodipodi:guide
       position="61.453305,72.29956"
       orientation="-0.70710678,0.70710678"
       id="guide2106"
       inkscape:locked="false" />
  </sodipodi:namedview>
  <metadata
     id="metadata4686">
    <rdf:RDF>
      <cc:Work
         rdf:about="">
        <dc:format>image/svg+xml</dc:format>
        <dc:type
           rdf:resource="http://purl.org/dc/dcmitype/StillImage" />
        <dc:title />
        <dc:creator>
          <cc:Agent>
            <dc:title>Weaver</dc:title>
          </cc:Agent>
        </dc:creator>
      </cc:Work>
    </rdf:RDF>
  </metadata>
  <g
     style="opacity:1"
     transform="translate(0,-536.70831)"
     id="layer1"
     inkscape:groupmode="layer"
     inkscape:label="Background" />
  <g
     transform="translate(0,-372)"
     inkscape:label="Base"
     id="layer4"
     inkscape:groupmode="layer"
     style="display:inline">
    <g
       style="opacity:1"
       transform="translate(-148.24393,-275.16337)"
       id="layer1-7"
       inkscape:label="Background" />
    <g
       transform="translate(-148.24393,-110.45506)"
       inkscape:label="Extra"
       id="layer3-0"
       style="opacity:1" />
    <g
       transform="translate(-148.24393,-110.45506)"
       inkscape:label="Text"
       id="layer2-9"
       style="opacity:1" />
  </g>
  <g
     transform="translate(0,-372)"
     inkscape:label="Detail"
     id="layer5"
     inkscape:groupmode="layer"
     style="display:inline">
    <g
       id="g875">
      <path
         clip-path="url(#clipPath868)"
         transform="matrix(0,0.72737301,0.72737301,0,-275.14105,367.44176)"
         inkscape:original-d="m 180.55869,552.55876 0.0502,-4.7093 -83.409406,-83.41333 c 0.418098,-5.28636 -1.841059,-9.06676 -5.217329,-12.21878 l 1.410742,-71.86021 -11.647788,50.4878 c 3.095867,6.68451 0.426437,18.96651 -5.459175,12.08988 0,0 -1.270236,0.0677 -1.667529,-0.33693 -0.402256,-0.40969 0.0921,-1.28463 -0.310151,-1.69432 -0.397293,-0.40464 -1.270236,0.0677 -1.667529,-0.33693 -0.402256,-0.40969 0.0921,-1.28463 -0.310151,-1.69432 -0.397293,-0.40464 -1.270236,0.0677 -1.667529,-0.33693 -0.402256,-0.40969 0.0921,-1.28463 -0.310151,-1.69432 -0.397293,-0.40464 -1.270236,0.0677 -1.667529,-0.33693 -0.402256,-0.40969 0.0921,-1.28463 -0.310151,-1.69432 -0.397293,-0.40464 -1.270236,0.0677 -1.667529,-0.33693 -0.402256,-0.40969 0.0921,-1.28463 -0.310151,-1.69432 -0.397294,-0.40464 -1.270236,0.0677 -1.66753,-0.33693 -0.402256,-0.40969 0.0921,-1.28463 -0.310151,-1.69432 -0.397293,-0.40464 -1.270236,0.0677 -1.667529,-0.33693 -0.402256,-0.40969 0.0921,-1.28463 -0.310151,-1.69432 -0.397294,-0.40464 -1.270238,0.0677 -1.66753,-0.33693 -0.402258,-0.40969 -0.148813,-1.1433 -0.310151,-1.69432 -1.576042,-5.3827 -2.053957,-11.56455 -1.860208,-15.82197 -8.948005,-2.3888 -16.731329,-5.32913 -22.715417,-9.84588 -6.012474,-4.53818 -10.049063,-11.3992 -16.45444,-16.99077 -2.844219,-2.48287 -7.05339,-2.62864 -11.6392247,-4.23105"
         inkscape:path-effect="#path-effect2104"
         sodipodi:nodetypes="cccccccaaaaaaaaaaaaaasscssc"
         inkscape:connector-curvature="0"
         id="path2069"
         d="m 180.55869,552.55876 0.0502,-4.7093 -83.409406,-83.41333 c 0.418098,-5.28636 -1.841059,-9.06676 -5.217329,-12.21878 l 1.410742,-71.86021 -11.647788,50.4878 c 3.095867,6.68451 0.426437,18.96651 -5.459175,12.08988 0,0 -1.270236,0.0677 -1.667529,-0.33693 -0.402256,-0.40969 0.0921,-1.28463 -0.310151,-1.69432 -0.397293,-0.40464 -1.270236,0.0677 -1.667529,-0.33693 -0.402256,-0.40969 0.0921,-1.28463 -0.310151,-1.69432 -0.397293,-0.40464 -1.270236,0.0677 -1.667529,-0.33693 -0.402256,-0.40969 0.0921,-1.28463 -0.310151,-1.69432 -0.397293,-0.40464 -1.270236,0.0677 -1.667529,-0.33693 -0.402256,-0.40969 0.0921,-1.28463 -0.310151,-1.69432 -0.397293,-0.40464 -1.270236,0.0677 -1.667529,-0.33693 -0.402256,-0.40969 0.0921,-1.28463 -0.310151,-1.69432 -0.397294,-0.40464 -1.270236,0.0677 -1.66753,-0.33693 -0.402256,-0.40969 0.0921,-1.28463 -0.310151,-1.69432 -0.397293,-0.40464 -1.270236,0.0677 -1.667529,-0.33693 -0.402256,-0.40969 0.0921,-1.28463 -0.310151,-1.69432 -0.397294,-0.40464 -1.270238,0.0677 -1.66753,-0.33693 -0.402258,-0.40969 -0.148813,-1.1433 -0.310151,-1.69432 -1.576042,-5.3827 -2.053957,-11.56455 -1.860208,-15.82197 -8.948005,-2.3888 -16.731329,-5.32913 -22.715417,-9.84588 -6.012474,-4.53818 -10.049063,-11.3992 -16.45444,-16.99077 -2.844219,-2.48287 -7.05339,-2.62864 -11.6392247,-4.23105 m 172.7635577,172.76354 -4.7093,0.0502 -83.41333,-83.40941 c -5.28636,0.4181 -9.06676,-1.84106 -12.21878,-5.21732 l -71.86021,1.41074 50.4878,-11.64779 c 6.68451,3.09587 18.96651,0.42644 12.08988,-5.45918 0,0 0.0677,-1.27023 -0.33693,-1.66753 -0.40969,-0.40225 -1.28463,0.0921 -1.69432,-0.31015 -0.40464,-0.39729 0.0677,-1.27023 -0.33693,-1.66753 -0.40969,-0.40225 -1.28463,0.0921 -1.69432,-0.31015 -0.40464,-0.39729 0.0677,-1.27023 -0.33693,-1.66753 -0.40969,-0.40225 -1.28463,0.0921 -1.69432,-0.31015 -0.40464,-0.39729 0.0677,-1.27023 -0.33693,-1.66753 -0.40969,-0.40225 -1.28463,0.0921 -1.69432,-0.31015 -0.40464,-0.39729 0.0677,-1.27023 -0.33693,-1.66753 -0.40969,-0.40225 -1.28463,0.0921 -1.69432,-0.31015 -0.40464,-0.39729 0.0677,-1.27023 -0.33693,-1.66753 -0.40969,-0.40225 -1.28463,0.0921 -1.69432,-0.31015 -0.40464,-0.39729 0.0677,-1.27023 -0.33693,-1.66753 -0.40969,-0.40225 -1.28463,0.0921 -1.69432,-0.31015 -0.40464,-0.39729 0.0677,-1.27024 -0.33693,-1.66753 -0.40969,-0.40226 -1.1433,-0.14881 -1.69432,-0.31015 -5.3827,-1.57604 -11.56455,-2.05396 -15.82197,-1.86021 -2.3888,-8.948 -5.32913,-16.73133 -9.84588,-22.71541 C 24.47879,401.87639 17.61777,397.8398 12.0262,391.43443 9.54333,388.59021 9.39756,384.38104 7.79515,379.7952"
         style="display:inline;opacity:1;vector-effect:none;fill:#000000;fill-opacity:1;fill-rule:nonzero;stroke:none;stroke-width:0.34370261;stroke-linecap:round;stroke-linejoin:round;stroke-miterlimit:4;stroke-dasharray:none;stroke-dashoffset:0;stroke-opacity:1;paint-order:normal" />
      <path
         transform="matrix(0.65637047,0,0,0.65637047,0.02019462,127.85042)"
         sodipodi:nodetypes="ccc"
         inkscape:connector-curvature="0"
         id="path2158"
         d="m 86.072004,439.49867 c 0,0 0.220278,-0.21124 0.498532,-0.86919 0.2786,-0.65876 0.595109,-1.79772 0.478773,-3.64558 -0.08671,-1.37729 -0.389044,-2.89505 -0.925982,-4.79821 0.169583,-0.81163 0.341351,-1.63519 0.51532,-2.47082 1.829116,-8.78587 6.887119,-35.23286 8.716235,-44.01873 0.39298,-1.88762 0.309152,-2.56155 0.309152,-2.56155 0,0 -0.345815,0.58448 -0.738795,2.4721 -1.829116,8.78587 -7.745809,35.05409 -9.574925,43.83996 -0.185252,0.88983 -0.367331,1.76612 -0.546285,2.62902 0,0 -0.03352,0.16166 -0.03352,0.16166 0,0 0.04573,0.15522 0.04573,0.15522 0.58706,1.99451 0.949071,3.35073 1.18409,4.71263 0.291036,1.68651 0.256959,2.76327 0.197868,3.42971 -0.05949,0.67093 -0.126189,0.96378 -0.126189,0.96378 z"
         inkscape:original-d="m 86.072004,439.49867 c 1.139547,-2.59922 0.276225,-6.18209 -0.624811,-9.2891 l 10.216841,-49.07498"
         inkscape:path-effect="#path-effect2154"
         style="display:inline;opacity:1;vector-effect:none;fill:#cccccc;fill-opacity:1;fill-rule:nonzero;stroke:none;stroke-width:1.52352989;stroke-linecap:round;stroke-linejoin:round;stroke-miterlimit:4;stroke-dasharray:none;stroke-dashoffset:0;stroke-opacity:1;paint-order:normal" />
      <path
         transform="matrix(0.64705952,-0.11016427,0.11016427,0.64705952,-40.469723,157.08521)"
         style="display:inline;opacity:1;vector-effect:none;fill:#cccccc;fill-opacity:1;fill-rule:nonzero;stroke:none;stroke-width:1.52352989;stroke-linecap:round;stroke-linejoin:round;stroke-miterlimit:4;stroke-dasharray:none;stroke-dashoffset:0;stroke-opacity:1;paint-order:normal"
         inkscape:path-effect="#path-effect2164"
         inkscape:original-d="m 87.226456,438.24225 c -0.622599,-3.15214 -1.410672,-5.27452 -3.858603,-7.7966 l 15.25813,-72.21623"
         d="m 87.226456,438.24225 c 0,0 0.274542,-1.49908 -0.851078,-4.31902 -0.397469,-0.99575 -1.050546,-2.20641 -2.368583,-3.65342 1.484339,-6.95676 3.086822,-14.50255 4.813195,-22.67342 1.920317,-9.08879 7.331642,-36.42906 9.251958,-45.51785 0.601635,-2.84752 0.554035,-3.84912 0.554035,-3.84912 0,0 -0.44869,0.89674 -1.050324,3.74426 -1.920317,9.0888 -8.030893,36.28132 -9.95121,45.37011 -1.751006,8.28746 -3.358451,15.93527 -4.832072,22.98027 0,0 -0.06585,0.31482 -0.06585,0.31482 0.07358,0.0716 0.146666,0.14378 0.219257,0.21643 1.405076,1.40603 2.145681,2.52999 2.642142,3.43681 0.626664,1.14465 1.065229,2.3753 1.271201,2.94444 0.245393,0.67808 0.367325,1.00569 0.367325,1.00569 z"
         id="path2162"
         inkscape:connector-curvature="0"
         sodipodi:nodetypes="ccc" />
      <path
         transform="matrix(-0.54623361,0.36393822,0.36393822,0.54623361,-77.958746,134.40777)"
         style="display:inline;opacity:1;vector-effect:none;fill:#cccccc;fill-opacity:1;fill-rule:nonzero;stroke:none;stroke-width:1.52352989;stroke-linecap:round;stroke-linejoin:round;stroke-miterlimit:4;stroke-dasharray:none;stroke-dashoffset:0;stroke-opacity:1;paint-order:normal"
         inkscape:path-effect="#path-effect2168"
         inkscape:original-d="m 82.198376,444.1867 c -0.139211,-4.44439 -1.555617,-8.46801 -6.180747,-14.68622 7.06614,-7.84094 12.211565,-15.0896 15.079525,-26.57961 1.972284,-7.90163 1.326002,-15.61331 3.230449,-22.15249 1.447735,-4.97101 4.686575,-6.49028 6.845647,-10.22451"
         d="m 82.198376,444.1867 c 0,0 0.09923,-0.45332 0.106706,-1.51899 0.0067,-0.95223 -0.0658,-2.85276 -0.978438,-5.37675 -0.668866,-1.84981 -1.855126,-4.27927 -4.35661,-7.74113 0.71798,-0.79898 1.440798,-1.62247 2.155065,-2.46517 1.837848,-2.16831 4.357985,-5.33224 6.604939,-9.14786 2.280961,-3.87337 4.409538,-8.59343 5.929859,-14.87546 0.947503,-3.97055 1.237381,-7.84508 1.52392,-11.68904 0.291829,-3.91494 0.562376,-7.32767 1.448124,-10.51529 0.718811,-2.62796 1.977358,-4.29144 3.009234,-5.52943 0.624863,-0.74968 1.363102,-1.55716 1.987965,-2.30684 1.37203,-1.64088 1.54411,-2.47687 1.54411,-2.47687 0,0 -0.48847,0.65287 -1.820429,2.24582 -0.52653,0.62971 -1.229866,1.36629 -2.026646,2.2674 -1.072445,1.21286 -2.464,2.90222 -3.30291,5.62266 -0.986355,3.24075 -1.346863,6.71256 -1.731447,10.61536 -0.379816,3.85442 -0.751994,7.63255 -1.757408,11.4853 -1.579568,6.13751 -3.734764,10.70846 -6.00103,14.44094 -2.234201,3.67968 -4.736538,6.76437 -6.545899,8.89907 -0.835486,0.98571 -1.683378,1.95125 -2.519627,2.88461 -0.135998,0.15179 -0.272248,0.30336 -0.40875,0.45469 0.122176,0.16036 0.243744,0.32118 0.364699,0.48245 2.706101,3.60822 4.031436,6.0273 4.829997,7.78442 1.029775,2.26587 1.446452,4.10245 1.63936,4.98372 0.22349,1.02099 0.305216,1.47639 0.305216,1.47639 z"
         id="path2166"
         inkscape:connector-curvature="0"
         sodipodi:nodetypes="ccssc" />
      <use
         style="display:inline;stroke-width:1.52352989"
         height="100%"
         width="100%"
         transform="matrix(0,1,1,0,-372.00005,372.00005)"
         id="use2170"
         xlink:href="#path2158"
         y="0"
         x="0" />
      <use
         style="display:inline;stroke-width:1.52352989"
         height="100%"
         width="100%"
         transform="matrix(0,1,1,0,-372.00005,372.00005)"
         id="use2172"
         xlink:href="#path2162"
         y="0"
         x="0" />
      <use
         style="display:inline;stroke-width:1.52352989"
         height="100%"
         width="100%"
         transform="matrix(0,1,1,0,-372.00005,372.00005)"
         id="use2174"
         xlink:href="#path2166"
         y="0"
         x="0" />
    </g>
  </g>
  <g
     transform="translate(0,-372)"
     inkscape:label="Extra"
     id="layer3"
     inkscape:groupmode="layer" />
  <g
     transform="translate(0,-372)"
     inkscape:label="Text"
     id="layer2"
     inkscape:groupmode="layer" />
</svg>
