<?xml version="1.0" encoding="UTF-8" standalone="no"?>
<svg
   xmlns:dc="http://purl.org/dc/elements/1.1/"
   xmlns:cc="http://creativecommons.org/ns#"
   xmlns:rdf="http://www.w3.org/1999/02/22-rdf-syntax-ns#"
   xmlns:svg="http://www.w3.org/2000/svg"
   xmlns="http://www.w3.org/2000/svg"
   xmlns:xlink="http://www.w3.org/1999/xlink"
   xmlns:sodipodi="http://sodipodi.sourceforge.net/DTD/sodipodi-0.dtd"
   xmlns:inkscape="http://www.inkscape.org/namespaces/inkscape"
   inkscape:export-ydpi="192"
   inkscape:export-xdpi="192"
   inkscape:export-filename="wpn-twin.png"
   width="128"
   height="128"
   viewBox="0 0 128 128"
   version="1.1"
   id="svg4689"
   inkscape:version="0.92.4 (5da689c313, 2019-01-14)"
   sodipodi:docname="wpn-twin.svg">
  <defs
     id="defs4683">
    <inkscape:path-effect
       effect="powerstroke"
       id="path-effect882"
       is_visible="true"
       offset_points="0.15056052,0.18711328 | 2.6802157,0.35182135 | 3.8815872,0.092606246 | 4.9868432,0.32630739 | 7.8413624,0.23440148"
       sort_points="true"
       interpolator_type="CentripetalCatmullRom"
       interpolator_beta="0.2"
       start_linecap_type="zerowidth"
       linejoin_type="round"
       miter_limit="4"
       scale_width="1"
       end_linecap_type="zerowidth" />
    <inkscape:path-effect
       effect="powerstroke"
       id="path-effect1212"
       is_visible="true"
       offset_points="0.2,0.125 | 3.1961838,0.42886746 | 5.8,0.125"
       sort_points="true"
       interpolator_type="CentripetalCatmullRom"
       interpolator_beta="0.2"
       start_linecap_type="zerowidth"
       linejoin_type="round"
       miter_limit="4"
       scale_width="1"
       end_linecap_type="zerowidth" />
    <inkscape:path-effect
       effect="powerstroke"
       id="path-effect1188"
       is_visible="true"
       offset_points="0.2,0.125 | 3.1961838,0.42886746 | 5.8,0.125"
       sort_points="true"
       interpolator_type="CentripetalCatmullRom"
       interpolator_beta="0.2"
       start_linecap_type="zerowidth"
       linejoin_type="round"
       miter_limit="4"
       scale_width="1"
       end_linecap_type="zerowidth" />
    <inkscape:path-effect
       effect="powerstroke"
       id="path-effect1176"
       is_visible="true"
       offset_points="0.2,0.125 | 3.1961838,0.42886746 | 5.8,0.125"
       sort_points="true"
       interpolator_type="CentripetalCatmullRom"
       interpolator_beta="0.2"
       start_linecap_type="zerowidth"
       linejoin_type="round"
       miter_limit="4"
       scale_width="1"
       end_linecap_type="zerowidth" />
    <inkscape:path-effect
       end_linecap_type="zerowidth"
       scale_width="1"
       miter_limit="4"
       linejoin_type="round"
       start_linecap_type="zerowidth"
       interpolator_beta="0.2"
       interpolator_type="CentripetalCatmullRom"
       sort_points="true"
       offset_points="0.15056052,0.18711328 | 2.6802157,0.35182135 | 3.8815872,0.092606246 | 4.9868432,0.32630739 | 7.8413624,0.23440148"
       is_visible="true"
       id="path-effect1160"
       effect="powerstroke" />
    <inkscape:path-effect
       end_linecap_type="zerowidth"
       scale_width="1"
       miter_limit="4"
       linejoin_type="round"
       start_linecap_type="zerowidth"
       interpolator_beta="0.2"
       interpolator_type="CentripetalCatmullRom"
       sort_points="true"
       offset_points="0.2,2.5 | 0.5,2.5 | 0.98981749,3.7475773"
       is_visible="true"
       id="path-effect1135"
       effect="powerstroke" />
    <inkscape:path-effect
       effect="powerstroke"
       id="path-effect1127"
       is_visible="true"
       offset_points="0.032722164,0.83296351 | 0.85443248,2.4998954 | 1.9788919,0.94529276"
       sort_points="true"
       interpolator_type="CentripetalCatmullRom"
       interpolator_beta="0.2"
       start_linecap_type="zerowidth"
       linejoin_type="round"
       miter_limit="4"
       scale_width="1"
       end_linecap_type="zerowidth" />
    <inkscape:path-effect
       end_linecap_type="zerowidth"
       scale_width="1"
       miter_limit="4"
       linejoin_type="round"
       start_linecap_type="zerowidth"
       interpolator_beta="0.2"
       interpolator_type="CentripetalCatmullRom"
       sort_points="true"
       offset_points="0.032722164,0.83296351 | 0.85443248,2.4998954 | 1.9788919,0.94529276"
       is_visible="true"
       id="path-effect1123"
       effect="powerstroke" />
    <inkscape:path-effect
       effect="powerstroke"
       id="path-effect1088"
       is_visible="true"
       offset_points="0.17177339,3.1644845 | 0.70026496,3.5451077 | 0.70571644,3.5208095 | 0.6953285,3.4888325 | 0.61080048,2.3810778 | 0.61080048,2.3810778 | 0.4978674,2.6773485 | 0.8,2.5"
       sort_points="true"
       interpolator_type="CentripetalCatmullRom"
       interpolator_beta="0.2"
       start_linecap_type="butt"
       linejoin_type="round"
       miter_limit="4"
       scale_width="1"
       end_linecap_type="zerowidth" />
    <inkscape:path-effect
       effect="powerstroke"
       id="path-effect1012"
       is_visible="true"
       offset_points="0.17177339,3.1644845 | 0.70026496,3.5451077 | 0.70026496,3.5451077 | 0.61080048,2.3810778 | 0.61080048,2.3810778 | 0.4978674,2.6773485 | 0.8,2.5"
       sort_points="true"
       interpolator_type="CentripetalCatmullRom"
       interpolator_beta="0.2"
       start_linecap_type="butt"
       linejoin_type="round"
       miter_limit="4"
       scale_width="1"
       end_linecap_type="zerowidth" />
    <inkscape:path-effect
       end_linecap_type="zerowidth"
       scale_width="1"
       miter_limit="4"
       linejoin_type="round"
       start_linecap_type="butt"
       interpolator_beta="0.2"
       interpolator_type="CentripetalCatmullRom"
       sort_points="true"
       offset_points="0.17177339,3.1644845 | 0.70026496,3.5451077 | 0.70571644,3.5208095 | 0.6953285,3.4888325 | 0.61080048,2.3810778 | 0.61080048,2.3810778 | 0.4978674,2.6773485 | 0.8,2.5"
       is_visible="true"
       id="path-effect1008"
       effect="powerstroke" />
    <inkscape:path-effect
       split_items="false"
       oposite_fuse="false"
       fuse_paths="false"
       discard_orig_path="false"
       mode="free"
       is_visible="true"
       id="path-effect969"
       center_point="64,59.642857"
       end_point="64,96.071429"
       start_point="64,22.857143"
       effect="mirror_symmetry" />
    <inkscape:path-effect
       end_linecap_type="zerowidth"
       scale_width="1"
       miter_limit="4"
       linejoin_type="spiro"
       start_linecap_type="zerowidth"
       interpolator_beta="0.75"
       interpolator_type="CentripetalCatmullRom"
       sort_points="true"
       offset_points="3.2312262,1.5584584 | 16.89126,0.89615905"
       is_visible="true"
       id="path-effect965"
       effect="powerstroke" />
    <inkscape:path-effect
       step="1"
       simplify_just_coalesce="false"
       simplify_individual_paths="false"
       helper_size="0"
       smooth_angles="0"
       threshold="0.0032025118"
       steps="4"
       is_visible="true"
       id="path-effect963"
       effect="simplify" />
    <inkscape:path-effect
       message="Use fill-rule evenodd on &lt;b&gt;fill and stroke&lt;/b&gt; dialog if no flatten result after convert clip to paths."
       is_inverse="false"
       hide_clip="false"
       flatten="false"
       inverse="false"
       uri="false"
       is_visible="true"
       id="path-effect883"
       effect="powerclip" />
    <inkscape:path-effect
       effect="mirror_symmetry"
       start_point="64,388"
       end_point="64,484"
       center_point="64,436"
       id="path-effect5128"
       is_visible="true"
       mode="free"
       discard_orig_path="false"
       fuse_paths="false"
       oposite_fuse="false" />
    <inkscape:path-effect
       effect="mirror_symmetry"
       start_point="64,388"
       end_point="64,484"
       center_point="64,436"
       id="path-effect5128-1"
       is_visible="true"
       mode="free"
       discard_orig_path="false"
       fuse_paths="false"
       oposite_fuse="false" />
    <linearGradient
       id="linearGradient887"
       inkscape:collect="always">
      <stop
         id="stop883"
         offset="0"
         style="stop-color:#76d5a3;stop-opacity:1" />
      <stop
         id="stop885"
         offset="1"
         style="stop-color:#3cb215;stop-opacity:1" />
    </linearGradient>
    <linearGradient
       gradientTransform="translate(24.041631,0.35355339)"
       y2="422.26566"
       x2="25.958368"
       y1="389.59012"
       x1="25.958368"
       gradientUnits="userSpaceOnUse"
       id="linearGradient1023"
       xlink:href="#linearGradient887"
       inkscape:collect="always" />
    <linearGradient
       id="linearGradient903-1"
       inkscape:collect="always">
      <stop
         id="stop899-1"
         offset="0"
         style="stop-color:#6f6f6f;stop-opacity:1" />
      <stop
         id="stop901-30"
         offset="1"
         style="stop-color:#494949;stop-opacity:1" />
    </linearGradient>
    <linearGradient
       gradientUnits="userSpaceOnUse"
       y2="355.00003"
       x2="79.121239"
       y1="360.35718"
       x1="70"
       id="linearGradient905-0"
       xlink:href="#linearGradient903-1"
       inkscape:collect="always" />
    <linearGradient
       id="linearGradient903-4"
       inkscape:collect="always">
      <stop
         id="stop899-14"
         offset="0"
         style="stop-color:#0958b8;stop-opacity:1" />
      <stop
         id="stop901-32"
         offset="1"
         style="stop-color:#0a2b8c;stop-opacity:1" />
    </linearGradient>
    <linearGradient
       id="linearGradient887-4"
       inkscape:collect="always">
      <stop
         id="stop883-0"
         offset="0"
         style="stop-color:#fff1b9;stop-opacity:1" />
      <stop
         id="stop885-4"
         offset="1"
         style="stop-color:#e8d376;stop-opacity:1" />
    </linearGradient>
    <linearGradient
       y2="383.01328"
       x2="-8.8858929"
       y1="361.19156"
       x1="-8.8858929"
       gradientTransform="translate(-89.895187,-137.92335)"
       gradientUnits="userSpaceOnUse"
       id="linearGradient1028-4"
       xlink:href="#linearGradient887-4"
       inkscape:collect="always" />
    <linearGradient
       inkscape:collect="always"
       xlink:href="#linearGradient903-4"
       id="linearGradient905-2-8"
       x1="70"
       y1="360.35718"
       x2="79.121239"
       y2="355.00003"
       gradientUnits="userSpaceOnUse"
       gradientTransform="translate(-50,-320.00003)" />
  </defs>
  <sodipodi:namedview
     id="base"
     pagecolor="#d2d2d2"
     bordercolor="#666666"
     borderopacity="1.0"
     inkscape:pageopacity="0"
     inkscape:pageshadow="2"
     inkscape:zoom="3.2261077"
     inkscape:cx="24.758337"
     inkscape:cy="46.587379"
     inkscape:document-units="px"
     inkscape:current-layer="layer4"
     showgrid="false"
     units="px"
     showborder="true"
     inkscape:pagecheckerboard="false"
     inkscape:snap-path-clip="false"
     inkscape:snap-path-mask="false"
     showguides="true"
     inkscape:guide-bbox="true"
     inkscape:window-width="1508"
     inkscape:window-height="1126"
     inkscape:window-x="397"
     inkscape:window-y="39"
     inkscape:window-maximized="0"
     inkscape:showpageshadow="false"
     inkscape:lockguides="false"
     inkscape:snap-grids="false"
     inkscape:document-rotation="0">
    <inkscape:grid
       type="xygrid"
       id="grid5234"
       spacingy="2"
       spacingx="2"
       empspacing="32" />
    <sodipodi:guide
       position="0,128"
       orientation="0,1"
       id="guide859"
       inkscape:label=""
       inkscape:locked="false"
       inkscape:color="rgb(0,0,0)" />
    <sodipodi:guide
       position="128,128"
       orientation="-1,0"
       id="guide861"
       inkscape:label=""
       inkscape:locked="false"
       inkscape:color="rgb(0,0,0)" />
    <sodipodi:guide
       position="128,0"
       orientation="0,1"
       id="guide863"
       inkscape:label=""
       inkscape:locked="false"
       inkscape:color="rgb(0,0,0)" />
    <sodipodi:guide
       position="0,0"
       orientation="-1,0"
       id="guide865"
       inkscape:label=""
       inkscape:locked="false"
       inkscape:color="rgb(0,0,0)" />
    <sodipodi:guide
       position="290.71428,64"
       orientation="0,1"
       id="guide867"
       inkscape:label=""
       inkscape:locked="false"
       inkscape:color="rgb(0,0,0)" />
    <sodipodi:guide
       position="64,303"
       orientation="-1,0"
       id="guide869"
       inkscape:label=""
       inkscape:locked="false"
       inkscape:color="rgb(0,0,0)" />
  </sodipodi:namedview>
  <metadata
     id="metadata4686">
    <rdf:RDF>
      <cc:Work
         rdf:about="">
        <dc:format>image/svg+xml</dc:format>
        <dc:type
           rdf:resource="http://purl.org/dc/dcmitype/StillImage" />
        <dc:title />
        <dc:creator>
          <cc:Agent>
            <dc:title>Weaver</dc:title>
          </cc:Agent>
        </dc:creator>
      </cc:Work>
    </rdf:RDF>
  </metadata>
  <g
     inkscape:label="Background"
     inkscape:groupmode="layer"
     id="layer1"
     transform="translate(0,-536.70831)"
     style="opacity:1" />
  <g
     inkscape:groupmode="layer"
     id="layer4"
     inkscape:label="Base"
     transform="translate(0,-372)">
    <g
       inkscape:label="Background"
       id="layer1-7"
       transform="translate(-148.78108,-274.61841)"
       style="opacity:1;stop-opacity:1" />
    <g
       style="opacity:1;stop-opacity:1"
       id="layer3-0"
       inkscape:label="Extra"
       transform="translate(-148.78108,-109.9101)" />
    <g
       style="opacity:1;stop-opacity:1"
       id="layer2-9"
       inkscape:label="Text"
       transform="translate(-148.78108,-109.9101)" />
    <g
       id="g885">
      <path
         style="opacity:1;vector-effect:none;fill:#000000;fill-opacity:1;fill-rule:nonzero;stroke:#000000;stroke-width:0.25;stroke-linecap:round;stroke-linejoin:round;stroke-miterlimit:4;stroke-dasharray:none;stroke-dashoffset:0;stroke-opacity:1"
         d="m 49.205675,415.28128 c 0.192048,-0.11172 0.696362,-0.15529 1.149569,-0.65596 0.670038,-0.74019 1.662342,-2.59981 2.84201,-4.70289 0.871855,-1.55433 1.789004,-3.1309 2.925086,-4.82781 1.065524,-1.59153 2.231167,-3.14996 3.607184,-4.80471 0.609838,-0.73344 1.23953,-1.45984 1.889216,-2.18577 0.853427,-0.95355 1.880391,-2.06097 3.148693,-3.35706 2.540722,-2.59871 5.223422,-4.99292 8.213112,-7.10051 3.965349,-2.79538 7.841312,-4.35447 8.768824,-5.32107 0.384716,-0.40098 0.318092,-0.93617 0.385543,-1.12356 -0.08238,-0.14673 -0.07246,-0.71512 -0.527884,-0.90238 -1.209272,-0.49725 -5.699033,0.34064 -10.721987,3.23665 -3.641197,2.09934 -6.930955,4.84944 -9.731607,7.70009 -1.361688,1.387 -2.475404,2.60749 -3.398489,3.68341 -0.701573,0.81782 -1.38296,1.6574 -2.034631,2.51727 -1.471767,1.94197 -2.692701,3.85577 -3.703748,5.79846 -1.065126,2.04659 -1.824832,3.98931 -2.372239,5.74682 -0.739743,2.375 -1.106341,4.4661 -1.017048,5.32809 0.06246,0.60298 0.481858,0.80843 0.578396,0.97093 z"
         id="path1116"
         inkscape:connector-curvature="0"
         sodipodi:nodetypes="csc" />
      <path
         id="path1086"
         style="opacity:1;vector-effect:none;fill:#000000;fill-opacity:1;fill-rule:nonzero;stroke:#000000;stroke-width:0.25;stroke-linecap:round;stroke-linejoin:round;stroke-miterlimit:4;stroke-dasharray:none;stroke-dashoffset:0;stroke-opacity:1"
         d="m 60.807549,399.29491 -0.01019,0.013 -0.115032,0.1344 c 3.018462,2.91195 2.918873,2.89498 7.441698,7.47696 8.219862,8.32738 14.042037,14.86381 19.245044,22.08202 -1.3e-4,-1.8e-4 0.103096,0.14308 0.102969,0.14288 2.434425,3.3846 4.109702,5.99283 5.050172,7.54791 0.331765,1.15644 1.530742,6.0813 1.73534,6.99024 0.04967,0.22064 0.04708,0.27514 0.09671,0.40602 0.05184,0.13675 0.08578,0.18671 0.209895,0.38949 0.289469,0.47299 1.068953,1.62658 1.966748,3.04101 0.734077,1.1565 1.443084,2.31792 2.170324,3.56388 1.283531,2.19904 2.788034,4.89217 4.411354,8.3359 1.58537,3.36321 2.73029,6.28491 3.36441,7.99072 -0.0295,-1.89482 -0.0929,-5.26713 -0.36828,-9.23842 -0.27965,-4.0331 -0.69859,-7.51188 -1.13717,-10.2235 -0.24977,-1.54431 -0.5342,-3.07695 -0.84555,-4.54061 -0.39063,-1.83641 -0.76898,-3.31057 -0.95342,-3.91347 -0.0762,-0.24925 -0.0957,-0.31919 -0.16607,-0.45541 -0.0671,-0.13001 -0.11172,-0.16899 -0.2462,-0.35594 -0.56099,-0.77994 -3.798832,-4.80537 -4.595932,-5.72342 -0.816986,-1.66863 -2.330753,-4.7339 -4.607384,-8.41885 5.4e-5,9e-5 -0.09853,-0.15847 -0.09849,-0.15839 -4.674257,-7.52926 -10.977331,-15.48376 -18.844514,-23.80009 -4.350334,-4.5987 -4.680673,-4.87264 -7.666792,-7.71867 l -0.19166,0.17752 -0.02009,0.0197 c -1.645229,0.99514 -4.648942,3.95187 -5.927988,6.2348 z"
         inkscape:connector-curvature="0"
         sodipodi:nodetypes="cccscccccccssccccccccccscccc" />
      <path
         id="path1133"
         style="opacity:1;vector-effect:none;fill:#000000;fill-opacity:1;fill-rule:nonzero;stroke:#000000;stroke-width:0.25;stroke-linecap:round;stroke-linejoin:round;stroke-miterlimit:4;stroke-dasharray:none;stroke-dashoffset:0;stroke-opacity:1"
         d="m 37.9486,378.08869 c 1.530533,0.82805 0.724166,2.93167 1.939399,3.51277 1.781722,0.87859 5.743621,3.46685 7.228767,4.85647 2.061774,1.82989 5.543091,5.33172 7.644591,7.83439 0.966603,1.15112 2.556619,-2.06858 3.724813,-3.09645 0.901318,-1.36334 4.174765,-3.1468 3.169438,-3.96359 -2.286271,-1.8575 -9.027438,-5.85155 -11.021113,-7.1292 -1.112466,-0.71293 -4.508067,-2.87559 -6.503347,-4.09852 -1.260728,-0.77271 -2.888451,-1.02512 -4.228733,-0.26878 -0.899047,0.5074 -1.785912,1.28697 -1.953805,2.35291 z"
         inkscape:connector-curvature="0"
         sodipodi:nodetypes="cccscsssscc" />
      <path
         id="path1153"
         style="opacity:1;vector-effect:none;fill:#333333;fill-opacity:1;fill-rule:nonzero;stroke:none;stroke-width:0.22782899;stroke-linecap:round;stroke-linejoin:round;stroke-miterlimit:4;stroke-dasharray:none;stroke-dashoffset:0;stroke-opacity:1"
         d="m 92.334747,411.08992 c -0.01959,1.30212 -0.09586,3.63255 -0.181283,7.71253 -0.131933,6.30172 -0.391274,23.65396 -3.252634,38.64215 -1.035947,2.14716 -2.330948,4.51828 -3.380306,6.75305 a 0.34049405,0.40318666 59.397658 0 0 -0.02622,0.0752 c -0.336379,1.44961 -0.612542,3.26349 -0.770852,4.225 -0.119349,0.72487 -0.215334,1.33104 -0.328688,1.9673 -0.877361,4.20503 -2.390538,10.55184 -3.511549,15.1455 -0.925688,3.79327 -1.734962,7.01016 -2.099032,8.40741 -0.109552,0.42044 -0.167747,0.63374 -0.171596,0.63269 l 0.153511,0.10484 c 0.0513,-0.036 0.114423,-0.0862 0.187777,-0.14868 0.07437,-0.0634 0.160405,-0.14035 0.256899,-0.22974 0.195509,-0.1811 0.435438,-0.41448 0.711556,-0.69219 0.561084,-0.5643 1.276921,-1.31691 2.093332,-2.20805 1.599133,-1.74551 3.683085,-4.13088 5.836717,-6.80642 1.966888,-2.44354 4.17759,-5.36048 6.058935,-8.26049 1.563232,-2.40965 3.039717,-5.02444 3.805731,-7.29915 0.03792,-0.11259 0.07437,-0.22512 0.109191,-0.33745 0.250247,-0.57193 0.391891,-1.19658 0.486165,-2.00211 0.07398,-0.63216 0.109629,-1.30904 0.209484,-1.95814 a 0.00100579,0.03674892 5.1509792 0 0 0.0022,-0.0189 c 0.167553,-1.63981 0.315595,-3.26796 0.414889,-4.79127 2.796174,-8.57122 3.841454,-17.48853 4.337564,-24.44694 0.5017,-7.03683 0.55269,-14.34695 0.55931,-17.04387 0.0103,-4.20745 -0.0896,-6.42301 -0.10467,-7.68236 -0.0803,1.6027 -0.21334,3.13176 -0.36405,7.67401 -0.0776,2.33703 -0.2704,10.35344 -0.7909,16.99984 -0.54398,6.94628 -1.62013,15.8119 -4.412778,24.29844 a 0.45173003,0.31503499 66.300893 0 0 -0.01883,0.0952 c -0.124052,1.49304 -0.266759,3.19613 -0.403945,4.81834 -0.09182,0.7034 -0.106985,1.38059 -0.157073,1.98241 -0.0644,0.77384 -0.171567,1.33148 -0.367228,1.83542 a 0.00327108,0.06804599 22.531911 0 0 -0.01089,0.0303 c -0.03408,0.11309 -0.07,0.22673 -0.107588,0.34073 -0.725278,2.19988 -2.144351,4.77605 -3.674721,7.19261 -1.833278,2.89487 -3.99782,5.83218 -5.920689,8.29606 -2.105995,2.69853 -4.145244,5.11586 -5.706955,6.88583 -0.798054,0.90448 -1.495869,1.66777 -2.042333,2.24136 -0.268858,0.2822 -0.501225,0.51862 -0.689513,0.70187 -0.09292,0.0904 -0.174801,0.16762 -0.244729,0.23071 -0.06952,0.0627 -0.12592,0.11033 -0.168974,0.14301 l 0.15351,0.10484 c -0.0039,-0.001 0.05015,-0.21552 0.159893,-0.63602 0.452444,-1.73355 1.763185,-6.64561 2.21563,-8.37916 1.213886,-4.61753 2.828643,-10.84818 3.80093,-15.0924 0.160756,-0.61945 0.302112,-1.26381 0.436359,-1.97273 0.171588,-0.9061 0.489259,-2.78291 0.806557,-4.13523 1.047364,-2.20713 2.333335,-4.58758 3.338094,-6.77791 a 0.27691515,0.39882512 52.726388 0 0 0.02747,-0.0848 c 2.840062,-15.13275 2.970456,-32.46471 2.939239,-38.81717 -0.01898,-3.86299 -0.157763,-6.6456 -0.192931,-7.71553 z"
         inkscape:connector-curvature="0"
         sodipodi:nodetypes="cccaccccc"
         inkscape:path-effect="#path-effect1160"
         inkscape:original-d="m 92.334747,411.08992 c 0.154064,17.29333 -0.585553,33.22648 -3.094513,46.46672 -1.076982,2.29118 -2.298058,4.5151 -3.376983,6.80266 -0.477021,2.0367 -0.729314,4.12949 -1.175891,6.16993 -1.777552,8.12174 -5.979315,24.14659 -5.979315,24.14659 1.499977,-1.091 16.148176,-17.28733 18.810688,-26.01645 0.51186,-1.22985 0.428396,-2.60196 0.613437,-3.90164 0.15025,-1.60912 0.292182,-3.21919 0.411166,-4.83093 5.072824,-15.46351 4.886074,-33.22917 5.187864,-49.09691"
         transform="matrix(0.85142756,-0.85142756,0.70710678,0.70710678,-309.15015,190.04948)" />
      <path
         sodipodi:nodetypes="csc"
         inkscape:connector-curvature="0"
         id="path874"
         d="m 77.690148,456.19609 c -0.192049,0.11172 -0.696362,0.1553 -1.149721,0.65571 -0.670036,0.74018 -1.662341,2.59981 -2.842008,4.70288 -0.871855,1.55433 -1.788998,3.13091 -2.925087,4.82781 -1.065523,1.59153 -2.231165,3.14996 -3.607183,4.80472 -0.609839,0.73344 -1.239531,1.45983 -1.88921,2.18577 -0.853426,0.95355 -1.880391,2.06097 -3.148699,3.35705 -2.540723,2.59871 -5.223416,4.99293 -8.213106,7.10052 -3.965349,2.79538 -7.841319,4.35446 -8.768824,5.32107 -0.384716,0.40098 -0.318099,0.93616 -0.38555,1.12355 0.0824,0.14672 0.07246,0.71512 0.527911,0.90237 1.209273,0.49725 5.699035,-0.34065 10.721987,-3.23665 3.641442,-2.09892 6.930956,-4.84945 9.731607,-7.70009 1.361689,-1.387 2.475405,-2.60749 3.398491,-3.68341 0.701572,-0.81782 1.38296,-1.6574 2.034629,-2.51727 1.471768,-1.94197 2.692702,-3.85577 3.70375,-5.79846 1.065125,-2.04659 1.824831,-3.98931 2.372238,-5.74682 0.739743,-2.375 1.106341,-4.4661 1.017048,-5.32809 -0.06246,-0.60299 -0.481859,-0.80843 -0.578396,-0.97094 z"
         style="opacity:1;vector-effect:none;fill:#000000;fill-opacity:1;fill-rule:nonzero;stroke:#000000;stroke-width:0.25;stroke-linecap:round;stroke-linejoin:round;stroke-miterlimit:4;stroke-dasharray:none;stroke-dashoffset:0;stroke-opacity:1" />
      <path
         sodipodi:nodetypes="cccscccccccssccccccccccscccc"
         inkscape:connector-curvature="0"
         d="m 64.984082,471.65983 0.01019,-0.013 0.115031,-0.13441 c -3.018455,-2.91193 -2.918873,-2.89497 -7.441698,-7.47695 -8.219862,-8.32738 -14.042037,-14.86381 -19.245044,-22.08202 1.38e-4,1.8e-4 -0.103103,-0.14307 -0.102961,-0.14288 -2.434426,-3.38459 -4.109702,-5.99283 -5.050178,-7.54792 -0.331765,-1.15644 -1.530742,-6.0813 -1.735339,-6.99024 -0.04968,-0.22064 -0.04708,-0.27514 -0.09671,-0.40602 -0.05184,-0.13674 -0.08577,-0.1867 -0.20989,-0.38948 -0.289467,-0.47299 -1.068951,-1.62658 -1.966748,-3.04101 -0.73407,-1.15651 -1.443092,-2.31792 -2.170331,-3.56388 -1.28353,-2.19904 -2.788034,-4.89218 -4.411352,-8.3359 -1.585373,-3.36322 -2.730284,-6.28491 -3.364411,-7.99072 0.02949,1.89482 0.09291,5.26713 0.368282,9.23843 0.279651,4.03309 0.698585,7.51187 1.137167,10.22349 0.249776,1.54431 0.534201,3.07695 0.845549,4.54061 0.390636,1.83641 0.768983,3.31057 0.953429,3.91347 0.07624,0.24924 0.09573,0.31918 0.166064,0.45542 0.06708,0.13 0.111716,0.16897 0.246193,0.35593 0.560996,0.77994 3.798835,4.80537 4.595942,5.72342 0.816978,1.66863 2.330746,4.7339 4.607377,8.41885 -4.7e-5,-8e-5 0.09854,0.15847 0.09849,0.15838 4.674256,7.52926 10.977331,15.48377 18.844514,23.80009 4.350333,4.5987 4.680677,4.87265 7.666791,7.71867 l 0.19166,-0.17752 0.0201,-0.0197 c 1.645228,-0.99514 4.648941,-3.95187 5.927988,-6.2348 z"
         style="opacity:1;vector-effect:none;fill:#000000;fill-opacity:1;fill-rule:nonzero;stroke:#000000;stroke-width:0.25;stroke-linecap:round;stroke-linejoin:round;stroke-miterlimit:4;stroke-dasharray:none;stroke-dashoffset:0;stroke-opacity:1"
         id="path876" />
      <path
         sodipodi:nodetypes="cccscsssscc"
         inkscape:connector-curvature="0"
         d="m 87.843031,492.86605 c -1.530533,-0.82805 -0.724166,-2.93168 -1.939392,-3.51277 -1.781729,-0.87859 -5.743629,-3.46685 -7.228774,-4.85647 -2.061775,-1.82989 -5.543092,-5.33172 -7.644578,-7.83437 -0.966616,-1.15115 -2.556632,2.06855 -3.724826,3.09643 -0.901319,1.36334 -4.174765,3.1468 -3.169438,3.96359 2.286271,1.8575 9.027438,5.85154 11.021113,7.1292 1.112466,0.71293 4.508067,2.87558 6.503346,4.09852 1.260741,0.77273 2.888459,1.02512 4.228741,0.26878 0.89904,-0.5074 1.785905,-1.28697 1.953799,-2.35292 z"
         style="opacity:1;vector-effect:none;fill:#000000;fill-opacity:1;fill-rule:nonzero;stroke:#000000;stroke-width:0.25;stroke-linecap:round;stroke-linejoin:round;stroke-miterlimit:4;stroke-dasharray:none;stroke-dashoffset:0;stroke-opacity:1"
         id="path878" />
      <path
         transform="matrix(-0.85142756,0.85142756,-0.70710678,-0.70710678,434.94179,680.90526)"
         inkscape:original-d="m 92.334747,411.08992 c 0.154064,17.29333 -0.585553,33.22648 -3.094513,46.46672 -1.076982,2.29118 -2.298058,4.5151 -3.376983,6.80266 -0.477021,2.0367 -0.729314,4.12949 -1.175891,6.16993 -1.777552,8.12174 -5.979315,24.14659 -5.979315,24.14659 1.499977,-1.091 16.148176,-17.28733 18.810688,-26.01645 0.51186,-1.22985 0.428396,-2.60196 0.613437,-3.90164 0.15025,-1.60912 0.292182,-3.21919 0.411166,-4.83093 5.072824,-15.46351 4.886074,-33.22917 5.187864,-49.09691"
         inkscape:path-effect="#path-effect882"
         sodipodi:nodetypes="cccaccccc"
         inkscape:connector-curvature="0"
         d="m 92.334747,411.08992 c -0.01959,1.30212 -0.09586,3.63255 -0.181283,7.71253 -0.131933,6.30172 -0.391274,23.65396 -3.252634,38.64215 -1.035947,2.14716 -2.330948,4.51828 -3.380306,6.75305 a 0.34049405,0.40318666 59.397658 0 0 -0.02622,0.0752 c -0.336379,1.44961 -0.612542,3.26349 -0.770852,4.225 -0.119349,0.72487 -0.215334,1.33104 -0.328688,1.9673 -0.877361,4.20503 -2.390538,10.55184 -3.511549,15.1455 -0.925688,3.79327 -1.734962,7.01016 -2.099032,8.40741 -0.109552,0.42044 -0.167747,0.63374 -0.171596,0.63269 l 0.153511,0.10484 c 0.0513,-0.036 0.114423,-0.0862 0.187777,-0.14868 0.07437,-0.0634 0.160405,-0.14035 0.256899,-0.22974 0.195509,-0.1811 0.435438,-0.41448 0.711556,-0.69219 0.561084,-0.5643 1.276921,-1.31691 2.093332,-2.20805 1.599133,-1.74551 3.683085,-4.13088 5.836717,-6.80642 1.966888,-2.44354 4.17759,-5.36048 6.058935,-8.26049 1.563232,-2.40965 3.039717,-5.02444 3.805731,-7.29915 0.03792,-0.11259 0.07437,-0.22512 0.109191,-0.33745 0.250247,-0.57193 0.391891,-1.19658 0.486165,-2.00211 0.07398,-0.63216 0.109629,-1.30904 0.209484,-1.95814 a 0.00100579,0.03674892 5.1509792 0 0 0.0022,-0.0189 c 0.167553,-1.63981 0.315595,-3.26796 0.414889,-4.79127 2.796174,-8.57122 3.841454,-17.48853 4.337564,-24.44694 0.5017,-7.03683 0.55269,-14.34695 0.55931,-17.04387 0.0103,-4.20745 -0.0896,-6.42301 -0.10467,-7.68236 -0.0803,1.6027 -0.21334,3.13176 -0.36405,7.67401 -0.0776,2.33703 -0.2704,10.35344 -0.7909,16.99984 -0.54398,6.94628 -1.62013,15.8119 -4.412778,24.29844 a 0.45173003,0.31503499 66.300893 0 0 -0.01883,0.0952 c -0.124052,1.49304 -0.266759,3.19613 -0.403945,4.81834 -0.09182,0.7034 -0.106985,1.38059 -0.157073,1.98241 -0.0644,0.77384 -0.171567,1.33148 -0.367228,1.83542 a 0.00327108,0.06804599 22.531911 0 0 -0.01089,0.0303 c -0.03408,0.11309 -0.07,0.22673 -0.107588,0.34073 -0.725278,2.19988 -2.144351,4.77605 -3.674721,7.19261 -1.833278,2.89487 -3.99782,5.83218 -5.920689,8.29606 -2.105995,2.69853 -4.145244,5.11586 -5.706955,6.88583 -0.798054,0.90448 -1.495869,1.66777 -2.042333,2.24136 -0.268858,0.2822 -0.501225,0.51862 -0.689513,0.70187 -0.09292,0.0904 -0.174801,0.16762 -0.244729,0.23071 -0.06952,0.0627 -0.12592,0.11033 -0.168974,0.14301 l 0.15351,0.10484 c -0.0039,-0.001 0.05015,-0.21552 0.159893,-0.63602 0.452444,-1.73355 1.763185,-6.64561 2.21563,-8.37916 1.213886,-4.61753 2.828643,-10.84818 3.80093,-15.0924 0.160756,-0.61945 0.302112,-1.26381 0.436359,-1.97273 0.171588,-0.9061 0.489259,-2.78291 0.806557,-4.13523 1.047364,-2.20713 2.333335,-4.58758 3.338094,-6.77791 a 0.27691515,0.39882512 52.726388 0 0 0.02747,-0.0848 c 2.840062,-15.13275 2.970456,-32.46471 2.939239,-38.81717 -0.01898,-3.86299 -0.157763,-6.6456 -0.192931,-7.71553 z"
         style="opacity:1;vector-effect:none;fill:#333333;fill-opacity:1;fill-rule:nonzero;stroke:none;stroke-width:0.22782899;stroke-linecap:round;stroke-linejoin:round;stroke-miterlimit:4;stroke-dasharray:none;stroke-dashoffset:0;stroke-opacity:1"
         id="path880" />
    </g>
    <rect
       style="opacity:1;vector-effect:none;fill:none;fill-opacity:1;stroke:#000000;stroke-width:5;stroke-linecap:round;stroke-linejoin:round;stroke-miterlimit:4;stroke-dasharray:none;stroke-dashoffset:0;stroke-opacity:1"
       id="rect886"
       width="207.06685"
       height="207.06685"
       x="-366.57715"
       y="250.01994"
       transform="rotate(-45)" />
  </g>
  <g
     inkscape:groupmode="layer"
     id="layer5"
     inkscape:label="Detail"
     transform="translate(0,-372)" />
  <g
     inkscape:groupmode="layer"
     id="layer3"
     inkscape:label="Extra"
     transform="translate(0,-372)" />
  <g
     inkscape:groupmode="layer"
     id="layer2"
     inkscape:label="Text"
     transform="translate(0,-372)" />
</svg>
