<?xml version="1.0" encoding="UTF-8" standalone="no"?>
<svg
   xmlns:dc="http://purl.org/dc/elements/1.1/"
   xmlns:cc="http://creativecommons.org/ns#"
   xmlns:rdf="http://www.w3.org/1999/02/22-rdf-syntax-ns#"
   xmlns:svg="http://www.w3.org/2000/svg"
   xmlns="http://www.w3.org/2000/svg"
   xmlns:xlink="http://www.w3.org/1999/xlink"
   xmlns:sodipodi="http://sodipodi.sourceforge.net/DTD/sodipodi-0.dtd"
   xmlns:inkscape="http://www.inkscape.org/namespaces/inkscape"
   sodipodi:docname="wpn-cross-rifle.svg"
   inkscape:version="0.92.4 (5da689c313, 2019-01-14)"
   id="svg4689"
   version="1.1"
   viewBox="0 0 128 128"
   height="128"
   width="128"
   inkscape:export-filename="wpn-crossrifle.png"
   inkscape:export-xdpi="192"
   inkscape:export-ydpi="192">
  <defs
     id="defs4683">
    <inkscape:path-effect
       effect="powerstroke"
       id="path-effect1121"
       is_visible="true"
       offset_points="0.0018695645,2.6244024 | 0.22719079,1.0810743 | 1.6516272,1.4375867 | 2.1818199,1.9094186 | 2.9421071,1.7410847"
       sort_points="true"
       interpolator_type="CubicBezierFit"
       interpolator_beta="0.2"
       start_linecap_type="round"
       linejoin_type="extrp_arc"
       miter_limit="4"
       end_linecap_type="butt" />
    <inkscape:path-effect
       effect="mirror_symmetry"
       start_point="0,372"
       end_point="128,500"
       center_point="64,436"
       id="path-effect907"
       is_visible="true"
       mode="free"
       discard_orig_path="false"
       fuse_paths="false"
       oposite_fuse="false" />
    <inkscape:path-effect
       effect="powerstroke"
       id="path-effect905"
       is_visible="true"
       offset_points="0.32598227,0.26386547"
       sort_points="true"
       interpolator_type="CubicBezierJohan"
       interpolator_beta="0.2"
       start_linecap_type="butt"
       linejoin_type="extrp_arc"
       miter_limit="4"
       end_linecap_type="zerowidth" />
    <inkscape:path-effect
       oposite_fuse="false"
       fuse_paths="false"
       discard_orig_path="false"
       mode="free"
       is_visible="true"
       id="path-effect899"
       center_point="64,436"
       end_point="128,500"
       start_point="0,372"
       effect="mirror_symmetry" />
    <inkscape:path-effect
       end_linecap_type="zerowidth"
       miter_limit="4"
       linejoin_type="extrp_arc"
       start_linecap_type="round"
       interpolator_beta="0.2"
       interpolator_type="CubicBezierFit"
       sort_points="true"
       offset_points="0.098393317,4.3718065 | 0.97522333,1.3081932 | 1.1929603,0.81512777"
       is_visible="true"
       id="path-effect897"
       effect="powerstroke" />
    <inkscape:path-effect
       oposite_fuse="false"
       fuse_paths="false"
       discard_orig_path="false"
       mode="free"
       is_visible="true"
       id="path-effect893"
       center_point="64,436"
       end_point="128,500"
       start_point="0,372"
       effect="mirror_symmetry" />
    <inkscape:path-effect
       end_linecap_type="zerowidth"
       miter_limit="4"
       linejoin_type="extrp_arc"
       start_linecap_type="butt"
       interpolator_beta="0.2"
       interpolator_type="CubicBezierFit"
       sort_points="true"
       offset_points="0.11369258,2.4862991 | 0.95365104,2.4312212 | 1.481078,1.9564539"
       is_visible="true"
       id="path-effect891"
       effect="powerstroke" />
    <inkscape:path-effect
       effect="powerstroke"
       id="path-effect887"
       is_visible="true"
       offset_points="0.098393317,4.3718065 | 0.97522333,1.3081932 | 1.1929603,0.81512777"
       sort_points="true"
       interpolator_type="CubicBezierFit"
       interpolator_beta="0.2"
       start_linecap_type="round"
       linejoin_type="extrp_arc"
       miter_limit="4"
       end_linecap_type="zerowidth" />
    <inkscape:path-effect
       effect="mirror_symmetry"
       start_point="0,372"
       end_point="128,500"
       center_point="64,436"
       id="path-effect871"
       is_visible="true"
       mode="free"
       discard_orig_path="false"
       fuse_paths="false"
       oposite_fuse="false" />
    <inkscape:path-effect
       oposite_fuse="false"
       fuse_paths="false"
       discard_orig_path="false"
       mode="free"
       is_visible="true"
       id="path-effect5128"
       center_point="64,436"
       end_point="64,484"
       start_point="64,388"
       effect="mirror_symmetry" />
    <inkscape:path-effect
       oposite_fuse="false"
       fuse_paths="false"
       discard_orig_path="false"
       mode="free"
       is_visible="true"
       id="path-effect5128-1"
       center_point="64,436"
       end_point="64,484"
       start_point="64,388"
       effect="mirror_symmetry" />
    <linearGradient
       inkscape:collect="always"
       id="linearGradient887">
      <stop
         style="stop-color:#76d5a3;stop-opacity:1"
         offset="0"
         id="stop883" />
      <stop
         style="stop-color:#3cb215;stop-opacity:1"
         offset="1"
         id="stop885" />
    </linearGradient>
    <linearGradient
       inkscape:collect="always"
       xlink:href="#linearGradient887"
       id="linearGradient1023"
       gradientUnits="userSpaceOnUse"
       x1="25.958368"
       y1="389.59012"
       x2="25.958368"
       y2="422.26566"
       gradientTransform="translate(24.041631,0.35355339)" />
    <linearGradient
       inkscape:collect="always"
       id="linearGradient903-1">
      <stop
         style="stop-color:#6f6f6f;stop-opacity:1"
         offset="0"
         id="stop899-1" />
      <stop
         style="stop-color:#494949;stop-opacity:1"
         offset="1"
         id="stop901-30" />
    </linearGradient>
    <linearGradient
       inkscape:collect="always"
       xlink:href="#linearGradient903-1"
       id="linearGradient905-0"
       x1="70"
       y1="360.35718"
       x2="79.121239"
       y2="355.00003"
       gradientUnits="userSpaceOnUse" />
    <linearGradient
       inkscape:collect="always"
       id="linearGradient903-4">
      <stop
         style="stop-color:#0958b8;stop-opacity:1"
         offset="0"
         id="stop899-14" />
      <stop
         style="stop-color:#0a2b8c;stop-opacity:1"
         offset="1"
         id="stop901-32" />
    </linearGradient>
    <linearGradient
       inkscape:collect="always"
       id="linearGradient887-4">
      <stop
         style="stop-color:#fff1b9;stop-opacity:1"
         offset="0"
         id="stop883-0" />
      <stop
         style="stop-color:#e8d376;stop-opacity:1"
         offset="1"
         id="stop885-4" />
    </linearGradient>
    <linearGradient
       inkscape:collect="always"
       xlink:href="#linearGradient887-4"
       id="linearGradient1028-4"
       gradientUnits="userSpaceOnUse"
       gradientTransform="translate(-89.895187,-137.92335)"
       x1="-8.8858929"
       y1="361.19156"
       x2="-8.8858929"
       y2="383.01328" />
    <linearGradient
       gradientTransform="translate(-50,-320.00003)"
       gradientUnits="userSpaceOnUse"
       y2="355.00003"
       x2="79.121239"
       y1="360.35718"
       x1="70"
       id="linearGradient905-2-8"
       xlink:href="#linearGradient903-4"
       inkscape:collect="always" />
  </defs>
  <sodipodi:namedview
     inkscape:document-rotation="0"
     inkscape:snap-grids="false"
     inkscape:lockguides="false"
     inkscape:showpageshadow="false"
     inkscape:window-maximized="0"
     inkscape:window-y="-1"
     inkscape:window-x="411"
     inkscape:window-height="1195"
     inkscape:window-width="1493"
     inkscape:guide-bbox="true"
     showguides="false"
     inkscape:snap-path-mask="false"
     inkscape:snap-path-clip="false"
     inkscape:pagecheckerboard="false"
     showborder="true"
     units="px"
     showgrid="false"
     inkscape:current-layer="layer4"
     inkscape:document-units="px"
     inkscape:cy="71.201566"
     inkscape:cx="52.51253"
     inkscape:zoom="5.6"
     inkscape:pageshadow="2"
     inkscape:pageopacity="0"
     borderopacity="1.0"
     bordercolor="#666666"
     pagecolor="#d2d2d2"
     id="base"
     objecttolerance="9"
     guidetolerance="9"
     inkscape:snap-to-guides="true">
    <inkscape:grid
       empspacing="32"
       spacingx="2"
       spacingy="2"
       id="grid5234"
       type="xygrid" />
    <sodipodi:guide
       inkscape:color="rgb(0,0,0)"
       inkscape:locked="false"
       inkscape:label=""
       id="guide859"
       orientation="0,1"
       position="0,128" />
    <sodipodi:guide
       inkscape:color="rgb(0,0,0)"
       inkscape:locked="false"
       inkscape:label=""
       id="guide861"
       orientation="-1,0"
       position="128,128" />
    <sodipodi:guide
       inkscape:color="rgb(0,0,0)"
       inkscape:locked="false"
       inkscape:label=""
       id="guide863"
       orientation="0,1"
       position="128,0" />
    <sodipodi:guide
       inkscape:color="rgb(0,0,0)"
       inkscape:locked="false"
       inkscape:label=""
       id="guide865"
       orientation="-1,0"
       position="0,0" />
    <sodipodi:guide
       inkscape:color="rgb(0,0,0)"
       inkscape:locked="false"
       inkscape:label=""
       id="guide867"
       orientation="0,1"
       position="290.71428,64" />
    <sodipodi:guide
       inkscape:color="rgb(0,0,0)"
       inkscape:locked="false"
       inkscape:label=""
       id="guide869"
       orientation="-1,0"
       position="64,303" />
    <sodipodi:guide
       position="0,128"
       orientation="0.70710678,0.70710678"
       id="guide901"
       inkscape:locked="false"
       inkscape:label=""
       inkscape:color="rgb(0,0,255)" />
    <sodipodi:guide
       position="98.660714,58.883928"
       orientation="0.70710678,0.70710678"
       id="guide1123"
       inkscape:locked="false"
       inkscape:label=""
       inkscape:color="rgb(0,0,255)" />
  </sodipodi:namedview>
  <metadata
     id="metadata4686">
    <rdf:RDF>
      <cc:Work
         rdf:about="">
        <dc:format>image/svg+xml</dc:format>
        <dc:type
           rdf:resource="http://purl.org/dc/dcmitype/StillImage" />
        <dc:title />
        <dc:creator>
          <cc:Agent>
            <dc:title>Weaver</dc:title>
          </cc:Agent>
        </dc:creator>
      </cc:Work>
    </rdf:RDF>
  </metadata>
  <g
     style="opacity:1"
     transform="translate(0,-536.70831)"
     id="layer1"
     inkscape:groupmode="layer"
     inkscape:label="Background" />
  <g
     transform="translate(0,-372)"
     inkscape:label="Base"
     id="layer4"
     inkscape:groupmode="layer">
    <g
       style="opacity:1;stop-opacity:1"
       transform="translate(-148.78108,-274.61841)"
       id="layer1-7"
       inkscape:label="Background" />
    <g
       transform="translate(-148.78108,-109.9101)"
       inkscape:label="Extra"
       id="layer3-0"
       style="opacity:1;stop-opacity:1" />
    <g
       transform="translate(-148.78108,-109.9101)"
       inkscape:label="Text"
       id="layer2-9"
       style="opacity:1;stop-opacity:1" />
    <circle
       style="opacity:1;fill:#c18e1c;fill-opacity:1;stroke:#000000;stroke-width:0.25;stroke-linecap:round;stroke-linejoin:round;stop-opacity:1"
       id="circle2495"
       cx="-22.036755"
       cy="389.54895"
       r="9.0913725" />
    <circle
       r="9.0913725"
       cy="413.01968"
       cx="-22.036755"
       id="circle2544"
       style="opacity:1;fill:#3db217;fill-opacity:1;stroke:#000000;stroke-width:0.25;stroke-linecap:round;stroke-linejoin:round;stop-opacity:1" />
    <circle
       style="opacity:1;fill:#6f6f6f;fill-opacity:1;stroke:#000000;stroke-width:0.25;stroke-linecap:round;stroke-linejoin:round;stop-opacity:1"
       id="circle2546"
       cx="-22.036755"
       cy="436.49042"
       r="9.0913725" />
    <circle
       r="9.0913725"
       cy="459.96112"
       cx="-22.036755"
       id="circle2548"
       style="opacity:1;fill:#ba3420;fill-opacity:1;stroke:#000000;stroke-width:0.25;stroke-linecap:round;stroke-linejoin:round;stop-opacity:1" />
    <circle
       style="font-variation-settings:normal;opacity:1;vector-effect:none;fill:#0958b8;fill-opacity:1;stroke:#000000;stroke-width:0.025;stroke-linecap:round;stroke-linejoin:round;stroke-miterlimit:4;stroke-dasharray:none;stroke-dashoffset:0;stroke-opacity:1;stop-color:#000000;stop-opacity:1"
       id="circle2550"
       cx="-22.036755"
       cy="483.43185"
       r="9.0913725" />
    <path
       inkscape:connector-curvature="0"
       d="m -38.63846,389.3883 a 9.0913725,9.0913725 0 0 1 -9.091372,9.09138 9.0913725,9.0913725 0 0 1 -9.091373,-9.09138 9.0913725,9.0913725 0 0 1 9.091373,-9.09137 9.0913725,9.0913725 0 0 1 9.091372,9.09137"
       style="opacity:1;fill:none;fill-opacity:1;stroke:#000000;stroke-width:5;stroke-linecap:round;stroke-linejoin:round;stroke-miterlimit:4;stroke-dasharray:none"
       id="circle2495-7" />
    <path
       style="opacity:1;vector-effect:none;fill:#000000;fill-opacity:1;fill-rule:nonzero;stroke:none;stroke-width:5;stroke-linecap:round;stroke-linejoin:round;stroke-miterlimit:4;stroke-dasharray:none;stroke-dashoffset:0;stroke-opacity:1;paint-order:normal"
       d="m 44.836578,392.06049 c 2.343131,-1.13444 4.829537,-2.06621 7.314889,-3.07734 10.193836,-4.14721 21.74571,-6.51453 32.852568,-6.85603 6.902657,-0.21223 13.602053,0.35944 19.656335,1.75735 5.45061,1.25852 10.38232,3.18752 14.47376,5.82235 0.0637,0.041 0.12755,0.0825 0.19158,0.12439 l 0,0 c -10.67432,11.01018 -32.727079,31.99332 -35.735592,34.91242 3.227257,-2.89432 27.138822,-24.76613 38.468752,-34.20176 0.34616,-0.28829 0.69322,-0.57549 1.04117,-0.86161 -0.36512,-0.34236 -0.73711,-0.67731 -1.11575,-1.00466 -0.44701,-0.38647 -0.89031,-0.75113 -1.32515,-1.09477 -4.11812,-3.25443 -9.18892,-5.82068 -14.87026,-7.70005 -6.304496,-2.08552 -13.360275,-3.32521 -20.706268,-3.72478 -11.778752,-0.64066 -24.395286,0.87519 -35.913364,4.60784 -2.828063,0.91648 -5.516987,2.15556 -8.14286,3.42689 -5.246508,2.54012 -1.436319,10.40989 3.81019,7.86976 z m -24.776085,24.77609 c -1.134439,2.34313 -2.066217,4.82953 -3.077345,7.31489 -4.147208,10.19383 -6.514525,21.74571 -6.856024,32.85256 -0.2122336,6.90266 0.35944,13.60206 1.757345,19.65634 1.258519,5.45061 3.187516,10.38232 5.822351,14.47376 0.04101,0.0637 0.08248,0.12755 0.124394,0.19158 l 0,0 c 11.010181,-10.67432 31.993318,-32.72708 34.912416,-35.73559 -2.894324,3.22726 -24.766131,27.13882 -34.201761,38.46875 -0.288286,0.34616 -0.575491,0.69322 -0.861613,1.04117 -0.342355,-0.36512 -0.67731,-0.73711 -1.00466,-1.11575 -0.386468,-0.44701 -0.751126,-0.89031 -1.094767,-1.32515 -3.254426,-4.11812 -5.8206778,-9.18892 -7.7000517,-14.87026 -2.0855138,-6.3045 -3.3252118,-13.36027 -3.7247735,-20.70627 -0.6406668,-11.77875 0.8751857,-24.39528 4.6078326,-35.91336 0.9164865,-2.82807 2.1555606,-5.51699 3.4268906,-8.14286 2.540125,-5.24651 10.409892,-1.43632 7.869766,3.81019 z"
       id="path869"
       inkscape:connector-curvature="0"
       inkscape:path-effect="#path-effect887;#path-effect871"
       inkscape:original-d="m 42.931483,388.12561 c 25.247433,-12.22368 60.955197,-12.23885 78.286817,1.51522 l -37.628182,35.1028"
       sodipodi:nodetypes="ccc" />
    <path
       sodipodi:nodetypes="ccsc"
       inkscape:original-d="m 25.363224,392.81705 c 8.739226,-8.77878 58.194136,48.85589 75.525756,62.60996 15.4859,-7.33422 20.85777,20.27302 5.77155,18.20595 -7.64558,-1.04757 3.15672,-8.58629 3.15672,-8.58629"
       inkscape:path-effect="#path-effect891;#path-effect893"
       inkscape:connector-curvature="0"
       id="path889"
       d="m 27.125268,394.57115 c 0.0539,-0.0541 0.157294,-0.14423 0.502271,-0.16714 0.320936,-0.0213 0.809271,0.0239 1.502136,0.22184 0.14956,0.0427 0.306286,0.0919 0.470254,0.14799 1.878332,0.64228 4.362173,2.06006 7.369807,4.20957 5.97491,4.27018 13.404703,10.97665 21.205943,18.48513 7.788324,7.49605 15.833484,15.67919 23.075409,22.89525 3.612764,3.59986 7.02359,6.95681 10.083068,9.84589 1.925055,1.81784 3.720363,3.45933 5.346689,4.86494 0.958694,0.82859 1.865009,1.58011 2.709808,2.24044 0.424382,0.33172 0.854017,0.65667 1.288727,0.97473 0.40213,-0.24863 0.81641,-0.47705 1.2413,-0.6844 1.63319,-0.79702 3.03356,-1.09345 4.21002,-1.09028 1.17188,0.003 2.21607,0.30335 3.14315,0.83252 0.938,0.5354 1.78178,1.32154 2.48727,2.30613 0.59778,0.83428 1.08191,1.79186 1.428,2.81048 0.0615,0.18112 0.11858,0.3638 0.17104,0.54764 0.3479,1.21913 0.48943,2.47215 0.41451,3.644 -0.0749,1.17168 -0.36382,2.23394 -0.85121,3.10482 -0.48095,0.85936 -1.1727,1.56665 -2.12358,2.03083 -0.96004,0.46865 -2.25487,0.72252 -3.96145,0.54302 -0.86239,-0.0623 -1.32176,-0.20224 -1.57742,-0.31114 -0.10278,-0.0438 -0.19818,-0.0947 -0.22851,-0.11225 -0.0449,-0.026 -0.0892,-0.0576 -0.12205,-0.13356 -0.0719,-0.16597 -0.0609,-0.48276 0.11466,-0.93951 0.17067,-0.444 0.46549,-0.94257 0.84196,-1.46237 0.75302,-1.03972 1.76554,-2.0755 2.58656,-2.8818 0.81623,-0.80161 1.42502,-1.35927 1.36362,-1.44725 -0.0613,-0.0879 -0.80297,0.29662 -1.77317,0.94134 -0.96186,0.63918 -2.17933,1.55509 -3.16755,2.53022 -0.49319,0.48666 -0.95691,1.01498 -1.30271,1.55537 -0.33777,0.52784 -0.62418,1.16067 -0.62769,1.84762 -0.002,0.35516 0.0725,0.71915 0.24688,1.07076 0.1737,0.35013 0.43,0.65436 0.74808,0.91111 0.62188,0.50196 1.48765,0.83064 2.54154,1.02828 2.06624,0.33731 3.90109,0.18053 5.47568,-0.43624 1.58295,-0.62004 2.82459,-1.67562 3.72009,-2.99793 0.88812,-1.31141 1.41743,-2.85575 1.64145,-4.459 0.22406,-1.6036 0.1475,-3.29631 -0.20141,-4.94047 -0.053,-0.2496 -0.1123,-0.49848 -0.17794,-0.74615 -0.36713,-1.38515 -0.93507,-2.74463 -1.70507,-3.98641 -0.90657,-1.46201 -2.11015,-2.7868 -3.61848,-3.7763 -1.51827,-0.99602 -3.31688,-1.63181 -5.34386,-1.72727 l 0,0 c -1.57894,-0.0744 -3.2403,0.18153 -4.95826,0.79081 l 0,0 c -0.45679,-0.38577 -0.93605,-0.8 -1.437074,-1.24156 -1.54404,-1.36079 -3.273907,-2.96447 -5.159707,-4.76504 -2.997033,-2.86158 -6.36066,-6.1943 -9.958613,-9.79521 -7.179836,-7.18573 -15.291379,-15.43867 -23.127214,-22.97473 -7.821379,-7.52215 -15.477079,-14.43785 -21.774508,-18.93499 -3.12811,-2.23386 -6.077973,-3.98654 -8.644202,-4.86928 -0.238129,-0.0819 -0.475415,-0.15722 -0.711569,-0.22525 -1.053543,-0.30349 -2.141189,-0.47723 -3.207116,-0.40559 -1.34807,0.0906 -2.655119,0.57896 -3.693647,1.62219 z m -4.554113,4.55412 c -0.05415,0.0539 -0.144236,0.15729 -0.167148,0.50227 -0.02132,0.32094 0.02395,0.80927 0.221839,1.50214 0.04272,0.14956 0.09192,0.30628 0.147992,0.47025 0.642283,1.87833 2.060057,4.36217 4.209571,7.36981 4.270185,5.97491 10.976654,13.4047 18.485134,21.20594 7.496047,7.78832 15.679186,15.83348 22.895246,23.07541 3.599862,3.61276 6.956812,7.02359 9.845891,10.08307 1.817839,1.92505 3.459331,3.72036 4.864942,5.34669 0.828585,0.95869 1.580104,1.865 2.240442,2.7098 0.331719,0.42439 0.656669,0.85402 0.974725,1.28873 -0.248632,0.40213 -0.477049,0.81641 -0.6844,1.2413 -0.79702,1.63319 -1.093453,3.03356 -1.09028,4.21002 0.0032,1.17188 0.303346,2.21607 0.832519,3.14315 0.535407,0.938 1.321543,1.78178 2.306135,2.48727 0.834275,0.59778 1.791858,1.08191 2.810481,1.428 0.18112,0.0615 0.363798,0.11858 0.547633,0.17104 1.219134,0.3479 2.472149,0.48943 3.643999,0.41451 1.171688,-0.0749 2.233942,-0.36382 3.104828,-0.85121 0.859359,-0.48095 1.566643,-1.1727 2.030824,-2.12358 0.468652,-0.96004 0.722522,-2.25487 0.543022,-3.96145 -0.0623,-0.86239 -0.20224,-1.32176 -0.31114,-1.57742 -0.04378,-0.10278 -0.09468,-0.19818 -0.112248,-0.22851 -0.02601,-0.0449 -0.05764,-0.0892 -0.133563,-0.12205 -0.165969,-0.0719 -0.482758,-0.0609 -0.939508,0.11466 -0.443998,0.17067 -0.942569,0.46549 -1.462373,0.84196 -1.039721,0.75302 -2.075496,1.76554 -2.881802,2.58656 -0.801601,0.81623 -1.359266,1.42502 -1.447246,1.36362 -0.08789,-0.0613 0.296615,-0.80297 0.94134,-1.77317 0.639182,-0.96186 1.555086,-2.17933 2.530223,-3.16755 0.486657,-0.49319 1.014974,-0.95691 1.555369,-1.30271 0.527842,-0.33777 1.160664,-0.62418 1.847615,-0.62769 0.355163,-0.002 0.719153,0.0725 1.070763,0.24688 0.35013,0.1737 0.65436,0.43 0.91111,0.74808 0.50196,0.62188 0.83064,1.48765 1.02828,2.54154 0.33731,2.06624 0.18053,3.90109 -0.43624,5.47568 -0.62004,1.58295 -1.67562,2.82459 -2.997935,3.72009 -1.311404,0.88812 -2.855743,1.41743 -4.458994,1.64145 -1.603599,0.22406 -3.296306,0.1475 -4.940472,-0.20141 -0.249602,-0.053 -0.498477,-0.1123 -0.746148,-0.17794 -1.385147,-0.36713 -2.744634,-0.93507 -3.986407,-1.70507 -1.462012,-0.90657 -2.786807,-2.11015 -3.776307,-3.61848 -0.996014,-1.51827 -1.631811,-3.31688 -1.727265,-5.34386 l 0,0 c -0.07435,-1.57894 0.181524,-3.2403 0.79081,-4.95826 l 0,0 c -0.385775,-0.45679 -0.799998,-0.93605 -1.241564,-1.43707 -1.360792,-1.54404 -2.96447,-3.27391 -4.765039,-5.15971 -2.861581,-2.99703 -6.194302,-6.36066 -9.795209,-9.95861 -7.185732,-7.17984 -15.43867,-15.29138 -22.974727,-23.12722 -7.522153,-7.82138 -14.437855,-15.47708 -18.934997,-21.77451 -2.233857,-3.12811 -3.986535,-6.07797 -4.869273,-8.6442 -0.08191,-0.23813 -0.157225,-0.47541 -0.225253,-0.71157 -0.30349,-1.05354 -0.477232,-2.14119 -0.405589,-3.20711 0.09061,-1.34807 0.578955,-2.65512 1.622184,-3.69365 z"
       style="opacity:1;vector-effect:none;fill:#333333;fill-opacity:1;fill-rule:nonzero;stroke:none;stroke-width:5;stroke-linecap:round;stroke-linejoin:round;stroke-miterlimit:4;stroke-dasharray:none;stroke-dashoffset:0;stroke-opacity:1;paint-order:normal" />
    <path
       sodipodi:nodetypes="ccccccccccccccc"
       inkscape:original-d="m 12.826237,384.82624 c 1.183772,-1.05751 1.078934,-0.60959 1.078934,-0.60959 l 8.355039,8.00959 1.169304,1.17636 0.290179,-0.27901 -1.127232,-1.16072 1.028697,-0.96184 c 9.977128,9.26653 23.00037,20.41926 31.286597,30.53123 6.494279,-10.0597 14.338274,-23.65685 12.442179,-35.28758 1.806494,-0.77992 3.838968,-1.16556 6.09189,-1.39489 2.287346,17.55409 -5.281131,32.85678 -9.997437,44.14709 l 37.308563,35.18263 12.51633,-10.39983 2.35633,2.36686 -16.070545,15.40857"
       inkscape:path-effect="#path-effect899"
       inkscape:connector-curvature="0"
       id="path895"
       d="m 12.826237,384.82624 c 1.183772,-1.05751 1.078934,-0.60959 1.078934,-0.60959 l 8.355039,8.00959 1.169304,1.17636 0.290179,-0.27901 -1.127232,-1.16072 1.028697,-0.96184 c 9.977128,9.26653 23.00037,20.41926 31.286597,30.53123 6.494279,-10.0597 14.338274,-23.65685 12.442179,-35.28758 1.806494,-0.77992 3.838968,-1.16556 6.09189,-1.39489 2.287346,17.55409 -5.281131,32.85678 -9.997437,44.14709 l 37.308563,35.18263 12.51633,-10.39983 2.35633,2.36686 -16.070545,15.40857 M 12.82624,384.82624 c -1.05751,1.18377 -0.60959,1.07893 -0.60959,1.07893 l 8.00959,8.35504 1.17636,1.1693 -0.27901,0.29018 -1.16072,-1.12723 -0.96184,1.0287 c 9.26653,9.97713 20.41926,23.00037 30.53123,31.28659 -10.0597,6.49428 -23.65685,14.33828 -35.28758,12.44218 -0.77992,1.8065 -1.16556,3.83897 -1.39489,6.09189 17.55409,2.28735 32.85678,-5.28113 44.14709,-9.99743 l 35.18263,37.30856 -10.39983,12.51633 2.36686,2.35633 15.40857,-16.07054"
       style="opacity:1;vector-effect:none;fill:#000000;fill-opacity:1;fill-rule:nonzero;stroke:none;stroke-width:2.61638641;stroke-linecap:round;stroke-linejoin:round;stroke-miterlimit:4;stroke-dasharray:none;stroke-dashoffset:0;stroke-opacity:1;paint-order:normal" />
    <path
       style="opacity:1;vector-effect:none;fill:#cccccc;fill-opacity:1;fill-rule:nonzero;stroke:none;stroke-width:5;stroke-linecap:round;stroke-linejoin:round;stroke-miterlimit:4;stroke-dasharray:none;stroke-dashoffset:0;stroke-opacity:1;paint-order:normal"
       d="m 24.04707,396.04867 c 0.194653,-0.19299 0.368402,-0.43344 0.51486,-0.76357 0.04287,-0.0966 0.07558,-0.1832 0.09479,-0.23559 0.04828,-0.13168 0.08107,-0.30774 0.11533,-0.5283 0.03585,-0.23076 0.06795,-0.46594 0.143752,-0.67489 0.09806,-0.27027 0.257998,-0.44944 0.425285,-0.54155 -0.169093,0.0931 -0.369676,0.19748 -0.58009,0.45092 -0.160113,0.19286 -0.282866,0.42258 -0.388324,0.63989 -0.08612,0.17746 -0.179549,0.3853 -0.211435,0.47227 -0.01731,0.0472 -0.04551,0.12167 -0.0817,0.20325 -0.120398,0.27139 -0.256982,0.45702 -0.404026,0.60281 z m 0.0016,-0.002 c -0.19299,0.19465 -0.433434,0.3684 -0.763566,0.51486 -0.09663,0.0429 -0.183205,0.0756 -0.235598,0.0948 -0.131676,0.0483 -0.307738,0.0811 -0.52829,0.11533 -0.230762,0.0358 -0.465945,0.0679 -0.674894,0.14375 -0.270272,0.0981 -0.449443,0.258 -0.541551,0.42528 0.0931,-0.16909 0.197484,-0.36967 0.450924,-0.58009 0.192853,-0.16011 0.422574,-0.28286 0.639881,-0.38832 0.177467,-0.0861 0.385305,-0.17955 0.472279,-0.21144 0.04721,-0.0173 0.121667,-0.0455 0.203243,-0.0817 0.271392,-0.1204 0.457025,-0.25698 0.602814,-0.40403 z"
       id="path903"
       inkscape:connector-curvature="0"
       inkscape:path-effect="#path-effect905;#path-effect907"
       inkscape:original-d="m 23.861291,395.86129 c 0.849908,-0.84265 0.553005,-2.04623 1.479792,-2.55652"
       sodipodi:nodetypes="cc"
       inkscape:tile-cx="23.322929"
       inkscape:tile-cy="23.32273"
       inkscape:tile-w="4.036316"
       inkscape:tile-h="4.03592"
       inkscape:tile-x0="21.304771"
       inkscape:tile-y0="21.30477" />
    <use
       x="0"
       y="0"
       xlink:href="#path903"
       id="use1091"
       transform="translate(1.0091525,1.0111525)"
       width="100%"
       height="100%" />
    <use
       x="0"
       y="0"
       xlink:href="#use1091"
       id="use1093"
       transform="translate(1.1048543,1.1048543)"
       width="100%"
       height="100%" />
    <use
       x="0"
       y="0"
       xlink:href="#use1093"
       id="use1095"
       transform="translate(1.120638,1.120638)"
       width="100%"
       height="100%" />
    <use
       x="0"
       y="0"
       xlink:href="#use1095"
       id="use1097"
       transform="translate(1.0575034,1.0575034)"
       width="100%"
       height="100%" />
    <path
       style="opacity:1;vector-effect:none;fill:#000000;fill-opacity:1;fill-rule:nonzero;stroke:none;stroke-width:5;stroke-linecap:round;stroke-linejoin:round;stroke-miterlimit:4;stroke-dasharray:none;stroke-dashoffset:0;stroke-opacity:1;paint-order:normal"
       d="m 94.362088,425.73192 -0.01054,0.01 c -0.07905,0.76392 0.205282,1.80977 -0.23716,2.29175 -1.791713,1.95182 -3.091999,3.30403 -4.066933,4.25146 -0.16408,0.15946 -0.329411,0.31761 -0.495979,0.47447 0.154943,0.15099 0.30939,0.3025 0.463339,0.45451 5.110366,5.04608 2.891787,3.95468 5.840661,7.60882 -0.355364,0.32137 -0.728549,0.66102 -1.120768,1.02024 -3.350348,3.06845 -6.539511,6.30846 -9.813454,9.45846 -0.249258,0.23982 -0.504025,0.47392 -0.756037,0.71089 l 2.38535,2.53684 c 0.252012,-0.23696 0.50134,-0.47684 0.756037,-0.71088 3.34538,-3.07403 6.775385,-6.05789 10.044078,-9.21319 0.880454,-0.84991 1.651319,-1.60561 2.329031,-2.28091 0.45395,-0.45233 0.90511,-0.90746 1.35345,-1.36535 -0.42367,-0.42485 -0.85332,-0.84368 -1.28883,-1.25638 -5.101239,-4.83401 -3.496439,-1.70984 -8.325171,-6.89386 1.001186,-0.81496 2.339269,-1.84853 4.143002,-3.18924 0.525093,-0.3903 1.535991,5.2e-4 2.303987,7.7e-4 l 0.01054,-0.01 a 2.6244024,2.6244024 90 0 0 -3.514602,-3.8984 z"
       id="path1099"
       inkscape:connector-curvature="0"
       sodipodi:nodetypes="cccc"
       inkscape:path-effect="#path-effect1121"
       inkscape:original-d="m 96.119389,427.68112 -5.638944,5.08379 7.936675,8.23619 -13.059231,12.27934"
       transform="rotate(-1.0609833,92.704524,439.72642)" />
    <path
       inkscape:connector-curvature="0"
       d="m -38.63846,389.3883 a 9.0913725,9.0913725 0 0 1 -9.091372,9.09138 9.0913725,9.0913725 0 0 1 -9.091373,-9.09138 9.0913725,9.0913725 0 0 1 9.091373,-9.09137 9.0913725,9.0913725 0 0 1 9.091372,9.09137"
       style="opacity:1;fill:none;fill-opacity:1;stroke:#000000;stroke-width:5;stroke-linecap:round;stroke-linejoin:round;stroke-miterlimit:4;stroke-dasharray:none"
       id="circle2495-7-0" />
  </g>
  <g
     transform="translate(0,-372)"
     inkscape:label="Detail"
     id="layer5"
     inkscape:groupmode="layer" />
  <g
     transform="translate(0,-372)"
     inkscape:label="Extra"
     id="layer3"
     inkscape:groupmode="layer" />
  <g
     transform="translate(0,-372)"
     inkscape:label="Text"
     id="layer2"
     inkscape:groupmode="layer" />
</svg>
