<?xml version="1.0" encoding="UTF-8" standalone="no"?>
<svg
   xmlns:dc="http://purl.org/dc/elements/1.1/"
   xmlns:cc="http://creativecommons.org/ns#"
   xmlns:rdf="http://www.w3.org/1999/02/22-rdf-syntax-ns#"
   xmlns:svg="http://www.w3.org/2000/svg"
   xmlns="http://www.w3.org/2000/svg"
   xmlns:xlink="http://www.w3.org/1999/xlink"
   xmlns:sodipodi="http://sodipodi.sourceforge.net/DTD/sodipodi-0.dtd"
   xmlns:inkscape="http://www.inkscape.org/namespaces/inkscape"
   width="128"
   height="128"
   viewBox="0 0 128 128"
   version="1.1"
   id="svg4689"
   inkscape:version="0.92.4 (5da689c313, 2019-01-14)"
   sodipodi:docname="wpn-withshield.svg"
   inkscape:export-filename="wpn-withshield.png"
   inkscape:export-xdpi="192"
   inkscape:export-ydpi="192">
  <defs
     id="defs4683">
    <inkscape:path-effect
       end_linecap_type="zerowidth"
       miter_limit="4"
       linejoin_type="round"
       start_linecap_type="zerowidth"
       interpolator_beta="0.2"
       interpolator_type="CubicBezierFit"
       sort_points="true"
       offset_points="1.1311943,0.35030262"
       is_visible="true"
       id="path-effect905"
       effect="powerstroke" />
    <inkscape:path-effect
       effect="powerstroke"
       id="path-effect901"
       is_visible="true"
       offset_points="0.44661269,0.54591064 | 0.56375835,0.54984023"
       sort_points="true"
       interpolator_type="CubicBezierFit"
       interpolator_beta="0.2"
       start_linecap_type="zerowidth"
       linejoin_type="round"
       miter_limit="4"
       end_linecap_type="zerowidth" />
    <inkscape:path-effect
       effect="powerstroke"
       id="path-effect889"
       is_visible="true"
       offset_points="1.1311943,0.35030262"
       sort_points="true"
       interpolator_type="CubicBezierFit"
       interpolator_beta="0.2"
       start_linecap_type="zerowidth"
       linejoin_type="round"
       miter_limit="4"
       end_linecap_type="zerowidth" />
    <inkscape:path-effect
       end_linecap_type="zerowidth"
       miter_limit="4"
       linejoin_type="round"
       start_linecap_type="zerowidth"
       interpolator_beta="0.2"
       interpolator_type="CubicBezierFit"
       sort_points="true"
       offset_points="0.89322537,0.54591064 | 1.1275167,0.54984023"
       is_visible="true"
       id="path-effect883"
       effect="powerstroke" />
    <inkscape:path-effect
       end_linecap_type="zerowidth"
       miter_limit="4"
       linejoin_type="round"
       start_linecap_type="zerowidth"
       interpolator_beta="0.2"
       interpolator_type="CubicBezierFit"
       sort_points="true"
       offset_points="0.17700832,0.35299294 | 0.079764059,0.2602224 | 1.691275,0.54984023"
       is_visible="true"
       id="path-effect879"
       effect="powerstroke" />
    <inkscape:path-effect
       effect="mirror_symmetry"
       start_point="64.611882,23.405089"
       end_point="64.611882,134.0419"
       center_point="64.611882,78.723495"
       id="path-effect873"
       is_visible="true"
       mode="free"
       discard_orig_path="false"
       fuse_paths="false"
       oposite_fuse="false" />
    <inkscape:path-effect
       effect="powerstroke"
       id="path-effect844"
       is_visible="true"
       offset_points="0.89322537,0.54591064 | 1.1275167,0.54984023"
       sort_points="true"
       interpolator_type="CubicBezierFit"
       interpolator_beta="0.2"
       start_linecap_type="zerowidth"
       linejoin_type="round"
       miter_limit="4"
       end_linecap_type="zerowidth" />
    <inkscape:path-effect
       oposite_fuse="false"
       fuse_paths="false"
       discard_orig_path="false"
       mode="free"
       is_visible="true"
       id="path-effect4727"
       center_point="64,445.33312"
       end_point="64,496.72236"
       start_point="64,393.94388"
       effect="mirror_symmetry" />
    <inkscape:path-effect
       effect="mirror_symmetry"
       start_point="64,393.94388"
       end_point="64,496.72236"
       center_point="64,445.33312"
       id="path-effect882"
       is_visible="true"
       mode="free"
       discard_orig_path="false"
       fuse_paths="false"
       oposite_fuse="false" />
    <inkscape:path-effect
       effect="lattice2"
       gridpoint0="64,390.72117"
       gridpoint1="87.568672,390.72117"
       gridpoint2="64,493.49965"
       gridpoint3="87.568672,493.49965"
       gridpoint4="69.892168,390.72117"
       gridpoint5="81.676504,390.72117"
       gridpoint6="69.892168,493.49965"
       gridpoint7="81.676504,493.49965"
       gridpoint8x9="75.784336,390.72117"
       gridpoint10x11="75.784336,493.49965"
       gridpoint12="64,416.41579"
       gridpoint13="87.568672,416.41579"
       gridpoint14="64,467.80503"
       gridpoint15="87.568672,467.80503"
       gridpoint16="69.892168,416.41579"
       gridpoint17="81.676504,416.41579"
       gridpoint18="69.892168,467.80503"
       gridpoint19="81.676504,467.80503"
       gridpoint20x21="75.784336,416.41579"
       gridpoint22x23="75.784336,467.80503"
       gridpoint24x26="64,442.11041"
       gridpoint25x27="87.568672,442.11041"
       gridpoint28x30="69.892168,442.11041"
       gridpoint29x31="81.676504,442.11041"
       gridpoint32x33x34x35="75.784336,442.11041"
       id="path-effect880"
       is_visible="true"
       horizontal_mirror="false"
       vertical_mirror="false"
       live_update="true" />
    <linearGradient
       id="linearGradient5404"
       inkscape:collect="always">
      <stop
         id="stop5400"
         offset="0"
         style="stop-color:#e0cb00;stop-opacity:1" />
      <stop
         style="stop-color:#2d2711;stop-opacity:1"
         offset="0.47289026"
         id="stop5432" />
      <stop
         id="stop5402"
         offset="1"
         style="stop-color:#e0cb00;stop-opacity:1" />
    </linearGradient>
    <inkscape:path-effect
       oposite_fuse="false"
       fuse_paths="false"
       discard_orig_path="false"
       mode="free"
       is_visible="true"
       id="path-effect5398"
       center_point="64,64.000001"
       end_point="64,111.74804"
       start_point="64,16.251963"
       effect="mirror_symmetry" />
    <inkscape:path-effect
       oposite_fuse="false"
       fuse_paths="false"
       discard_orig_path="false"
       mode="free"
       is_visible="true"
       id="path-effect5386"
       center_point="64,436"
       end_point="64,484"
       start_point="64,388"
       effect="mirror_symmetry" />
    <inkscape:path-effect
       oposite_fuse="false"
       fuse_paths="false"
       discard_orig_path="false"
       mode="free"
       is_visible="true"
       id="path-effect5128"
       center_point="64,436"
       end_point="64,484"
       start_point="64,388"
       effect="mirror_symmetry" />
    <inkscape:path-effect
       oposite_fuse="false"
       fuse_paths="false"
       discard_orig_path="false"
       mode="free"
       is_visible="true"
       id="path-effect5128-1"
       center_point="64,436"
       end_point="64,484"
       start_point="64,388"
       effect="mirror_symmetry" />
    <linearGradient
       gradientTransform="translate(-108.97182,358.68331)"
       spreadMethod="pad"
       y2="24.93236"
       x2="31.876181"
       y1="97.006973"
       x1="93.374527"
       gradientUnits="userSpaceOnUse"
       id="linearGradient4685"
       xlink:href="#linearGradient5404"
       inkscape:collect="always" />
    <clipPath
       clipPathUnits="userSpaceOnUse"
       id="clipPath1004">
      <path
         style="opacity:1;vector-effect:none;fill:#4e7ed3;fill-opacity:0.69803922;fill-rule:nonzero;stroke:none;stroke-width:0.25;stroke-linecap:round;stroke-linejoin:round;stroke-miterlimit:4;stroke-dasharray:none;stroke-dashoffset:0;stroke-opacity:0.69696966;paint-order:normal"
         d="M 0,372 V 500 H 128 V 372 Z m 25.1875,15.05469 a 1.0870274,1.0870274 0 0 1 0.322266,0.0371 l 42.269531,11.50586 a 1.0870274,1.0870274 0 0 1 0.763672,0.76562 l 11.320312,41.81836 45.843749,47.95117 a 1.0870274,1.0870274 0 0 1 0.10156,1.37891 l -2.92968,4.14453 a 1.0870274,1.0870274 0 0 1 -0.26172,0.26172 l -4.10742,2.89258 a 1.0870274,1.0870274 0 0 1 -1.37696,-0.10352 L 69.181641,451.86328 27.363281,440.54297 A 1.0870274,1.0870274 0 0 1 26.597656,439.7793 L 15.091797,397.50977 a 1.0870274,1.0870274 0 0 1 -0.002,-0.5625 l 0.05469,-0.20704 a 1.0870274,1.0870274 0 0 1 0.06641,-0.18164 l 2.80664,-6.01562 a 1.0870274,1.0870274 0 0 1 0.525391,-0.52539 l 6.015625,-2.80664 a 1.0870274,1.0870274 0 0 1 0.18164,-0.0664 l 0.207032,-0.0547 a 1.0870274,1.0870274 0 0 1 0.240234,-0.0352 z"
         id="path1006"
         inkscape:connector-curvature="0" />
    </clipPath>
  </defs>
  <sodipodi:namedview
     inkscape:document-rotation="0"
     inkscape:snap-grids="false"
     inkscape:lockguides="false"
     inkscape:showpageshadow="false"
     inkscape:window-maximized="0"
     inkscape:window-y="-8"
     inkscape:window-x="156"
     inkscape:window-height="1160"
     inkscape:window-width="1741"
     inkscape:guide-bbox="true"
     showguides="false"
     inkscape:snap-path-mask="false"
     inkscape:snap-path-clip="false"
     inkscape:pagecheckerboard="false"
     showborder="true"
     units="px"
     showgrid="false"
     inkscape:current-layer="layer4"
     inkscape:document-units="px"
     inkscape:cy="95.921213"
     inkscape:cx="53.423199"
     inkscape:zoom="4"
     inkscape:pageshadow="2"
     inkscape:pageopacity="0"
     borderopacity="1.0"
     bordercolor="#666666"
     pagecolor="#d2d2d2"
     id="base"
     inkscape:snap-global="true"
     inkscape:snap-center="true">
    <inkscape:grid
       empspacing="32"
       spacingx="2"
       spacingy="2"
       id="grid5234"
       type="xygrid" />
    <sodipodi:guide
       inkscape:locked="false"
       id="guide5110"
       orientation="0,128"
       position="0,0" />
    <sodipodi:guide
       inkscape:locked="false"
       id="guide5112"
       orientation="-128,0"
       position="128,0" />
    <sodipodi:guide
       inkscape:locked="false"
       id="guide5114"
       orientation="0,-128"
       position="128,128" />
    <sodipodi:guide
       inkscape:locked="false"
       id="guide5116"
       orientation="128,0"
       position="0,128" />
    <sodipodi:guide
       inkscape:locked="false"
       id="guide5118"
       orientation="0,1"
       position="80,64" />
    <sodipodi:guide
       inkscape:locked="false"
       id="guide5120"
       orientation="1,0"
       position="64,49.276504"
       inkscape:label=""
       inkscape:color="rgb(0,0,255)" />
    <sodipodi:guide
       position="36.434757,87.23458"
       orientation="0,1"
       id="guide885"
       inkscape:locked="false" />
  </sodipodi:namedview>
  <metadata
     id="metadata4686">
    <rdf:RDF>
      <cc:Work
         rdf:about="">
        <dc:format>image/svg+xml</dc:format>
        <dc:type
           rdf:resource="http://purl.org/dc/dcmitype/StillImage" />
        <dc:title />
        <dc:creator>
          <cc:Agent>
            <dc:title>Weaver</dc:title>
          </cc:Agent>
        </dc:creator>
      </cc:Work>
    </rdf:RDF>
  </metadata>
  <g
     style="opacity:1"
     transform="translate(0,-536.70831)"
     id="layer1"
     inkscape:groupmode="layer"
     inkscape:label="Background" />
  <g
     transform="translate(0,-372)"
     inkscape:label="Base"
     id="layer4"
     inkscape:groupmode="layer"
     style="display:inline" />
  <g
     transform="translate(0,-372)"
     inkscape:label="Detail"
     id="layer5"
     inkscape:groupmode="layer"
     style="display:inline">
    <g
       id="g885">
      <path
         clip-path="url(#clipPath1004)"
         sodipodi:nodetypes="cccccc"
         inkscape:connector-curvature="0"
         id="path4738"
         d="m 64.000005,374.29009 c -32.054102,0 -57.6447347,19.66902 -57.6447347,19.66902 C 6.2230932,441.20623 27.571664,484.1824 64,498.24223 c 44.29744,-21.99336 58.87381,-57.73237 57.64473,-104.28351 0,0 -25.590627,-19.66903 -57.644724,-19.66904 z"
         style="display:inline;opacity:1;vector-effect:none;fill:#333333;fill-opacity:1;fill-rule:nonzero;stroke:none;stroke-width:0.25;stroke-linecap:round;stroke-linejoin:round;stroke-miterlimit:4;stroke-dasharray:none;stroke-dashoffset:0;stroke-opacity:1" />
      <g
         inkscape:transform-center-x="-6.5308683"
         transform="rotate(-45,64,436)"
         inkscape:transform-center-y="6.5308849"
         id="g970">
        <path
           style="display:inline;opacity:1;vector-effect:none;fill:#000000;fill-opacity:1;fill-rule:nonzero;stroke:none;stroke-width:0.25;stroke-linecap:round;stroke-linejoin:round;stroke-miterlimit:4;stroke-dasharray:none;stroke-dashoffset:0;stroke-opacity:1"
           d="m 59.023917,517.18046 -1.496865,-66.60108 -21.704195,-37.81402 21.752932,-38.02566 0.18584,-0.10839 6.238378,-2.26816 6.238356,2.26819 0.185854,0.10841 21.752926,38.02567 -21.704172,37.81403 -1.496875,66.60105 -5.001597,0.85904 -4.950538,-0.85898 z"
           id="path858"
           inkscape:connector-curvature="0"
           inkscape:transform-center-y="8.5021331"
           sodipodi:nodetypes="cccccccccccccc"
           inkscape:transform-center-x="1.75e-05" />
        <g
           id="g929"
           transform="translate(-0.32424209)">
          <path
             id="path881"
             d="m 65.809996,437.58819 c 0.06994,-1.01462 1.634634,-21.7936 2.291847,-33.77083 0.813682,-0.0372 1.541795,-0.0774 2.155155,-0.12067 6.079704,-0.42913 12.154447,-0.93775 18.231671,-1.40662 -6.094419,0.10272 -12.190093,0.16563 -18.283256,0.30815 -0.741086,0.0173 -1.647791,0.0548 -2.669239,0.10738 a 0.56607103,0.57060133 89.889345 0 0 -0.540422,0.53821 c -0.574887,11.8891 -1.151456,33.31317 -1.185756,34.34438 z"
             style="display:inline;opacity:1;vector-effect:none;fill:#cccccc;fill-opacity:1;fill-rule:nonzero;stroke:none;stroke-width:2;stroke-linecap:round;stroke-linejoin:round;stroke-miterlimit:4;stroke-dasharray:none;stroke-dashoffset:0;stroke-opacity:0.67676763"
             inkscape:connector-curvature="0"
             sodipodi:nodetypes="ccc"
             inkscape:path-effect="#path-effect883"
             inkscape:original-d="m 65.809996,437.58819 1.752813,-34.31542 20.92586,-0.9827"
             transform="matrix(1,0,0,-1,-0.28101857,814.19858)" />
          <path
             transform="matrix(1,0,0,-1,16.83809,839.26585)"
             inkscape:original-d="M 49.054466,464.9143 53.73491,462.96116 73.086173,427.7974"
             inkscape:path-effect="#path-effect889"
             sodipodi:nodetypes="ccc"
             inkscape:connector-curvature="0"
             style="display:inline;opacity:1;vector-effect:none;fill:#cccccc;fill-opacity:1;fill-rule:nonzero;stroke:none;stroke-width:2;stroke-linecap:round;stroke-linejoin:round;stroke-miterlimit:4;stroke-dasharray:none;stroke-dashoffset:0;stroke-opacity:0.67676763"
             d="m 49.054466,464.9143 c 2.976514,-1.034 4.064003,-1.35767 4.813208,-1.63499 a 0.29196317,0.35338588 8.5238152 0 0 0.169265,-0.15194 c 3.969144,-7.12515 5.711304,-10.50609 19.049234,-35.32997 -13.771387,24.43992 -15.740258,27.80171 -19.600574,34.90059 -0.71711,0.34211 -1.751082,0.90076 -4.431133,2.21631 z"
             id="path887" />
        </g>
        <g
           id="g925"
           transform="translate(-0.32424209)">
          <path
             transform="translate(-0.28101857,11.078615)"
             inkscape:original-d="m 65.809996,437.58819 1.752813,-34.31542 20.92586,-0.9827"
             inkscape:path-effect="#path-effect901"
             sodipodi:nodetypes="ccc"
             inkscape:connector-curvature="0"
             style="display:inline;opacity:1;vector-effect:none;fill:#cccccc;fill-opacity:1;fill-rule:nonzero;stroke:none;stroke-width:2;stroke-linecap:round;stroke-linejoin:round;stroke-miterlimit:4;stroke-dasharray:none;stroke-dashoffset:0;stroke-opacity:0.67676763"
             d="m 65.809996,437.58819 c 0.442676,-5.09928 0.921935,-10.19489 1.328028,-15.29785 0.106414,-1.3372 0.154524,-2.67915 0.209259,-4.01971 0.199141,-4.87728 0.395636,-9.75466 0.590664,-14.63209 6.850388,-0.4469 13.700355,-0.9012 20.550722,-1.34847 -6.981295,0.2001 -13.962859,0.39291 -20.94413,0.59366 a 0.3816547,0.39414014 1.0397251 0 0 -0.370696,0.36917 c -0.310196,4.98708 -0.618886,9.97427 -0.924808,14.96164 -0.08214,1.33916 -0.171019,2.67902 -0.20141,4.0201 -0.115978,5.11779 -0.158419,10.2357 -0.237629,15.35355 z"
             id="path899" />
          <path
             id="path903"
             d="m 49.054466,464.9143 c 2.976514,-1.034 4.064003,-1.35767 4.813208,-1.63499 a 0.29196317,0.35338588 8.5238152 0 0 0.169265,-0.15194 c 3.969144,-7.12515 5.711304,-10.50609 19.049234,-35.32997 -13.771387,24.43992 -15.740258,27.80171 -19.600574,34.90059 -0.71711,0.34211 -1.751082,0.90076 -4.431133,2.21631 z"
             style="display:inline;opacity:1;vector-effect:none;fill:#cccccc;fill-opacity:1;fill-rule:nonzero;stroke:none;stroke-width:2;stroke-linecap:round;stroke-linejoin:round;stroke-miterlimit:4;stroke-dasharray:none;stroke-dashoffset:0;stroke-opacity:0.67676763"
             inkscape:connector-curvature="0"
             sodipodi:nodetypes="ccc"
             inkscape:path-effect="#path-effect905"
             inkscape:original-d="M 49.054466,464.9143 53.73491,462.96116 73.086173,427.7974"
             transform="translate(16.83809,-13.988655)" />
        </g>
        <g
           transform="matrix(-1,0,0,1,128.32424,0)"
           id="g935">
          <path
             transform="matrix(1,0,0,-1,-0.28101857,814.19858)"
             inkscape:original-d="m 65.809996,437.58819 1.752813,-34.31542 20.92586,-0.9827"
             inkscape:path-effect="#path-effect883"
             sodipodi:nodetypes="ccc"
             inkscape:connector-curvature="0"
             style="display:inline;opacity:1;vector-effect:none;fill:#cccccc;fill-opacity:1;fill-rule:nonzero;stroke:none;stroke-width:2;stroke-linecap:round;stroke-linejoin:round;stroke-miterlimit:4;stroke-dasharray:none;stroke-dashoffset:0;stroke-opacity:0.67676763"
             d="m 65.809996,437.58819 c 0.06994,-1.01462 1.634634,-21.7936 2.291847,-33.77083 0.813682,-0.0372 1.541795,-0.0774 2.155155,-0.12067 6.079704,-0.42913 12.154447,-0.93775 18.231671,-1.40662 -6.094419,0.10272 -12.190093,0.16563 -18.283256,0.30815 -0.741086,0.0173 -1.647791,0.0548 -2.669239,0.10738 a 0.56607103,0.57060133 89.889345 0 0 -0.540422,0.53821 c -0.574887,11.8891 -1.151456,33.31317 -1.185756,34.34438 z"
             id="path931" />
          <path
             id="path933"
             d="m 49.054466,464.9143 c 2.976514,-1.034 4.064003,-1.35767 4.813208,-1.63499 a 0.29196317,0.35338588 8.5238152 0 0 0.169265,-0.15194 c 3.969144,-7.12515 5.711304,-10.50609 19.049234,-35.32997 -13.771387,24.43992 -15.740258,27.80171 -19.600574,34.90059 -0.71711,0.34211 -1.751082,0.90076 -4.431133,2.21631 z"
             style="display:inline;opacity:1;vector-effect:none;fill:#cccccc;fill-opacity:1;fill-rule:nonzero;stroke:none;stroke-width:2;stroke-linecap:round;stroke-linejoin:round;stroke-miterlimit:4;stroke-dasharray:none;stroke-dashoffset:0;stroke-opacity:0.67676763"
             inkscape:connector-curvature="0"
             sodipodi:nodetypes="ccc"
             inkscape:path-effect="#path-effect889"
             inkscape:original-d="M 49.054466,464.9143 53.73491,462.96116 73.086173,427.7974"
             transform="matrix(1,0,0,-1,16.83809,839.26585)" />
        </g>
        <g
           transform="matrix(-1,0,0,1,128.32424,0)"
           id="g941">
          <path
             id="path937"
             d="m 65.809996,437.58819 c 0.442676,-5.09928 0.921935,-10.19489 1.328028,-15.29785 0.106414,-1.3372 0.154524,-2.67915 0.209259,-4.01971 0.199141,-4.87728 0.395636,-9.75466 0.590664,-14.63209 6.850388,-0.4469 13.700355,-0.9012 20.550722,-1.34847 -6.981295,0.2001 -13.962859,0.39291 -20.94413,0.59366 a 0.3816547,0.39414014 1.0397251 0 0 -0.370696,0.36917 c -0.310196,4.98708 -0.618886,9.97427 -0.924808,14.96164 -0.08214,1.33916 -0.171019,2.67902 -0.20141,4.0201 -0.115978,5.11779 -0.158419,10.2357 -0.237629,15.35355 z"
             style="display:inline;opacity:1;vector-effect:none;fill:#cccccc;fill-opacity:1;fill-rule:nonzero;stroke:none;stroke-width:2;stroke-linecap:round;stroke-linejoin:round;stroke-miterlimit:4;stroke-dasharray:none;stroke-dashoffset:0;stroke-opacity:0.67676763"
             inkscape:connector-curvature="0"
             sodipodi:nodetypes="ccc"
             inkscape:path-effect="#path-effect901"
             inkscape:original-d="m 65.809996,437.58819 1.752813,-34.31542 20.92586,-0.9827"
             transform="translate(-0.28101857,11.078615)" />
          <path
             transform="translate(16.83809,-13.988655)"
             inkscape:original-d="M 49.054466,464.9143 53.73491,462.96116 73.086173,427.7974"
             inkscape:path-effect="#path-effect905"
             sodipodi:nodetypes="ccc"
             inkscape:connector-curvature="0"
             style="display:inline;opacity:1;vector-effect:none;fill:#cccccc;fill-opacity:1;fill-rule:nonzero;stroke:none;stroke-width:2;stroke-linecap:round;stroke-linejoin:round;stroke-miterlimit:4;stroke-dasharray:none;stroke-dashoffset:0;stroke-opacity:0.67676763"
             d="m 49.054466,464.9143 c 2.976514,-1.034 4.064003,-1.35767 4.813208,-1.63499 a 0.29196317,0.35338588 8.5238152 0 0 0.169265,-0.15194 c 3.969144,-7.12515 5.711304,-10.50609 19.049234,-35.32997 -13.771387,24.43992 -15.740258,27.80171 -19.600574,34.90059 -0.71711,0.34211 -1.751082,0.90076 -4.431133,2.21631 z"
             id="path939" />
        </g>
        <path
           transform="translate(-1.3695066,79.631476)"
           inkscape:original-d="M 65.369507,437.37203 V 373.40475"
           inkscape:path-effect="#path-effect901"
           sodipodi:nodetypes="cc"
           inkscape:connector-curvature="0"
           style="display:inline;opacity:1;vector-effect:none;fill:#cccccc;fill-opacity:1;fill-rule:nonzero;stroke:none;stroke-width:2;stroke-linecap:round;stroke-linejoin:round;stroke-miterlimit:4;stroke-dasharray:none;stroke-dashoffset:0;stroke-opacity:0.67676763"
           d="m 65.369507,437.37203 c 0.02099,-1.09863 0.691091,-26.90294 0.54984,-36.06209 -0.14346,-9.30243 -0.36656,-18.60346 -0.54984,-27.90519 -0.18328,9.30173 -0.40638,18.60276 -0.54984,27.90519 -0.141251,9.15915 0.528846,34.96346 0.54984,36.06209 z"
           id="path947" />
      </g>
    </g>
  </g>
  <g
     style="display:none"
     transform="translate(0,-372)"
     inkscape:label="Extra"
     id="layer3"
     inkscape:groupmode="layer">
    <path
       style="opacity:1;vector-effect:none;fill:url(#linearGradient4685);fill-opacity:1;fill-rule:nonzero;stroke:#000000;stroke-width:0.25;stroke-linecap:round;stroke-linejoin:round;stroke-miterlimit:4;stroke-dasharray:none;stroke-dashoffset:0;stroke-opacity:1"
       d="m -35.169087,388.07784 c 0.154773,0.0385 0.298083,0.11354 0.417969,0.21875 l 6.4375,5.63476 c 0.326443,0.28508 0.432114,0.74799 0.261719,1.14649 l -1.253906,2.92382 c -0.10645,0.24684 -0.30778,0.44042 -0.558594,0.53711 l -1.451172,0.56055 0.603516,1.38477 c 0.231502,0.53142 -0.03583,1.14772 -0.582032,1.34179 l -1.404296,0.50196 0.591796,1.45117 c 0.228724,0.55883 -0.08616,1.19135 -0.669922,1.3457 l -1.351562,0.35742 0.486328,2.1543 c 0.11215,0.49822 -0.169085,1.00091 -0.652344,1.16602 l -1.46289,0.5 0.554687,1.86914 c 0.141907,0.47648 -0.08774,0.98485 -0.539062,1.19336 l -1.759766,0.81054 0.560547,2.09571 c 0.120956,0.44992 -0.08478,0.92376 -0.496094,1.14257 l -1.853515,0.98633 0.634765,1.72461 c 0.08792,0.23957 0.08094,0.50369 -0.01953,0.73828 l -1.29688,3.02539 v 44.1797 c 18.777859,-12.55116 22.332457,-16.31168 30.5664062,-39.4297 5.453504,-15.31153 4.654294,-38.23047 4.654294,-38.23047 0,0 -17.8557532,-14.06755 -40.2207002,-14.06755 -22.364947,0 -40.2207,14.06755 -40.2207,14.06755 0,0 -0.79921,22.91894 4.654294,38.23047 8.233949,23.11802 11.788547,26.87854 30.566406,39.4297 v -44.1797 l -1.29688,-3.02539 c -0.10047,-0.23459 -0.10745,-0.49871 -0.01953,-0.73828 l 0.634765,-1.72461 -1.853515,-0.98633 c -0.411314,-0.21881 -0.61705,-0.69265 -0.496094,-1.14257 l 0.560547,-2.09571 -1.759766,-0.81054 c -0.451322,-0.20851 -0.680969,-0.71688 -0.539062,-1.19336 l 0.554687,-1.86914 -1.46289,-0.5 c -0.483259,-0.16511 -0.764494,-0.6678 -0.652344,-1.16602 l 0.486328,-2.1543 -1.351562,-0.35742 c -0.583762,-0.15435 -0.898646,-0.78687 -0.669922,-1.3457 l 0.591796,-1.45117 -1.404296,-0.50196 c -0.546202,-0.19407 -0.813534,-0.81037 -0.582032,-1.34179 l 0.603516,-1.38477 -1.451172,-0.56055 c -0.250814,-0.0967 -0.452144,-0.29027 -0.558594,-0.53711 l -1.253906,-2.92382 c -0.170395,-0.3985 -0.06472,-0.86141 0.261719,-1.14649 l 6.4375,-5.63476 c 0.119886,-0.10521 0.263196,-0.18021 0.417969,-0.21875 0,0 9.704078,-2.41141 9.802738,-2.40731 0.09866,-0.004 9.802738,2.40731 9.802738,2.40731 z m -6.692253,94.27282 -0.110485,-59.66735 c -3.25e-4,-0.13558 0.02692,-0.26981 0.08008,-0.39454 l 1.220703,-2.84765 -0.796875,-2.16992 c -0.171615,-0.46855 0.02839,-0.9919 0.46875,-1.22657 l 1.921875,-1.02343 -0.572265,-2.14258 c -0.125523,-0.46995 0.105281,-0.96206 0.546875,-1.16602 l 1.736328,-0.80078 -0.582031,-1.96094 c -0.15223,-0.51455 0.128746,-1.05754 0.636718,-1.23047 l 1.521485,-0.51953 -0.5,-2.21875 c -0.118831,-0.52472 0.198755,-1.04943 0.71875,-1.1875 l 1.183593,-0.3125 -0.55664,-1.36718 c -0.215678,-0.52778 0.05282,-1.1288 0.589844,-1.32032 l 1.380859,-0.49218 -0.59375,-1.35938 c -0.226982,-0.52151 0.02608,-1.12708 0.556641,-1.33203 l 2.033203,-0.78516 0.800781,-1.86914 -5.708984,-4.99414 -9.08594,-2.27645 -9.08594,2.27645 -5.708984,4.99414 0.800781,1.86914 2.033203,0.78516 c 0.530561,0.20495 0.783623,0.81052 0.556641,1.33203 l -0.59375,1.35938 1.380859,0.49218 c 0.537024,0.19152 0.805522,0.79254 0.589844,1.32032 l -0.55664,1.36718 1.183593,0.3125 c 0.519995,0.13807 0.837581,0.66278 0.71875,1.1875 l -0.5,2.21875 1.521485,0.51953 c 0.507972,0.17293 0.788948,0.71592 0.636718,1.23047 l -0.582031,1.96094 1.736328,0.80078 c 0.441594,0.20396 0.672398,0.69607 0.546875,1.16602 l -0.572265,2.14258 1.921875,1.02343 c 0.44036,0.23467 0.640365,0.75802 0.46875,1.22657 l -0.796875,2.16992 1.220703,2.84765 c 0.05316,0.12473 0.0804,0.25896 0.08008,0.39454 l -0.110485,59.66735 c 2.184662,0.29593 3.894835,0.33471 6.22097,0 z"
       id="path4683"
       inkscape:connector-curvature="0"
       sodipodi:nodetypes="ccccccccccccccccccccccccccsczcscccccccccccccccccccccccccccccccccccccccccccccccccccccccccccccccccccccccccccccc" />
    <path
       sodipodi:nodetypes="cccccccccccccccccccccccccccccccccccccccccccccccccc"
       inkscape:connector-curvature="0"
       id="path872"
       d="m -24.20624,516.65739 -0.176007,-80.57289 c -5.17e-4,-0.20109 0.04288,-0.40016 0.127571,-0.58514 l 1.94461,-4.22335 -1.269441,-3.21819 1.267042,-2.79003 2.541281,-0.54693 -0.911633,-3.17766 0.871186,-1.72929 2.766014,-1.18765 -0.927191,-2.90824 1.014308,-1.8249 2.423761,-0.77052 -0.796511,-3.29061 1.144986,-1.76119 1.885492,-0.46345 -0.886742,-2.02768 0.939636,-1.95814 2.199742,-0.72997 -0.945857,-2.01608 0.886742,-1.97552 3.2389419,-1.16446 1.275663,-2.77212 -9.0945499,-7.40677 -14.474122,-3.37618 -14.474121,3.37618 -9.094549,7.40677 1.275663,2.77212 3.238942,1.16446 0.886742,1.97552 -0.945857,2.01608 2.19974,0.72997 0.939637,1.95814 -0.886741,2.02768 1.885491,0.46345 1.144986,1.76119 -0.796512,3.29061 2.423762,0.77052 1.014308,1.8249 -0.92719,2.90824 2.766012,1.18765 0.871185,1.72929 -0.911631,3.17766 3.061593,1.51786 0.746731,1.8191 -1.269441,3.21819 1.944608,4.22335 c 0.08469,0.18498 0.128082,0.38405 0.12757,0.58514 l -0.176004,80.57289 c 3.480218,0.4389 6.204566,0.49642 9.910154,0 z"
       style="display:inline;opacity:1;vector-effect:none;fill:#c18e1c;fill-opacity:1;fill-rule:nonzero;stroke:#000000;stroke-width:10;stroke-linecap:round;stroke-linejoin:miter;stroke-miterlimit:4;stroke-dasharray:none;stroke-dashoffset:0;stroke-opacity:1" />
    <path
       inkscape:original-d="m 64,489.75701 8.043481,-3.38379 -0.225877,-49.21953 -1.000874,-3.84484 3.273326,-1.45744 -1.000875,-3.84484 3.273326,-1.45744 -1.000874,-3.84484 3.273325,-1.45744 -1.000874,-3.84484 3.273326,-1.45745 -1.000874,-3.84484 3.273325,-1.45744 -1.000874,-3.84484 3.273326,-1.45744 -1.000874,-3.84484 3.390073,-1.72985 -1.41864,-2.87007 3.80294,-2.69318 -8.658098,-5.73123 L 64,385.97853"
       inkscape:path-effect="#path-effect4727"
       sodipodi:nodetypes="ccccccccccccccccccccc"
       inkscape:connector-curvature="0"
       id="path4725"
       d="m 64,489.75701 8.043481,-3.38379 -0.225877,-49.21953 -1.000874,-3.84484 3.273326,-1.45744 -1.000875,-3.84484 3.273326,-1.45744 -1.000874,-3.84484 3.273325,-1.45744 -1.000874,-3.84484 3.273326,-1.45745 -1.000874,-3.84484 3.273325,-1.45744 -1.000874,-3.84484 3.273326,-1.45744 -1.000874,-3.84484 3.390073,-1.72985 -1.41864,-2.87007 3.80294,-2.69318 -8.658098,-5.73123 L 64,385.97853 m 0,103.77848 -8.043481,-3.38379 0.225877,-49.21953 1.000874,-3.84484 -3.273326,-1.45744 1.000875,-3.84484 -3.273326,-1.45744 1.000874,-3.84484 -3.273325,-1.45744 1.000874,-3.84484 -3.273326,-1.45745 1.000874,-3.84484 -3.273325,-1.45744 1.000874,-3.84484 -3.273326,-1.45744 1.000874,-3.84484 -3.390073,-1.72985 1.41864,-2.87007 -3.80294,-2.69318 8.658098,-5.73123 L 64,385.97853"
       style="display:inline;opacity:1;vector-effect:none;fill:none;fill-opacity:1;fill-rule:nonzero;stroke:#000000;stroke-width:5;stroke-linecap:round;stroke-linejoin:miter;stroke-miterlimit:4;stroke-dasharray:none;stroke-dashoffset:0;stroke-opacity:1"
       transform="translate(-100.58594,-13.78858)" />
  </g>
  <g
     transform="translate(0,-372)"
     inkscape:label="Text"
     id="layer2"
     inkscape:groupmode="layer" />
</svg>
