<?xml version="1.0" encoding="UTF-8" standalone="no"?>
<svg
   xmlns:dc="http://purl.org/dc/elements/1.1/"
   xmlns:cc="http://creativecommons.org/ns#"
   xmlns:rdf="http://www.w3.org/1999/02/22-rdf-syntax-ns#"
   xmlns:svg="http://www.w3.org/2000/svg"
   xmlns="http://www.w3.org/2000/svg"
   xmlns:xlink="http://www.w3.org/1999/xlink"
   xmlns:sodipodi="http://sodipodi.sourceforge.net/DTD/sodipodi-0.dtd"
   xmlns:inkscape="http://www.inkscape.org/namespaces/inkscape"
   inkscape:export-ydpi="192"
   inkscape:export-xdpi="192"
   inkscape:export-filename="wpn-lightsword.png"
   sodipodi:docname="wpn-lightsword.svg"
   inkscape:version="0.92.4 (5da689c313, 2019-01-14)"
   id="svg4689"
   version="1.1"
   viewBox="0 0 128 128"
   height="128"
   width="128">
  <defs
     id="defs4683">
    <linearGradient
       id="linearGradient7175"
       inkscape:collect="always">
      <stop
         id="stop7171"
         offset="0"
         style="stop-color:#00e00e;stop-opacity:1;" />
      <stop
         id="stop7173"
         offset="1"
         style="stop-color:#00e00e;stop-opacity:0;" />
    </linearGradient>
    <inkscape:path-effect
       effect="mirror_symmetry"
       start_point="43.159767,415.15977"
       end_point="105.57005,477.57005"
       center_point="74.364908,446.36491"
       id="path-effect7025"
       is_visible="true"
       mode="free"
       discard_orig_path="false"
       fuse_paths="false"
       oposite_fuse="false" />
    <inkscape:path-effect
       effect="mirror_symmetry"
       start_point="67.435611,439.43561"
       end_point="85.010851,457.01085"
       center_point="76.223231,448.22323"
       id="path-effect7016"
       is_visible="true"
       mode="free"
       discard_orig_path="false"
       fuse_paths="false"
       oposite_fuse="false" />
    <inkscape:path-effect
       oposite_fuse="false"
       fuse_paths="false"
       discard_orig_path="false"
       mode="free"
       is_visible="true"
       id="path-effect6965"
       center_point="76.223231,448.22323"
       end_point="85.010851,457.01085"
       start_point="67.435611,439.43561"
       effect="mirror_symmetry" />
    <inkscape:path-effect
       end_linecap_type="butt"
       miter_limit="4"
       linejoin_type="extrp_arc"
       start_linecap_type="butt"
       interpolator_beta="0.2"
       interpolator_type="Linear"
       sort_points="true"
       offset_points="0.2,2 | 1,2 | 1.8,2"
       is_visible="true"
       id="path-effect6958"
       effect="powerstroke" />
    <inkscape:path-effect
       oposite_fuse="false"
       fuse_paths="false"
       discard_orig_path="false"
       mode="free"
       is_visible="true"
       id="path-effect6956"
       center_point="58.580108,430.58011"
       end_point="67.061297,439.0613"
       start_point="50.098919,422.09892"
       effect="mirror_symmetry" />
    <inkscape:path-effect
       effect="mirror_symmetry"
       start_point="43.159767,415.15977"
       end_point="105.57005,477.57005"
       center_point="74.364908,446.36491"
       id="path-effect6944"
       is_visible="true"
       mode="free"
       discard_orig_path="false"
       fuse_paths="false"
       oposite_fuse="false" />
    <inkscape:path-effect
       reversesecond="false"
       secondpath=""
       linkedpath=""
       is_visible="true"
       id="path-effect6599"
       effect="fill_between_strokes" />
    <inkscape:path-effect
       effect="mirror_symmetry"
       start_point="43.159767,415.15977"
       end_point="105.57005,477.57005"
       center_point="74.364908,446.36491"
       id="path-effect6594"
       is_visible="true"
       mode="free"
       discard_orig_path="false"
       fuse_paths="false"
       oposite_fuse="false" />
    <inkscape:path-effect
       oposite_fuse="false"
       fuse_paths="false"
       discard_orig_path="false"
       mode="free"
       is_visible="true"
       id="path-effect6014"
       center_point="74.364908,446.36491"
       end_point="105.57005,477.57005"
       start_point="43.159767,415.15977"
       effect="mirror_symmetry" />
    <linearGradient
       id="linearGradient5404"
       inkscape:collect="always">
      <stop
         id="stop5400"
         offset="0"
         style="stop-color:#4aff58;stop-opacity:1" />
      <stop
         style="stop-color:#192d11;stop-opacity:1"
         offset="0.4936533"
         id="stop5432" />
      <stop
         id="stop5402"
         offset="1"
         style="stop-color:#4aff58;stop-opacity:1" />
    </linearGradient>
    <inkscape:path-effect
       oposite_fuse="false"
       fuse_paths="false"
       discard_orig_path="false"
       mode="free"
       is_visible="true"
       id="path-effect5398"
       center_point="64,64.000001"
       end_point="64,111.74804"
       start_point="64,16.251963"
       effect="mirror_symmetry" />
    <inkscape:path-effect
       oposite_fuse="false"
       fuse_paths="false"
       discard_orig_path="false"
       mode="free"
       is_visible="true"
       id="path-effect5386"
       center_point="64,436"
       end_point="64,484"
       start_point="64,388"
       effect="mirror_symmetry" />
    <inkscape:path-effect
       oposite_fuse="false"
       fuse_paths="false"
       discard_orig_path="false"
       mode="free"
       is_visible="true"
       id="path-effect5128"
       center_point="64,436"
       end_point="64,484"
       start_point="64,388"
       effect="mirror_symmetry" />
    <inkscape:path-effect
       oposite_fuse="false"
       fuse_paths="false"
       discard_orig_path="false"
       mode="free"
       is_visible="true"
       id="path-effect5128-1"
       center_point="64,436"
       end_point="64,484"
       start_point="64,388"
       effect="mirror_symmetry" />
    <linearGradient
       gradientTransform="translate(-123.78899,355.86992)"
       spreadMethod="pad"
       gradientUnits="userSpaceOnUse"
       y2="41.25"
       x2="28.125"
       y1="74.875"
       x1="94.875"
       id="linearGradient5406"
       xlink:href="#linearGradient5404"
       inkscape:collect="always" />
    <clipPath
       id="clipPath6907"
       clipPathUnits="userSpaceOnUse">
      <path
         inkscape:connector-curvature="0"
         id="path6909"
         d="M 133.31869,377.31869 H 5.318692 l 0,128 H 133.31869 Z m -22.91211,111.98438 c -0.0116,0.3208 -0.18857,0.59364 -0.39062,0.83593 -0.26941,0.32305 -0.65523,0.63603 -1.1836,0.95703 -3.5104,2.13273 -7.12247,3.46568 -10.867184,3.10157 -3.7447,-0.36412 -7.549369,-2.43446 -11.412109,-6.87696 -6.11603,-7.03398 -5.523619,-19.33038 2.150391,-26.46875 a 0.59711818,0.59711818 0 0 1 0.02344,-0.0195 c 5.64686,-4.72404 3.493766,-15.76013 -4.714844,-17.46094 a 0.59711818,0.59711818 0 0 1 -0.466797,-0.68945 l 0.140626,-0.78125 a 0.59711818,0.59711818 0 0 1 0.708984,-0.47851 c 5.70144,1.18133 9.486961,4.94579 10.769531,9.31054 1.281789,4.3621 0.04823,9.32635 -4.089844,12.79297 l -0.0078,0.006 c -5.450646,4.7295 -5.361903,14.04437 -0.425781,20.36133 4.15309,5.31489 11.065087,7.28937 17.294917,4.74219 0.52413,-0.21431 0.96451,-0.32427 1.36524,-0.32227 0.20037,0.001 0.39629,0.0285 0.5918,0.125 0.19551,0.0965 0.38884,0.29119 0.46484,0.52734 0.038,0.11802 0.0527,0.23096 0.0488,0.3379 z"
         style="opacity:1;vector-effect:none;fill:#f9f9f9;fill-opacity:1;fill-rule:nonzero;stroke:none;stroke-width:3;stroke-linecap:butt;stroke-linejoin:round;stroke-miterlimit:4;stroke-dasharray:none;stroke-dashoffset:0;stroke-opacity:1" />
    </clipPath>
    <clipPath
       id="clipPath6907-9"
       clipPathUnits="userSpaceOnUse">
      <path
         inkscape:connector-curvature="0"
         id="path6909-4"
         d="M 133.31869,377.31869 H 5.318692 v 128 H 133.31869 Z m -22.91211,111.98438 c -0.0116,0.3208 -0.18857,0.59364 -0.39062,0.83593 -0.26941,0.32305 -0.65523,0.63603 -1.1836,0.95703 -3.5104,2.13273 -7.12247,3.46568 -10.867184,3.10157 -3.7447,-0.36412 -7.549369,-2.43446 -11.412109,-6.87696 -6.11603,-7.03398 -5.523619,-19.33038 2.150391,-26.46875 a 0.59711818,0.59711818 0 0 1 0.02344,-0.0195 c 5.64686,-4.72404 3.493766,-15.76013 -4.714844,-17.46094 A 0.59711818,0.59711818 0 0 1 83.545257,442.682 l 0.140626,-0.78125 a 0.59711818,0.59711818 0 0 1 0.708984,-0.47851 c 5.70144,1.18133 9.486961,4.94579 10.769531,9.31054 1.281789,4.3621 0.04823,9.32635 -4.089844,12.79297 l -0.0078,0.006 c -5.450646,4.7295 -5.361903,14.04437 -0.425781,20.36133 4.15309,5.31489 11.065087,7.28937 17.294917,4.74219 0.52413,-0.21431 0.96451,-0.32427 1.36524,-0.32227 0.20037,0.001 0.39629,0.0285 0.5918,0.125 0.19551,0.0965 0.38884,0.29119 0.46484,0.52734 0.038,0.11802 0.0527,0.23096 0.0488,0.3379 z"
         style="opacity:1;vector-effect:none;fill:#f9f9f9;fill-opacity:1;fill-rule:nonzero;stroke:none;stroke-width:3;stroke-linecap:butt;stroke-linejoin:round;stroke-miterlimit:4;stroke-dasharray:none;stroke-dashoffset:0;stroke-opacity:1" />
    </clipPath>
    <inkscape:path-effect
       oposite_fuse="false"
       fuse_paths="false"
       discard_orig_path="false"
       mode="free"
       is_visible="true"
       id="path-effect6014-9"
       center_point="74.364908,446.36491"
       end_point="105.57005,477.57005"
       start_point="43.159767,415.15977"
       effect="mirror_symmetry" />
    <inkscape:path-effect
       effect="mirror_symmetry"
       start_point="43.159767,415.15977"
       end_point="105.57005,477.57005"
       center_point="74.364908,446.36491"
       id="path-effect6944-4"
       is_visible="true"
       mode="free"
       discard_orig_path="false"
       fuse_paths="false"
       oposite_fuse="false" />
    <clipPath
       id="clipPath7054"
       clipPathUnits="userSpaceOnUse">
      <path
         inkscape:connector-curvature="0"
         id="path7056"
         d="m 27.670023,398.75986 v 61.06836 l 49.833984,-50.3125 0.550782,-1.79492 a 0.59226486,0.59226486 0 0 1 0.158203,-0.25586 l 9.160156,-8.70508 z m 67.42188,0 -12.466802,13.11719 a 0.59226486,0.59226486 0 0 1 -0.255859,0.1582 l -1.794922,0.55079 -52.904297,52.40234 v 5.38867 h 72.01562 V 398.75986 Z M 74.375101,430.3419 a 0.77381904,0.77381904 0 0 1 0.04102,0 c 3.137155,0.0826 5.916338,1.55852 7.324218,3.89257 1.407882,2.33405 1.306533,5.51701 -1.0625,8.55469 -2.194399,2.81376 -3.261248,3.60678 -4.714843,5.14258 a 0.77381904,0.77381904 0 0 1 -0.03125,0.0312 c -1.535797,1.4536 -2.32882,2.52044 -5.142578,4.71484 -3.037677,2.36903 -6.220639,2.47038 -8.554688,1.0625 -2.334048,-1.40788 -3.809948,-4.18706 -3.892578,-7.32422 a 0.77381904,0.77381904 0 0 1 0,-0.041 c 0.01036,-0.37516 0.105751,-0.7276 0.318359,-1.01757 0.212609,-0.28997 0.564952,-0.50435 0.941407,-0.52735 0.752909,-0.046 1.31927,0.59279 1.484375,1.33008 a 0.77381904,0.77381904 0 0 1 0.01367,0.0957 c 0.15327,1.57202 1.122605,3.11773 2.4375,3.81836 1.314892,0.70062 2.967327,0.70939 4.945312,-0.98242 1.083021,-0.92634 2.763287,-2.70704 4.369141,-4.19727 1.499219,-1.62047 3.304614,-3.31823 4.240234,-4.41211 1.69181,-1.97799 1.683043,-3.63042 0.982422,-4.94531 -0.700622,-1.31489 -2.246337,-2.28423 -3.818359,-2.4375 a 0.77381904,0.77381904 0 0 1 -0.0957,-0.0137 c -0.737293,-0.16511 -1.376058,-0.73146 -1.330078,-1.48437 0.02299,-0.37645 0.237374,-0.7288 0.527344,-0.94141 0.28997,-0.21261 0.642421,-0.30796 1.017578,-0.31836 z"
         style="opacity:1;vector-effect:none;fill:#e000be;fill-opacity:0.47979802;fill-rule:nonzero;stroke:none;stroke-width:0.25;stroke-linecap:round;stroke-linejoin:round;stroke-miterlimit:4;stroke-dasharray:none;stroke-dashoffset:0;stroke-opacity:1" />
    </clipPath>
    <linearGradient
       gradientUnits="userSpaceOnUse"
       y2="488.77148"
       x2="11.228517"
       y1="385.86719"
       x1="114.13281"
       id="linearGradient7177"
       xlink:href="#linearGradient7175"
       inkscape:collect="always" />
    <inkscape:path-effect
       oposite_fuse="false"
       fuse_paths="false"
       discard_orig_path="false"
       mode="free"
       is_visible="true"
       id="path-effect6965-8"
       center_point="76.223231,448.22323"
       end_point="85.010851,457.01085"
       start_point="67.435611,439.43561"
       effect="mirror_symmetry" />
    <inkscape:path-effect
       oposite_fuse="false"
       fuse_paths="false"
       discard_orig_path="false"
       mode="free"
       is_visible="true"
       id="path-effect6965-0"
       center_point="76.223231,448.22323"
       end_point="85.010851,457.01085"
       start_point="67.435611,439.43561"
       effect="mirror_symmetry" />
    <linearGradient
       gradientTransform="translate(-133.16694,-2.0631498)"
       y2="458.10843"
       x2="86.108414"
       y1="414.79102"
       x1="42.791016"
       gradientUnits="userSpaceOnUse"
       id="linearGradient4021"
       xlink:href="#linearGradient5404"
       inkscape:collect="always" />
    <linearGradient
       y2="24.278193"
       x2="103.72181"
       y1="102.76685"
       x1="25.233152"
       gradientTransform="translate(-133.16694,369.93685)"
       gradientUnits="userSpaceOnUse"
       id="linearGradient4023"
       xlink:href="#linearGradient5404"
       inkscape:collect="always" />
  </defs>
  <sodipodi:namedview
     inkscape:document-rotation="0"
     inkscape:snap-global="true"
     inkscape:snap-grids="false"
     inkscape:lockguides="true"
     inkscape:showpageshadow="false"
     inkscape:window-maximized="0"
     inkscape:window-y="155"
     inkscape:window-x="756"
     inkscape:window-height="883"
     inkscape:window-width="1117"
     inkscape:guide-bbox="true"
     showguides="false"
     inkscape:snap-path-mask="false"
     inkscape:snap-path-clip="false"
     inkscape:pagecheckerboard="false"
     showborder="true"
     units="px"
     showgrid="false"
     inkscape:current-layer="layer4"
     inkscape:document-units="px"
     inkscape:cy="43.031817"
     inkscape:cx="66.750341"
     inkscape:zoom="1.8850242"
     inkscape:pageshadow="2"
     inkscape:pageopacity="0"
     borderopacity="1.0"
     bordercolor="#666666"
     pagecolor="#d2d2d2"
     id="base">
    <inkscape:grid
       empspacing="32"
       spacingx="2"
       spacingy="2"
       id="grid5234"
       type="xygrid" />
    <sodipodi:guide
       inkscape:locked="true"
       id="guide5110"
       orientation="0,128"
       position="0,0" />
    <sodipodi:guide
       inkscape:locked="true"
       id="guide5112"
       orientation="-128,0"
       position="128,0" />
    <sodipodi:guide
       inkscape:locked="true"
       id="guide5114"
       orientation="0,-128"
       position="128,128" />
    <sodipodi:guide
       inkscape:locked="true"
       id="guide5116"
       orientation="128,0"
       position="0,128" />
    <sodipodi:guide
       inkscape:locked="true"
       id="guide5118"
       orientation="0,1"
       position="80,64" />
    <sodipodi:guide
       inkscape:locked="true"
       id="guide5120"
       orientation="1,0"
       position="64,96" />
    <sodipodi:guide
       inkscape:color="rgb(0,0,255)"
       inkscape:label=""
       inkscape:locked="true"
       id="guide5364"
       orientation="-0.70710678,0.70710678"
       position="64,64" />
    <sodipodi:guide
       inkscape:color="rgb(0,0,255)"
       inkscape:label=""
       inkscape:locked="true"
       id="guide6946"
       orientation="0.70710678,0.70710678"
       position="64,64" />
  </sodipodi:namedview>
  <metadata
     id="metadata4686">
    <rdf:RDF>
      <cc:Work
         rdf:about="">
        <dc:format>image/svg+xml</dc:format>
        <dc:type
           rdf:resource="http://purl.org/dc/dcmitype/StillImage" />
        <dc:title />
        <dc:creator>
          <cc:Agent>
            <dc:title>Weaver</dc:title>
          </cc:Agent>
        </dc:creator>
      </cc:Work>
    </rdf:RDF>
  </metadata>
  <g
     style="opacity:1"
     transform="translate(0,-536.70831)"
     id="layer1"
     inkscape:groupmode="layer"
     inkscape:label="Background" />
  <g
     transform="translate(0,-372)"
     inkscape:label="Base"
     id="layer4"
     inkscape:groupmode="layer">
    <g
       id="g871">
      <path
         inkscape:connector-curvature="0"
         d="m 122.0957,375.19399 -5.62381,5.34615 c -0.08,-0.0915 -0.27505,-0.30536 -0.31502,-0.3547 l -0.92408,0.92175 c 0.0357,0.0369 0.22662,0.2415 0.30336,0.32203 L 88.058815,407.5416 c 0.872102,0.6797 1.749894,1.35191 2.515548,2.26586 l 0.007,0.01 c 0.577901,0.66603 1.247017,1.21704 1.92983,1.7455 L 118.278,384.45183 c 6.98193,8.70934 5.10923,20.15407 -2.93091,26.43675 -7.81486,6.10663 -19.361226,6.25656 -25.311822,-0.61372 -7.947127,-9.49961 -22.445069,-5.5014 -25.171804,7.65869 l 0.933413,0.16802 c 2.150859,-10.38073 16.058009,-13.17481 22.105543,-5.94588 8.261006,8.88093 22.55961,9.53477 30.63227,2.51556 12.71735,-11.05778 8.35885,-21.10942 0.58571,-31.10615 l 5.52814,-5.81753 c -0.3786,-0.954 0.20583,-0.76008 -0.7094,-1.84351 -1.08341,-0.91523 -0.8895,-0.33079 -1.84349,-0.70939 z m -33.395163,38.6085 c -0.433534,-0.39891 -0.913939,-0.72473 -1.320779,-1.16211 a 0.71341775,0.71342205 0 0 1 -0.02333,-0.0279 c -0.433423,-0.51809 -0.981891,-0.87899 -1.495793,-1.28811 L 1.1604442,496.8348 0.99242992,498.85099 3.0086011,498.68298 Z"
         style="opacity:1;vector-effect:none;fill:#000000;fill-opacity:1;fill-rule:nonzero;stroke:#000000;stroke-width:0.25;stroke-linecap:round;stroke-linejoin:round;stroke-miterlimit:4;stroke-dasharray:none;stroke-dashoffset:0;stroke-opacity:1"
         id="path6012" />
      <path
         id="path6950"
         style="color:#000000;font-style:normal;font-variant:normal;font-weight:normal;font-stretch:normal;font-size:medium;line-height:normal;font-family:sans-serif;font-variant-ligatures:normal;font-variant-position:normal;font-variant-caps:normal;font-variant-numeric:normal;font-variant-alternates:normal;font-feature-settings:normal;text-indent:0;text-align:start;text-decoration:none;text-decoration-line:none;text-decoration-style:solid;text-decoration-color:#000000;letter-spacing:normal;word-spacing:normal;text-transform:none;writing-mode:lr-tb;direction:ltr;text-orientation:mixed;dominant-baseline:auto;baseline-shift:baseline;text-anchor:start;white-space:normal;shape-padding:0;clip-rule:nonzero;display:inline;overflow:visible;visibility:visible;opacity:1;isolation:auto;mix-blend-mode:normal;color-interpolation:sRGB;color-interpolation-filters:linearRGB;solid-color:#000000;solid-opacity:1;vector-effect:none;fill:#333333;fill-opacity:1;fill-rule:nonzero;stroke:#333333;stroke-width:0.25;stroke-linecap:round;stroke-linejoin:round;stroke-miterlimit:4;stroke-dasharray:none;stroke-dashoffset:0;stroke-opacity:1;color-rendering:auto;image-rendering:auto;shape-rendering:auto;text-rendering:auto;enable-background:accumulate"
         d="m 85.655279,454.45052 c -0.402204,0.39699 -0.968615,1.07023 -1.430988,1.53258 -0.462374,0.46235 -1.135616,1.02877 -1.532597,1.43096 l 14.243876,13.83327 c 0.953986,-0.3786 0.760074,0.20583 1.84349,-0.7094 0.915228,-1.08342 0.330795,-0.88951 0.709393,-1.8435 z m -19.104623,-17.70927 -1.575133,1.56114 14.869262,14.71067 c 0.255851,-0.24529 0.534163,-0.38443 0.788757,-0.6207 0.253112,-0.27358 0.356939,-0.51379 0.620696,-0.78876 z m -5.026426,-1.85284 1.596136,-1.61481 -22.401902,-22.64473 -2.016171,-0.16801 0.168014,2.01619 z m 22.057955,20.45261 c -1.882058,1.78134 -2.764215,2.99324 -6.078334,5.57788 -6.809295,5.31048 -13.195211,0.16529 -13.378058,-6.77679 0.03345,-1.21112 1.1803,-1.29034 1.451512,-0.0792 0.425529,4.36445 5.187492,8.41037 10.340073,4.00324 1.389467,-1.18846 3.400441,-3.33222 5.300146,-5.08979 1.757558,-1.89972 3.901312,-3.91071 5.089755,-5.30018 4.407104,-5.15262 0.361217,-9.91461 -4.003215,-10.34014 -1.211121,-0.27121 -1.131893,-1.41807 0.07923,-1.45152 6.942022,0.18285 12.087187,6.5688 6.776738,13.37814 -2.584622,3.31414 -3.796519,4.1963 -5.577844,6.07837"
         inkscape:connector-curvature="0"
         sodipodi:nodetypes="ccccccccccccccccccccccccccccsc" />
    </g>
  </g>
  <g
     transform="translate(0,-372)"
     inkscape:label="Detail"
     id="layer5"
     inkscape:groupmode="layer" />
  <g
     style="display:none"
     transform="translate(0,-372)"
     inkscape:label="Extra"
     id="layer3"
     inkscape:groupmode="layer">
    <path
       style="opacity:1;vector-effect:none;fill:none;fill-opacity:1;fill-rule:nonzero;stroke:#000000;stroke-width:3;stroke-linecap:butt;stroke-linejoin:round;stroke-miterlimit:4;stroke-dasharray:none;stroke-dashoffset:0;stroke-opacity:1"
       d="m 64,420.88083 c 2.04123,-9.85157 14.749698,-12.28423 20.606341,-5.28353 12.016849,14.36426 41.757329,-4.08336 24.841859,-25.0455"
       id="path6596"
       inkscape:connector-curvature="0"
       sodipodi:nodetypes="csc" />
    <g
       transform="translate(28.50898,20.44394)"
       id="g7108">
      <path
         clip-path="url(#clipPath6907)"
         transform="rotate(-90,64.000002,441.31869)"
         inkscape:original-d="m 16.547553,388.54755 1.68803,0.14068 72.298611,71.6133 1.935285,0.59225 27.575881,29.01567 c -0.31688,0.79847 0.17242,0.6355 -0.59361,1.5423"
         inkscape:path-effect="#path-effect6014"
         sodipodi:nodetypes="cccccc"
         inkscape:connector-curvature="0"
         id="path7100"
         d="m 16.547553,388.54755 1.68803,0.14068 72.298611,71.6133 1.935285,0.59225 27.575881,29.01567 c -0.31688,0.79847 0.17242,0.6355 -0.59361,1.5423 M 16.547545,388.54756 l 0.14068,1.68803 71.613304,72.29861 0.59225,1.93528 29.015671,27.57588 c 0.79847,-0.31688 0.6355,0.17242 1.5423,-0.59361"
         style="opacity:1;vector-effect:none;fill:#00e00e;fill-opacity:1;fill-rule:nonzero;stroke:#000000;stroke-width:0.25;stroke-linecap:round;stroke-linejoin:round;stroke-miterlimit:4;stroke-dasharray:none;stroke-dashoffset:0;stroke-opacity:1" />
      <path
         sodipodi:nodetypes="ccsccccsc"
         inkscape:connector-curvature="0"
         id="path7102"
         d="m 109.0491,390.9509 -0.77301,0.77301 c 7.15457,7.40999 5.8004,17.84912 -1.33468,23.42453 -6.5409,5.11111 -16.205006,5.2366 -21.185551,-0.51367 -6.651606,-7.95096 -18.785451,-4.6044 -21.06768,6.4103 l 0.780571,0.14048 c 1.800231,-8.68844 13.440435,-11.02712 18.502115,-4.97667 6.914317,7.43314 18.882085,7.98075 25.638765,2.10583 11.20759,-9.74498 6.57519,-18.55671 -0.56053,-27.36381 z"
         style="color:#000000;font-style:normal;font-variant:normal;font-weight:normal;font-stretch:normal;font-size:medium;line-height:normal;font-family:sans-serif;font-variant-ligatures:normal;font-variant-position:normal;font-variant-caps:normal;font-variant-numeric:normal;font-variant-alternates:normal;font-feature-settings:normal;text-indent:0;text-align:start;text-decoration:none;text-decoration-line:none;text-decoration-style:solid;text-decoration-color:#000000;letter-spacing:normal;word-spacing:normal;text-transform:none;writing-mode:lr-tb;direction:ltr;text-orientation:mixed;dominant-baseline:auto;baseline-shift:baseline;text-anchor:start;white-space:normal;shape-padding:0;clip-rule:nonzero;display:inline;overflow:visible;visibility:visible;opacity:1;isolation:auto;mix-blend-mode:normal;color-interpolation:sRGB;color-interpolation-filters:linearRGB;solid-color:#000000;solid-opacity:1;vector-effect:none;fill:#07e000;fill-opacity:1;fill-rule:nonzero;stroke:#000000;stroke-width:0.25;stroke-linecap:round;stroke-linejoin:round;stroke-miterlimit:4;stroke-dasharray:none;stroke-dashoffset:0;stroke-opacity:1;color-rendering:auto;image-rendering:auto;shape-rendering:auto;text-rendering:auto;enable-background:accumulate" />
      <path
         style="opacity:1;vector-effect:none;fill:#00e00e;fill-opacity:1;fill-rule:nonzero;stroke:#000000;stroke-width:0.25;stroke-linecap:round;stroke-linejoin:round;stroke-miterlimit:4;stroke-dasharray:none;stroke-dashoffset:0;stroke-opacity:1"
         d="m 37.835508,409.8355 1.68803,0.14068 34.598401,34.97409 1.935285,0.59225 12.655648,13.03444 c -0.31688,0.79847 0.17242,0.6355 -0.59361,1.5423 m -50.283766,-50.28375 0.14068,1.68803 34.974092,34.5984 0.59225,1.93529 13.034441,12.65564 c 0.79847,-0.31688 0.6355,0.17242 1.5423,-0.59361"
         id="path7104"
         inkscape:connector-curvature="0"
         sodipodi:nodetypes="cccccc"
         inkscape:path-effect="#path-effect6944"
         inkscape:original-d="m 37.835508,409.8355 1.68803,0.14068 34.598401,34.97409 1.935285,0.59225 12.655648,13.03444 c -0.31688,0.79847 0.17242,0.6355 -0.59361,1.5423"
         transform="translate(4.9549768,4.9549798)"
         clip-path="url(#clipPath7054)" />
      <path
         inkscape:original-d="m 80.354699,452.3547 c 1.490938,-1.57525 2.505274,-2.3136 4.668558,-5.08746 4.444753,-5.69926 0.13834,-11.04416 -5.672011,-11.1972 -1.013685,0.028 -1.079997,0.98789 -0.06631,1.21489 3.652953,0.35616 7.03929,4.34184 3.350621,8.65446 -0.994706,1.16296 -2.788991,2.84611 -4.260036,4.43613"
         inkscape:path-effect="#path-effect6965"
         sodipodi:nodetypes="csccsc"
         inkscape:connector-curvature="0"
         id="path7106"
         d="m 80.354699,452.3547 c 1.490938,-1.57525 2.505274,-2.3136 4.668558,-5.08746 4.444753,-5.69926 0.13834,-11.04416 -5.672011,-11.1972 -1.013685,0.028 -1.079997,0.98789 -0.06631,1.21489 3.652953,0.35616 7.03929,4.34184 3.350621,8.65446 -0.994706,1.16296 -2.788991,2.84611 -4.260036,4.43613 m 1.97918,1.97918 c -1.57525,1.49094 -2.3136,2.50527 -5.08746,4.66856 -5.69926,4.44475 -11.04416,0.13834 -11.1972,-5.67202 0.028,-1.01368 0.98789,-1.07999 1.21489,-0.0663 0.35616,3.65295 4.34184,7.03929 8.65446,3.35062 1.16296,-0.99471 2.84611,-2.78899 4.43613,-4.26004"
         style="color:#000000;font-style:normal;font-variant:normal;font-weight:normal;font-stretch:normal;font-size:medium;line-height:normal;font-family:sans-serif;font-variant-ligatures:normal;font-variant-position:normal;font-variant-caps:normal;font-variant-numeric:normal;font-variant-alternates:normal;font-feature-settings:normal;text-indent:0;text-align:start;text-decoration:none;text-decoration-line:none;text-decoration-style:solid;text-decoration-color:#000000;letter-spacing:normal;word-spacing:normal;text-transform:none;writing-mode:lr-tb;direction:ltr;text-orientation:mixed;dominant-baseline:auto;baseline-shift:baseline;text-anchor:start;white-space:normal;shape-padding:0;clip-rule:nonzero;display:inline;overflow:visible;visibility:visible;opacity:1;isolation:auto;mix-blend-mode:normal;color-interpolation:sRGB;color-interpolation-filters:linearRGB;solid-color:#000000;solid-opacity:1;vector-effect:none;fill:#00e00e;fill-opacity:1;fill-rule:nonzero;stroke:#000000;stroke-width:0.25;stroke-linecap:round;stroke-linejoin:round;stroke-miterlimit:4;stroke-dasharray:none;stroke-dashoffset:0;stroke-opacity:1;color-rendering:auto;image-rendering:auto;shape-rendering:auto;text-rendering:auto;enable-background:accumulate" />
    </g>
    <path
       inkscape:connector-curvature="0"
       d="m -20.577103,383.21029 -4.70703,4.47461 c -0.067,-0.0766 -0.23021,-0.25558 -0.26367,-0.29688 l -0.77344,0.77149 c 0.0299,0.0309 0.18968,0.20213 0.25391,0.26953 l -22.998048,21.85547 c 0.729934,0.5689 1.46463,1.13152 2.105469,1.89648 l 0.0059,0.008 c 0.483693,0.55745 1.043732,1.01863 1.615234,1.46094 l 21.566365,-22.6914 c 5.84376,7.28952 4.27634,16.8685 -2.45312,22.12696 -6.5409,5.11111 -16.205006,5.2366 -21.185551,-0.51367 -6.651606,-7.95096 -18.78613,-4.60455 -21.068359,6.41015 l 0.78125,0.14063 c 1.800231,-8.68844 13.440273,-11.02702 18.501953,-4.97657 6.914317,7.43314 18.881997,7.98039 25.638677,2.10547 10.6442,-9.25511 6.99621,-17.66811 0.49023,-26.03515 l 4.62695,-4.86914 c -0.31688,-0.79847 0.17228,-0.63617 -0.59375,-1.54297 -0.9068,-0.76603 -0.7445,-0.27687 -1.54297,-0.59375 z m -27.951168,32.31445 c -0.362861,-0.33388 -0.764951,-0.60659 -1.105469,-0.97266 a 0.59711818,0.59711818 0 0 1 -0.01953,-0.0234 c -0.362768,-0.43363 -0.821826,-0.73569 -1.251953,-1.07812 l -70.892577,71.57031 -0.14063,1.6875 1.6875,-0.14062 z"
       style="opacity:1;vector-effect:none;fill:url(#linearGradient4023);fill-opacity:1;fill-rule:nonzero;stroke:#000000;stroke-width:0.25;stroke-linecap:round;stroke-linejoin:round;stroke-miterlimit:4;stroke-dasharray:none;stroke-dashoffset:0;stroke-opacity:1"
       id="path4017" />
    <path
       id="path4019"
       style="color:#000000;font-style:normal;font-variant:normal;font-weight:normal;font-stretch:normal;font-size:medium;line-height:normal;font-family:sans-serif;font-variant-ligatures:normal;font-variant-position:normal;font-variant-caps:normal;font-variant-numeric:normal;font-variant-alternates:normal;font-feature-settings:normal;text-indent:0;text-align:start;text-decoration:none;text-decoration-line:none;text-decoration-style:solid;text-decoration-color:#000000;letter-spacing:normal;word-spacing:normal;text-transform:none;writing-mode:lr-tb;direction:ltr;text-orientation:mixed;dominant-baseline:auto;baseline-shift:baseline;text-anchor:start;white-space:normal;shape-padding:0;clip-rule:nonzero;display:inline;overflow:visible;visibility:visible;opacity:1;isolation:auto;mix-blend-mode:normal;color-interpolation:sRGB;color-interpolation-filters:linearRGB;solid-color:#000000;solid-opacity:1;vector-effect:none;fill:url(#linearGradient4021);fill-opacity:1;fill-rule:nonzero;stroke:#000000;stroke-width:0.25;stroke-linecap:round;stroke-linejoin:round;stroke-miterlimit:4;stroke-dasharray:none;stroke-dashoffset:0;stroke-opacity:1;color-rendering:auto;image-rendering:auto;shape-rendering:auto;text-rendering:auto;enable-background:accumulate"
       d="m -51.077099,449.54622 c -0.336638,0.33227 -0.810714,0.89576 -1.197712,1.28274 -0.386999,0.38697 -0.950491,0.86105 -1.282757,1.19768 l 11.921875,11.57813 c 0.79847,-0.31688 0.636169,0.17228 1.542969,-0.59375 0.76603,-0.9068 0.27687,-0.7445 0.59375,-1.54297 z m -15.990235,-14.82226 -1.318359,1.30664 12.445312,12.3125 c 0.214143,-0.2053 0.447085,-0.32176 0.660176,-0.51951 0.21185,-0.22898 0.298752,-0.43003 0.519512,-0.66018 z m -4.207031,-1.55078 1.335938,-1.35156 -18.75,-18.95313 -1.6875,-0.14062 0.140625,1.6875 z m 18.462123,17.11837 c -1.57525,1.49094 -2.3136,2.50527 -5.08746,4.66856 -5.69926,4.44475 -11.04416,0.13834 -11.1972,-5.67202 0.028,-1.01368 0.98789,-1.07999 1.21489,-0.0663 0.35616,3.65295 4.34184,7.03929 8.65446,3.35062 1.16296,-0.99471 2.84611,-2.78899 4.43613,-4.26004 1.471045,-1.59002 3.26533,-3.27317 4.260036,-4.43613 3.688669,-4.31262 0.302332,-8.2983 -3.350621,-8.65446 -1.013687,-0.227 -0.947375,-1.18689 0.06631,-1.21489 5.810351,0.15304 10.116764,5.49794 5.672011,11.1972 -2.163284,2.77386 -3.17762,3.51221 -4.668558,5.08746"
       inkscape:connector-curvature="0"
       sodipodi:nodetypes="ccccccccccccccccccccccccccccsc" />
  </g>
  <g
     transform="translate(0,-372)"
     inkscape:label="Text"
     id="layer2"
     inkscape:groupmode="layer" />
</svg>
